{"glyphs":{"0":{"ha":926,"x_min":99,"x_max":828,"o":"m 464 -17 q 316 13 381 -17 q 211 92 251 43 q 145 207 171 140 q 109 342 119 274 q 99 486 99 410 q 117 671 99 586 q 175 830 135 756 q 289 947 215 904 q 464 989 363 989 q 640 946 567 989 q 753 828 714 903 q 810 669 793 754 q 828 486 828 585 q 810 302 828 388 q 752 143 792 217 q 639 26 713 69 q 464 -17 565 -17 m 464 183 q 583 269 546 183 q 619 486 619 354 q 606 634 619 569 q 556 744 593 699 q 464 789 519 789 q 344 703 382 789 q 307 486 307 618 q 321 340 307 404 q 371 229 335 275 q 464 183 407 183 z "},"1":{"ha":578,"x_min":43,"x_max":397,"o":"m 186 0 l 186 700 l 43 700 l 43 872 q 225 972 192 872 l 397 972 l 397 0 l 186 0 z "},"2":{"ha":849,"x_min":85,"x_max":760,"o":"m 85 0 q 131 253 85 143 q 246 429 176 363 q 418 553 315 496 q 510 617 478 585 q 543 693 543 649 q 440 789 543 789 q 289 692 340 789 l 100 776 q 235 932 144 875 q 433 989 326 989 q 666 907 581 989 q 751 701 751 825 q 701 519 751 586 q 546 393 650 453 q 400 294 444 332 q 332 203 356 256 l 760 203 l 760 0 l 85 0 z "},"3":{"ha":832,"x_min":63,"x_max":746,"o":"m 415 -17 q 197 44 289 -17 q 63 214 104 106 l 251 290 q 415 183 313 183 q 504 211 471 183 q 538 289 538 239 q 504 357 538 328 q 408 386 471 386 l 303 386 l 303 589 l 408 589 q 481 616 454 589 q 507 692 507 643 q 480 761 507 733 q 406 789 453 789 q 282 713 329 789 l 93 786 q 222 935 140 881 q 408 989 303 989 q 631 911 546 989 q 715 710 715 833 q 601 494 715 569 q 704 410 663 471 q 746 260 746 349 q 654 62 746 140 q 415 -17 563 -17 z "},"4":{"ha":911,"x_min":15,"x_max":833,"o":"m 515 0 l 515 181 l 15 181 l 15 314 l 513 972 l 719 972 l 719 376 l 833 376 l 833 181 l 719 181 l 719 0 l 515 0 m 515 376 l 515 685 l 289 376 l 515 376 z "},"5":{"ha":839,"x_min":78,"x_max":757,"o":"m 382 -17 q 78 79 201 -17 l 188 244 q 382 183 285 183 q 503 221 458 183 q 547 329 547 258 q 518 419 547 385 q 433 453 489 453 q 289 383 350 453 l 106 479 l 126 972 l 696 972 l 696 769 l 321 769 l 315 632 q 435 653 382 653 q 673 561 589 653 q 757 326 757 469 q 651 76 757 169 q 382 -17 546 -17 z "},"6":{"ha":865,"x_min":85,"x_max":803,"o":"m 449 -17 q 181 88 276 -17 q 85 357 85 192 q 229 773 85 604 q 675 989 374 942 l 675 789 q 470 722 563 772 q 338 583 378 672 q 475 619 396 619 q 710 531 618 619 q 803 301 803 442 q 703 72 803 160 q 449 -17 604 -17 m 449 183 q 553 215 513 183 q 593 301 593 247 q 552 388 593 354 q 449 421 511 421 q 344 387 385 421 q 303 301 303 353 q 343 215 303 246 q 449 183 383 183 z "},"7":{"ha":757,"x_min":29,"x_max":707,"o":"m 222 0 q 281 419 224 235 q 457 769 338 604 l 29 769 l 29 972 l 707 972 l 707 803 q 502 417 574 654 q 431 0 431 179 l 222 0 z "},"8":{"ha":886,"x_min":85,"x_max":803,"o":"m 443 -17 q 181 69 276 -17 q 85 299 85 154 q 246 532 85 461 q 159 608 196 557 q 122 731 122 658 q 207 919 122 849 q 443 989 292 989 q 678 919 593 989 q 764 731 764 849 q 726 610 764 661 q 640 535 689 558 q 758 439 714 501 q 803 299 803 376 q 707 69 803 154 q 443 -17 611 -17 m 443 619 q 525 647 493 619 q 557 715 557 674 q 525 781 557 754 q 443 807 493 807 q 360 781 390 807 q 331 715 331 756 q 360 646 331 672 q 443 619 389 619 m 443 171 q 551 208 508 171 q 593 300 593 244 q 551 394 593 358 q 443 429 508 429 q 334 394 375 429 q 293 300 293 360 q 335 207 293 243 q 443 171 376 171 z "},"9":{"ha":865,"x_min":64,"x_max":790,"o":"m 217 -17 l 217 179 q 550 404 478 182 q 400 361 489 361 q 157 444 250 361 q 64 676 64 528 q 164 904 64 819 q 424 989 264 989 q 699 887 607 989 q 790 613 790 785 q 647 154 790 319 q 217 -17 504 -11 m 422 557 q 524 588 486 557 q 561 678 561 618 q 523 765 561 732 q 424 799 485 799 q 311 766 351 799 q 271 679 271 733 q 310 588 271 619 q 422 557 350 557 z "}," ":{"ha":358,"x_min":0,"x_max":0,"o":""},"!":{"ha":436,"x_min":88,"x_max":347,"o":"m 154 268 l 115 672 l 115 989 l 317 989 l 317 672 l 278 268 l 154 268 m 309 21 q 290 2 309 21 q 215 -17 271 -17 q 124 20 160 -17 q 88 111 88 57 q 124 203 88 165 q 215 240 160 240 q 309 203 271 240 q 347 111 347 165 q 309 21 347 58 z "},"\"":{"ha":644,"x_min":63,"x_max":582,"o":"m 63 972 l 300 972 l 264 560 l 99 560 l 63 972 m 346 972 l 582 972 l 546 560 l 381 560 l 346 972 z "},"#":{"ha":988,"x_min":58,"x_max":929,"o":"m 164 0 l 200 235 l 58 235 l 83 411 l 226 411 l 253 588 l 111 588 l 136 763 l 282 763 l 310 972 l 489 972 l 457 763 l 611 763 l 644 972 l 819 972 l 789 763 l 929 763 l 906 588 l 763 588 l 736 411 l 876 411 l 850 235 l 710 235 l 674 0 l 496 0 l 531 235 l 378 235 l 342 0 l 164 0 m 404 411 l 558 411 l 583 588 l 431 588 l 404 411 z "},"$":{"ha":849,"x_min":69,"x_max":765,"o":"m 321 -124 l 321 -1 q 69 263 142 53 l 260 333 q 335 225 289 267 q 436 183 382 183 q 519 210 488 183 q 550 283 550 236 q 538 330 550 310 q 499 367 526 350 q 450 394 471 385 q 385 421 429 404 q 307 452 333 440 q 237 491 281 464 q 170 547 193 518 q 129 621 147 575 q 111 722 111 667 q 167 883 111 813 q 321 978 222 954 l 321 1088 l 525 1088 l 525 976 q 733 749 679 931 l 546 688 q 413 789 506 789 q 328 722 328 789 q 338 687 328 703 q 373 657 349 671 q 417 634 397 643 q 478 610 438 625 q 557 578 529 590 q 631 537 585 565 q 701 478 676 508 q 746 397 726 447 q 765 285 765 346 q 698 92 765 169 q 525 -7 631 15 l 525 -124 l 321 -124 z "},"%":{"ha":1167,"x_min":63,"x_max":1104,"o":"m 304 474 q 123 551 183 474 q 63 731 63 629 q 85 847 63 792 q 164 946 107 903 q 304 989 221 989 q 485 911 425 989 q 544 731 544 833 q 531 643 544 686 q 492 561 518 600 q 417 498 465 522 q 304 474 368 474 m 356 -17 l 150 -17 l 811 989 l 1018 989 l 356 -17 m 304 646 q 351 670 335 646 q 367 731 367 694 q 304 817 367 817 q 256 792 272 817 q 240 731 240 768 q 304 646 240 646 m 1045 62 q 1016 23 1045 62 q 864 -17 986 -17 q 683 60 742 -17 q 624 242 624 138 q 683 420 624 340 q 864 500 743 500 q 1044 423 985 500 q 1104 242 1104 346 q 1045 62 1104 140 m 864 156 q 911 181 894 156 q 928 242 928 206 q 911 304 928 281 q 864 328 894 328 q 817 303 833 328 q 800 242 800 278 q 864 156 800 156 z "},"&":{"ha":1014,"x_min":83,"x_max":974,"o":"m 383 -17 q 164 60 244 -17 q 83 268 83 138 q 285 544 83 442 q 197 757 197 643 q 268 926 197 864 q 444 989 339 989 q 627 928 558 989 q 696 763 696 868 q 549 517 696 617 l 631 419 q 633 494 633 461 l 832 494 q 815 356 832 425 q 772 251 799 286 l 974 0 l 722 0 l 651 88 q 383 -17 551 -17 m 446 844 q 403 825 421 844 q 385 774 385 806 q 444 642 385 707 q 508 761 508 682 q 490 824 508 803 q 446 844 472 844 m 403 178 q 540 225 476 178 l 390 411 q 289 272 289 358 q 319 204 289 231 q 403 178 349 178 z "},"'":{"ha":363,"x_min":63,"x_max":300,"o":"m 63 972 l 300 972 l 264 560 l 99 560 l 63 972 z "},"(":{"ha":538,"x_min":97,"x_max":482,"o":"m 267 -181 q 146 62 194 -86 q 97 392 97 210 q 151 735 97 576 q 282 989 206 894 l 482 989 q 359 747 418 908 q 300 392 300 585 q 355 51 300 206 q 467 -181 410 -103 l 267 -181 z "},")":{"ha":538,"x_min":56,"x_max":440,"o":"m 71 -181 q 183 53 129 -97 q 238 392 238 204 q 178 748 238 586 q 56 989 119 910 l 256 989 q 386 735 332 894 q 440 392 440 576 q 392 62 440 210 q 271 -181 343 -86 l 71 -181 z "},"*":{"ha":779,"x_min":69,"x_max":710,"o":"m 403 517 l 390 581 l 378 517 l 275 379 l 124 489 l 225 626 l 282 643 l 219 644 l 69 694 l 128 876 l 279 826 l 321 792 l 294 843 l 294 1007 l 486 1007 l 486 843 l 460 793 l 501 826 l 653 876 l 710 694 l 561 644 l 501 643 l 554 626 l 657 489 l 504 379 l 403 517 z "},"+":{"ha":875,"x_min":111,"x_max":764,"o":"m 539 379 l 539 150 l 338 150 l 338 379 l 111 379 l 111 575 l 338 575 l 338 803 l 539 803 l 539 575 l 764 575 l 764 379 l 539 379 z "},",":{"ha":363,"x_min":44,"x_max":314,"o":"m 44 -126 q 94 -72 64 -110 q 138 -8 124 -35 q 67 107 67 29 q 104 194 67 160 q 192 228 142 228 q 279 190 244 228 q 314 90 314 153 q 260 -69 314 13 q 133 -196 206 -151 l 44 -126 z "},"-":{"ha":586,"x_min":104,"x_max":482,"o":"m 104 314 l 104 506 l 482 506 l 482 314 l 104 314 z "},".":{"ha":350,"x_min":50,"x_max":300,"o":"m 263 18 q 245 1 263 18 q 174 -17 226 -17 q 85 18 121 -17 q 50 104 50 53 q 85 192 50 156 q 174 228 121 228 q 263 192 226 228 q 300 104 300 156 q 263 18 300 53 z "},"/":{"ha":749,"x_min":-21,"x_max":735,"o":"m -21 -181 l 525 989 l 735 989 l 189 -181 l -21 -181 z "},":":{"ha":350,"x_min":50,"x_max":300,"o":"m 263 468 q 245 451 263 468 q 174 433 226 433 q 85 468 121 433 q 50 554 50 503 q 85 642 50 606 q 174 678 121 678 q 263 642 226 678 q 300 554 300 606 q 263 468 300 503 m 263 18 q 245 1 263 18 q 174 -17 226 -17 q 85 18 121 -17 q 50 104 50 53 q 85 192 50 156 q 174 228 121 228 q 263 192 226 228 q 300 104 300 156 q 263 18 300 53 z "},";":{"ha":350,"x_min":38,"x_max":308,"o":"m 272 468 q 254 451 272 468 q 183 433 236 433 q 95 468 131 433 q 60 554 60 503 q 95 642 60 606 q 183 678 131 678 q 272 642 236 678 q 308 554 308 606 q 272 468 308 503 m 38 -126 q 131 -8 107 -71 q 60 107 60 29 q 97 194 60 160 q 183 228 133 228 q 272 190 238 228 q 307 90 307 153 q 255 -72 307 4 q 126 -196 203 -149 l 38 -126 z "},"<":{"ha":875,"x_min":111,"x_max":764,"o":"m 764 129 l 111 396 l 111 557 l 764 825 l 764 611 l 421 476 l 764 339 l 764 129 z "},"=":{"ha":875,"x_min":111,"x_max":764,"o":"m 111 544 l 111 739 l 764 739 l 764 544 l 111 544 m 111 214 l 111 408 l 764 408 l 764 214 l 111 214 z "},">":{"ha":875,"x_min":111,"x_max":764,"o":"m 764 396 l 111 129 l 111 342 l 454 476 l 111 614 l 111 825 l 764 557 l 764 396 z "},"?":{"ha":704,"x_min":28,"x_max":656,"o":"m 242 261 l 242 324 q 264 448 242 394 q 317 532 286 501 q 380 587 349 563 q 433 640 411 611 q 456 703 456 668 q 428 769 456 743 q 353 794 401 794 q 229 644 229 794 l 28 644 q 117 899 28 810 q 353 989 206 989 q 576 909 496 989 q 656 703 656 829 q 633 592 656 639 q 580 516 611 544 q 517 462 549 488 q 464 401 486 436 q 442 322 442 367 l 442 261 l 242 261 m 433 18 q 415 1 433 18 q 344 -17 397 -17 q 256 18 292 -17 q 221 104 221 53 q 256 192 221 156 q 344 228 292 228 q 433 192 397 228 q 469 104 469 156 q 433 18 469 53 z "},"@":{"ha":1178,"x_min":83,"x_max":1094,"o":"m 600 -17 q 223 112 363 -17 q 83 471 83 240 q 235 842 83 696 q 611 989 388 989 q 961 869 828 989 q 1094 574 1094 750 q 1006 317 1094 418 q 779 217 917 217 q 709 233 744 217 q 661 283 674 250 q 536 219 625 219 q 392 284 447 219 q 336 457 336 349 q 410 657 336 569 q 599 744 483 744 q 700 701 668 744 l 704 726 l 849 726 l 803 472 q 785 371 785 386 q 808 353 785 353 q 906 409 865 353 q 946 569 946 465 q 865 765 946 689 q 619 840 785 840 q 343 738 449 840 q 238 469 238 635 q 336 219 238 306 q 606 132 435 132 q 807 163 675 132 l 760 -4 q 600 -17 653 -17 m 551 365 q 631 411 600 365 q 661 513 661 457 q 597 599 661 599 q 517 556 547 599 q 488 453 488 514 q 505 389 488 413 q 551 365 522 365 z "},"A":{"ha":1024,"x_min":26,"x_max":997,"o":"m 767 0 l 694 189 l 329 189 l 257 0 l 26 0 l 410 972 l 613 972 l 997 0 l 767 0 m 624 383 l 540 593 q 511 675 521 640 q 482 593 506 651 l 399 383 l 624 383 z "},"B":{"ha":983,"x_min":104,"x_max":915,"o":"m 104 972 l 563 972 q 806 897 729 972 q 883 708 883 821 q 774 507 883 558 q 880 419 844 481 q 915 292 915 358 q 833 85 915 171 q 581 0 751 0 l 104 0 l 104 972 m 542 593 q 668 685 668 593 q 564 775 668 775 l 315 775 l 315 593 l 542 593 m 590 199 q 675 228 649 199 q 701 296 701 257 q 553 403 701 403 l 315 403 l 315 199 l 590 199 z "},"C":{"ha":882,"x_min":69,"x_max":838,"o":"m 479 -14 q 287 30 369 -14 q 158 147 204 74 q 91 306 113 221 q 69 486 69 390 q 92 658 69 574 q 160 817 114 742 q 288 940 206 893 q 479 986 371 986 q 704 918 611 986 q 836 753 797 850 l 647 668 q 570 756 607 728 q 479 783 533 783 q 389 756 428 783 q 329 684 350 729 q 299 590 308 639 q 289 486 289 540 q 308 347 289 413 q 372 235 326 282 q 479 189 417 189 q 644 314 569 189 l 838 242 q 479 -14 719 -14 z "},"D":{"ha":1006,"x_min":104,"x_max":938,"o":"m 104 972 l 463 972 q 679 931 585 972 q 828 820 774 890 q 910 665 883 750 q 938 486 938 581 q 922 351 938 417 q 871 220 907 285 q 781 108 835 156 q 643 30 726 60 q 457 0 560 0 l 104 0 l 104 972 m 479 201 q 658 287 599 201 q 718 486 718 372 q 660 686 718 600 q 494 772 603 772 l 315 772 l 315 201 l 479 201 z "},"E":{"ha":885,"x_min":104,"x_max":831,"o":"m 104 0 l 104 972 l 803 972 l 803 772 l 315 772 l 315 601 l 588 601 l 588 401 l 315 401 l 315 201 l 831 201 l 831 0 l 104 0 z "},"F":{"ha":807,"x_min":104,"x_max":782,"o":"m 104 0 l 104 972 l 782 972 l 782 772 l 315 772 l 315 601 l 608 601 l 608 401 l 315 401 l 315 0 l 104 0 z "},"G":{"ha":921,"x_min":69,"x_max":864,"o":"m 499 -17 q 306 26 390 -17 q 171 140 221 68 q 95 300 121 213 q 69 486 69 388 q 96 665 69 578 q 173 825 122 751 q 308 944 224 899 q 499 989 393 989 q 710 929 628 989 q 857 767 793 869 l 672 663 q 499 786 594 786 q 374 737 424 786 q 306 624 324 688 q 289 486 289 560 q 341 273 289 360 q 499 186 393 186 q 603 225 558 186 q 647 315 647 264 l 647 322 l 489 322 l 489 524 l 864 524 l 864 371 q 762 86 864 189 q 499 -17 660 -17 z "},"H":{"ha":1017,"x_min":104,"x_max":914,"o":"m 701 0 l 701 399 l 315 399 l 315 0 l 104 0 l 104 972 l 315 972 l 315 600 l 701 600 l 701 972 l 914 972 l 914 0 l 701 0 z "},"I":{"ha":432,"x_min":111,"x_max":322,"o":"m 111 0 l 111 972 l 322 972 l 322 0 l 111 0 z "},"J":{"ha":785,"x_min":14,"x_max":689,"o":"m 350 -17 q 153 45 244 -17 q 14 215 63 107 l 200 300 q 350 188 261 188 q 476 360 476 188 l 476 972 l 689 972 l 689 344 q 668 199 689 263 q 614 95 647 135 q 535 30 581 56 q 444 -6 489 4 q 350 -17 399 -17 z "},"K":{"ha":1018,"x_min":104,"x_max":985,"o":"m 738 0 l 500 442 l 315 211 l 315 0 l 104 0 l 104 972 l 315 972 l 315 513 l 679 972 l 933 972 l 643 619 l 985 0 l 738 0 z "},"L":{"ha":792,"x_min":104,"x_max":782,"o":"m 104 0 l 104 972 l 315 972 l 315 204 l 782 204 l 782 0 l 104 0 z "},"M":{"ha":1128,"x_min":104,"x_max":1024,"o":"m 1024 0 l 813 0 l 813 482 q 814 513 813 496 q 801 485 807 496 l 565 -17 l 326 482 q 315 513 322 492 l 315 482 l 315 0 l 104 0 l 104 972 l 319 972 l 546 476 q 569 415 556 454 q 593 476 583 454 l 826 972 l 1024 972 l 1024 0 z "},"N":{"ha":1004,"x_min":104,"x_max":901,"o":"m 901 0 l 717 0 l 350 515 q 308 589 336 533 q 313 515 313 565 l 313 0 l 104 0 l 104 972 l 297 972 l 654 463 q 694 390 681 425 q 690 464 690 419 l 690 972 l 901 972 l 901 0 z "},"O":{"ha":1000,"x_min":69,"x_max":932,"o":"m 501 -17 q 335 13 410 -17 q 213 91 261 42 q 131 206 164 140 q 84 341 99 271 q 69 486 69 411 q 84 631 69 561 q 131 767 99 701 q 213 881 164 832 q 335 960 261 931 q 501 989 410 989 q 700 945 614 989 q 835 827 786 901 q 908 667 883 753 q 932 486 932 581 q 908 306 932 392 q 835 145 883 219 q 700 27 786 71 q 501 -17 614 -17 m 501 188 q 624 237 574 188 q 693 351 674 286 q 713 486 713 415 q 694 626 713 561 q 626 738 676 690 q 501 786 576 786 q 376 737 426 786 q 307 623 325 688 q 289 486 289 558 q 300 382 289 432 q 335 287 311 332 q 401 215 358 242 q 501 188 444 188 z "},"P":{"ha":893,"x_min":104,"x_max":874,"o":"m 104 0 l 104 972 l 535 972 q 791 882 708 972 q 874 660 874 792 q 854 549 874 603 q 796 450 835 496 q 689 376 757 404 q 535 349 621 349 l 315 349 l 315 0 l 104 0 m 543 547 q 626 581 599 547 q 654 660 654 614 q 628 738 654 704 q 543 772 601 772 l 315 772 l 315 547 l 543 547 z "},"Q":{"ha":1000,"x_min":69,"x_max":932,"o":"m 501 -17 q 335 13 410 -17 q 213 91 261 42 q 131 206 164 140 q 84 341 99 271 q 69 486 69 411 q 84 631 69 561 q 131 767 99 701 q 213 881 164 832 q 335 960 261 931 q 501 989 410 989 q 700 945 614 989 q 835 827 786 901 q 908 667 883 753 q 932 486 932 581 q 794 97 932 240 l 869 -12 l 714 -112 l 636 1 q 501 -17 571 -17 m 501 188 l 506 189 q 513 189 510 189 l 433 304 l 590 406 l 668 289 q 713 486 713 364 q 694 626 713 561 q 626 738 676 690 q 501 786 576 786 q 376 737 426 786 q 307 623 325 688 q 289 486 289 558 q 300 382 289 432 q 335 287 311 332 q 401 215 358 242 q 501 188 444 188 z "},"R":{"ha":976,"x_min":104,"x_max":915,"o":"m 104 0 l 104 972 l 578 972 q 831 885 753 972 q 910 658 910 797 q 863 490 910 572 q 733 375 815 408 l 915 0 l 679 0 l 503 343 l 315 343 l 315 0 l 104 0 m 315 543 l 581 543 q 690 658 690 543 q 665 740 690 707 q 581 772 639 772 l 315 772 l 315 543 z "},"S":{"ha":863,"x_min":49,"x_max":801,"o":"m 439 -17 q 195 59 297 -17 q 49 268 93 135 l 238 339 q 325 226 271 268 q 444 183 379 183 q 551 209 513 183 q 590 283 590 235 q 562 340 590 315 q 502 377 533 365 q 406 410 471 389 q 341 431 363 424 q 279 456 319 439 q 218 486 239 472 q 168 524 197 500 q 124 573 139 547 q 99 635 110 599 q 88 714 88 672 q 179 910 88 831 q 428 989 271 989 q 647 921 558 989 q 765 746 736 853 l 576 685 q 417 789 531 789 q 299 710 299 789 q 310 678 299 692 q 350 650 321 664 q 398 629 379 636 q 464 606 417 622 q 541 579 514 589 q 615 549 568 569 q 690 506 663 529 q 746 451 717 483 q 788 376 775 419 q 801 282 801 333 q 699 64 801 144 q 439 -17 596 -17 z "},"T":{"ha":851,"x_min":42,"x_max":811,"o":"m 532 769 l 532 0 l 321 0 l 321 769 l 42 769 l 42 972 l 811 972 l 811 769 l 532 769 z "},"U":{"ha":1006,"x_min":97,"x_max":908,"o":"m 503 -17 q 356 3 425 -17 q 228 67 288 24 q 133 190 168 111 q 97 375 97 269 l 97 972 l 308 972 l 308 375 q 355 229 308 271 q 503 188 401 188 q 649 230 601 188 q 697 375 697 272 l 697 972 l 908 972 l 908 375 q 874 192 908 271 q 780 69 839 114 q 651 4 721 25 q 503 -17 582 -17 z "},"V":{"ha":969,"x_min":35,"x_max":935,"o":"m 385 0 l 35 972 l 264 972 l 474 360 q 482 333 478 350 l 486 318 q 499 360 489 331 l 708 972 l 935 972 l 586 0 l 385 0 z "},"W":{"ha":1185,"x_min":42,"x_max":1143,"o":"m 250 0 l 42 972 l 260 972 l 361 454 q 365 428 364 444 q 368 406 367 411 q 371 429 369 413 q 375 457 372 446 l 499 972 l 683 972 l 808 456 q 814 425 811 443 q 817 403 817 407 q 819 418 818 408 q 822 436 821 428 q 825 453 824 444 l 925 972 l 1143 972 l 933 0 l 733 0 l 597 540 q 589 594 594 553 q 581 542 583 547 l 450 0 l 250 0 z "},"X":{"ha":994,"x_min":49,"x_max":946,"o":"m 697 0 l 497 307 l 297 0 l 49 0 l 374 500 l 67 972 l 315 972 l 497 693 l 678 972 l 928 972 l 622 500 l 946 0 l 697 0 z "},"Y":{"ha":982,"x_min":17,"x_max":965,"o":"m 386 0 l 386 378 l 17 972 l 256 972 l 492 603 l 726 972 l 965 972 l 596 378 l 596 0 l 386 0 z "},"Z":{"ha":882,"x_min":56,"x_max":814,"o":"m 56 0 l 56 158 l 533 772 l 85 772 l 85 972 l 814 972 l 814 815 l 331 200 l 814 200 l 814 0 l 56 0 z "},"[":{"ha":557,"x_min":139,"x_max":501,"o":"m 139 -181 l 139 989 l 501 989 l 501 794 l 340 794 l 340 14 l 501 14 l 501 -181 l 139 -181 z "},"\\":{"ha":749,"x_min":-21,"x_max":735,"o":"m 525 -181 l -21 989 l 189 989 l 735 -181 l 525 -181 z "},"]":{"ha":557,"x_min":56,"x_max":418,"o":"m 418 -181 l 56 -181 l 56 14 l 214 14 l 214 794 l 56 794 l 56 989 l 418 989 l 418 -181 z "},"^":{"ha":875,"x_min":71,"x_max":804,"o":"m 594 465 l 438 725 l 281 465 l 71 465 l 365 989 l 510 989 l 804 465 l 594 465 z "},"_":{"ha":694,"x_min":-7,"x_max":701,"o":"m -7 -246 l -7 -100 l 701 -100 l 701 -246 l -7 -246 z "},"`":{"ha":718,"x_min":117,"x_max":554,"o":"m 364 800 l 117 1017 l 357 1017 l 554 800 l 364 800 z "},"a":{"ha":796,"x_min":63,"x_max":706,"o":"m 506 0 l 506 53 q 329 -17 442 -17 q 137 44 211 -17 q 63 217 63 104 q 149 385 63 326 q 350 444 235 444 q 506 419 450 444 l 506 458 q 475 533 506 507 q 390 558 444 558 q 163 483 275 558 l 100 638 q 404 726 231 726 q 706 449 706 726 l 706 0 l 506 0 m 368 153 q 506 203 443 153 l 506 267 q 385 283 450 283 q 260 215 260 283 q 368 153 260 153 z "},"b":{"ha":811,"x_min":104,"x_max":742,"o":"m 436 -17 q 306 54 347 -17 l 306 0 l 104 0 l 104 913 l 306 1003 l 306 658 q 447 726 354 726 q 658 625 575 726 q 742 356 742 524 q 660 81 742 178 q 436 -17 578 -17 m 414 178 q 508 225 475 178 q 540 356 540 272 q 508 486 540 440 q 414 532 475 532 q 306 486 343 532 l 306 222 q 414 178 340 178 z "},"c":{"ha":783,"x_min":69,"x_max":714,"o":"m 401 -17 q 160 82 250 -17 q 69 354 69 181 q 160 626 69 525 q 401 726 251 726 q 713 504 643 726 l 521 442 q 404 533 486 533 q 310 483 347 533 q 274 354 274 433 q 310 226 274 275 q 401 176 346 176 q 521 279 489 176 l 714 224 q 401 -17 643 -17 z "},"d":{"ha":811,"x_min":69,"x_max":707,"o":"m 361 -17 q 148 79 226 -17 q 69 356 69 175 q 153 625 69 524 q 364 726 236 726 q 506 656 456 726 l 506 913 l 707 1003 l 707 0 l 506 0 l 506 58 q 361 -17 467 -17 m 396 178 q 506 222 474 178 l 506 485 q 396 532 468 532 q 303 486 336 532 q 271 356 271 440 q 396 178 271 178 z "},"e":{"ha":789,"x_min":69,"x_max":726,"o":"m 407 -17 q 160 82 250 -17 q 69 356 69 181 q 160 626 69 526 q 407 726 251 726 q 638 640 549 726 q 726 390 726 554 q 721 286 726 322 l 267 286 q 308 187 269 219 q 407 154 347 154 q 567 229 504 154 l 683 113 q 407 -17 576 -17 m 268 438 l 533 438 q 399 556 518 556 q 310 524 344 556 q 268 438 275 493 z "},"f":{"ha":522,"x_min":49,"x_max":493,"o":"m 344 533 l 344 0 l 143 0 l 143 533 l 49 533 l 49 710 l 143 710 l 143 815 q 325 989 143 989 q 493 953 426 989 l 493 790 q 392 814 435 814 q 344 774 344 814 l 344 710 l 493 710 l 493 533 l 344 533 z "},"g":{"ha":811,"x_min":69,"x_max":707,"o":"m 506 710 l 707 710 l 707 124 q 701 -15 707 40 q 674 -120 694 -69 q 617 -201 654 -171 q 520 -251 581 -231 q 372 -278 460 -271 l 257 -106 q 455 -71 406 -93 q 506 28 504 -49 q 364 -17 458 -17 q 149 79 229 -17 q 69 356 69 175 q 151 626 69 525 q 364 726 232 726 q 506 679 456 726 l 506 710 m 506 221 l 506 486 q 495 497 504 488 q 480 510 486 506 q 461 520 474 514 q 432 529 449 526 q 394 532 415 532 q 303 486 336 532 q 271 356 271 440 q 394 178 271 178 q 506 221 468 178 z "},"h":{"ha":842,"x_min":104,"x_max":744,"o":"m 104 0 l 104 910 l 306 1003 l 306 644 q 499 726 374 726 q 671 664 597 726 q 744 461 744 601 l 744 0 l 543 0 l 543 381 q 517 496 543 460 q 431 532 492 532 q 306 383 306 532 l 306 0 l 104 0 z "},"i":{"ha":413,"x_min":90,"x_max":322,"o":"m 207 778 q 125 812 160 778 q 90 893 90 846 q 124 974 90 940 q 207 1007 158 1007 q 289 974 256 1007 q 322 893 322 942 q 289 812 322 846 q 207 778 256 778 m 106 0 l 106 710 l 307 710 l 307 0 l 106 0 z "},"j":{"ha":413,"x_min":-96,"x_max":322,"o":"m 207 778 q 125 812 160 778 q 90 893 90 846 q 124 974 90 940 q 207 1007 158 1007 q 289 974 256 1007 q 322 893 322 942 q 289 812 322 846 q 207 778 256 778 m 8 -297 l -96 -135 q 62 -80 18 -108 q 106 0 106 -51 l 106 710 l 307 710 l 307 42 q 236 -183 307 -110 q 8 -297 163 -261 z "},"k":{"ha":799,"x_min":104,"x_max":765,"o":"m 765 0 l 546 0 l 358 357 l 306 308 l 306 0 l 104 0 l 104 908 l 306 1003 l 306 532 l 485 710 l 724 710 l 507 500 l 765 0 z "},"l":{"ha":424,"x_min":111,"x_max":313,"o":"m 111 0 l 111 908 l 313 1003 l 313 0 l 111 0 z "},"m":{"ha":1236,"x_min":104,"x_max":1139,"o":"m 938 0 l 938 367 q 915 496 938 460 q 836 532 893 532 q 747 497 771 532 q 722 372 722 461 l 722 0 l 521 0 l 521 367 q 499 496 521 460 q 419 532 476 532 q 330 497 354 532 q 306 372 306 461 l 306 0 l 104 0 l 104 710 l 306 710 l 306 644 q 468 726 372 726 q 646 628 599 726 q 868 726 718 726 q 1068 663 997 726 q 1139 439 1139 599 l 1139 0 l 938 0 z "},"n":{"ha":842,"x_min":104,"x_max":744,"o":"m 543 0 l 543 369 q 517 494 543 456 q 431 532 492 532 q 335 493 365 532 q 306 372 306 454 l 306 0 l 104 0 l 104 710 l 306 710 l 306 644 q 499 726 374 726 q 671 664 597 726 q 744 461 744 601 l 744 0 l 543 0 z "},"o":{"ha":794,"x_min":69,"x_max":725,"o":"m 399 -17 q 158 82 246 -17 q 69 354 69 181 q 158 626 69 526 q 399 726 247 726 q 637 626 549 726 q 725 354 725 526 q 638 82 725 181 q 399 -17 550 -17 m 399 178 q 491 224 458 178 q 524 354 524 271 q 491 485 524 438 q 399 532 458 532 q 306 485 340 532 q 271 354 271 438 q 306 224 271 271 q 399 178 340 178 z "},"p":{"ha":811,"x_min":104,"x_max":742,"o":"m 446 -17 q 306 46 354 -17 l 306 -186 l 104 -276 l 104 710 l 306 710 l 306 661 q 449 726 353 726 q 662 630 582 726 q 742 354 742 533 q 658 83 742 183 q 446 -17 575 -17 m 414 178 q 507 224 474 178 q 540 354 540 271 q 414 532 540 532 q 306 489 346 532 l 306 224 q 343 192 314 206 q 414 178 372 178 z "},"q":{"ha":811,"x_min":69,"x_max":707,"o":"m 364 -17 q 153 83 236 -17 q 69 354 69 183 q 153 629 69 532 q 375 726 238 726 q 506 661 467 726 l 506 710 l 707 710 l 707 -186 l 506 -278 l 506 46 q 364 -17 457 -17 m 397 178 q 506 224 483 178 l 506 489 q 397 532 465 532 q 303 485 335 532 q 271 354 271 439 q 304 224 271 271 q 397 178 338 178 z "},"r":{"ha":599,"x_min":104,"x_max":581,"o":"m 104 0 l 104 710 l 306 710 l 306 646 q 356 700 319 674 q 440 726 392 726 q 581 667 524 726 l 554 483 q 428 532 496 532 q 306 385 306 532 l 306 0 l 104 0 z "},"s":{"ha":701,"x_min":56,"x_max":632,"o":"m 347 -17 q 179 20 260 -17 q 56 118 99 57 l 185 228 q 260 174 214 199 q 353 149 306 149 q 451 204 451 149 q 426 245 451 229 q 331 288 400 261 q 139 383 199 332 q 79 525 79 433 q 155 672 79 618 q 343 726 231 726 q 610 608 504 726 l 479 501 q 343 561 414 561 q 260 515 260 561 q 399 438 260 472 q 481 406 449 421 q 553 365 514 392 q 612 297 592 338 q 632 204 632 257 q 555 42 632 100 q 347 -17 478 -17 z "},"t":{"ha":557,"x_min":42,"x_max":501,"o":"m 318 -17 q 139 178 139 -17 l 139 533 l 42 533 l 42 710 l 139 710 l 139 907 l 339 1003 l 339 710 l 493 710 l 493 533 l 339 533 l 339 197 q 351 167 339 178 q 379 157 363 157 q 501 185 440 157 l 479 15 q 318 -17 414 -17 z "},"u":{"ha":842,"x_min":97,"x_max":738,"o":"m 536 0 l 536 65 q 342 -17 469 -17 q 258 -3 299 -17 q 181 39 218 10 q 120 122 143 68 q 97 249 97 176 l 97 710 l 299 710 l 299 340 q 324 217 299 256 q 413 178 349 178 q 506 217 476 178 q 536 338 536 256 l 536 710 l 738 710 l 738 0 l 536 0 z "},"v":{"ha":807,"x_min":35,"x_max":772,"o":"m 294 0 l 35 710 l 244 710 l 385 314 q 404 247 393 293 q 424 314 415 293 l 563 710 l 772 710 l 513 0 l 294 0 z "},"w":{"ha":1063,"x_min":49,"x_max":1014,"o":"m 253 0 l 49 710 l 247 710 l 321 418 q 331 368 324 407 q 342 314 338 329 q 353 364 344 324 q 365 418 361 404 l 440 710 l 621 710 l 694 418 q 706 368 697 407 q 718 314 714 329 q 727 366 721 326 q 738 418 733 406 l 815 710 l 1014 710 l 808 0 l 631 0 l 556 322 q 545 371 556 326 q 532 438 535 415 q 524 397 529 421 q 513 350 518 372 q 506 322 507 328 l 431 0 l 253 0 z "},"x":{"ha":844,"x_min":36,"x_max":808,"o":"m 36 0 l 306 367 l 54 710 l 289 710 l 378 586 q 422 521 418 531 q 464 586 443 560 l 557 710 l 792 710 l 540 367 l 808 0 l 574 0 l 464 146 q 422 213 442 175 q 378 146 421 208 l 271 0 l 36 0 z "},"y":{"ha":817,"x_min":35,"x_max":782,"o":"m 196 -269 l 303 8 l 35 710 l 243 710 l 388 331 q 410 264 403 289 q 432 331 417 289 l 575 710 l 782 710 l 404 -269 l 196 -269 z "},"z":{"ha":782,"x_min":76,"x_max":699,"o":"m 76 0 l 76 156 l 438 531 l 101 531 l 101 710 l 699 710 l 699 558 l 339 181 l 697 181 l 697 0 l 76 0 z "},"{":{"ha":539,"x_min":56,"x_max":483,"o":"m 483 -181 q 238 -94 328 -178 q 149 146 149 -10 l 149 243 q 108 313 149 313 l 56 313 l 56 497 l 108 497 q 149 565 149 497 l 149 661 q 238 899 149 817 q 483 989 328 982 l 483 803 q 350 685 350 792 l 350 579 q 274 404 350 451 q 329 336 308 385 q 350 228 350 288 l 350 124 q 483 4 350 11 l 483 -181 z "},"|":{"ha":438,"x_min":118,"x_max":319,"o":"m 118 -525 l 118 1475 l 319 1475 l 319 -525 l 118 -525 z "},"}":{"ha":539,"x_min":56,"x_max":483,"o":"m 56 -181 l 56 4 q 189 124 189 10 l 189 228 q 210 335 189 286 q 264 404 231 385 q 189 579 189 454 l 189 685 q 56 803 189 793 l 56 989 q 301 899 213 982 q 390 661 390 817 l 390 565 q 401 517 390 536 q 429 497 413 497 l 483 497 l 483 313 l 429 313 q 401 293 413 313 q 390 243 390 274 l 390 146 q 301 -94 390 -10 q 56 -181 211 -178 z "},"~":{"ha":875,"x_min":107,"x_max":767,"o":"m 563 343 q 422 379 496 343 q 325 415 349 415 q 296 405 307 415 q 280 381 285 394 q 272 343 275 367 l 107 343 q 158 535 107 458 q 311 613 210 613 q 447 576 376 613 q 549 540 518 540 q 587 558 576 540 q 601 613 597 576 l 767 613 q 717 419 767 494 q 563 343 668 343 z "}," ":{"ha":358,"x_min":0,"x_max":0,"o":""},"¡":{"ha":436,"x_min":88,"x_max":347,"o":"m 221 471 q 126 509 165 471 q 88 600 88 547 q 126 690 88 653 q 221 726 165 726 q 311 690 275 726 q 347 600 347 653 q 311 508 347 546 q 221 471 275 471 m 321 -278 l 119 -278 l 119 40 l 157 444 l 282 444 l 321 40 l 321 -278 z "},"¢":{"ha":783,"x_min":69,"x_max":714,"o":"m 289 -17 l 289 133 q 126 256 183 165 q 69 486 69 347 q 127 717 69 624 q 289 843 185 811 l 289 989 l 482 989 l 482 851 q 713 636 656 824 l 521 574 q 404 665 486 665 q 310 616 347 665 q 274 486 274 567 q 310 358 274 407 q 401 308 346 308 q 521 411 489 308 l 714 356 q 629 201 689 260 q 482 125 569 143 l 482 -17 l 289 -17 z "},"£":{"ha":842,"x_min":104,"x_max":800,"o":"m 108 0 l 108 188 q 213 332 188 221 q 215 346 213 333 q 217 364 217 358 l 104 364 l 104 551 l 169 551 q 142 694 142 624 q 227 902 142 815 q 476 989 313 989 q 647 963 574 989 q 799 883 721 938 l 721 692 q 657 738 682 721 q 581 773 632 754 q 476 792 529 792 q 380 765 411 792 q 349 697 349 738 q 394 551 349 650 l 632 551 l 632 364 l 422 364 q 419 332 422 354 q 375 197 407 263 l 800 197 l 800 0 l 108 0 z "},"¤":{"ha":918,"x_min":50,"x_max":868,"o":"m 460 117 q 297 153 376 117 l 200 54 l 50 203 l 154 306 q 125 463 125 378 q 157 618 125 543 l 50 725 l 196 871 l 294 772 q 460 807 371 807 q 619 771 547 807 l 717 871 l 868 721 l 763 617 q 793 463 793 546 q 763 301 793 371 l 868 199 l 721 54 l 621 154 q 460 117 542 117 m 366 356 q 384 336 366 356 q 460 315 401 315 q 553 356 518 315 q 588 463 588 397 q 553 569 588 528 q 460 610 518 610 q 366 569 401 610 q 331 463 331 528 q 366 356 331 397 z "},"¥":{"ha":872,"x_min":21,"x_max":851,"o":"m 569 489 l 718 489 l 718 347 l 536 347 l 536 258 l 718 258 l 718 115 l 536 115 l 536 0 l 336 0 l 336 115 l 158 115 l 158 258 l 336 258 l 336 347 l 158 347 l 158 489 l 301 489 l 21 972 l 254 972 l 438 647 l 615 972 l 851 972 l 569 489 z "},"¦":{"ha":438,"x_min":118,"x_max":319,"o":"m 118 508 l 118 1146 l 319 1146 l 319 508 l 118 508 m 118 -312 l 118 325 l 319 325 l 319 -312 l 118 -312 z "},"§":{"ha":742,"x_min":69,"x_max":672,"o":"m 375 -167 q 69 -26 176 -167 l 215 96 q 378 26 293 26 q 464 82 464 26 q 428 127 464 106 q 289 197 393 149 q 212 235 239 219 q 150 277 185 250 q 99 342 115 304 q 83 428 83 379 q 164 578 83 518 q 83 742 83 651 q 162 923 83 857 q 367 989 240 989 q 644 864 544 989 l 493 742 q 367 796 439 796 q 314 782 335 796 q 293 749 293 768 q 449 651 293 714 q 533 614 500 631 q 601 569 565 597 q 655 501 638 542 q 672 408 672 461 q 600 254 672 314 q 672 86 672 188 q 594 -100 672 -33 q 375 -167 517 -167 m 450 351 q 464 389 464 357 q 322 483 464 435 q 293 451 293 479 q 326 408 293 428 q 450 351 360 388 z "},"¨":{"ha":718,"x_min":114,"x_max":603,"o":"m 301 831 q 285 815 301 831 q 222 800 269 800 q 144 831 175 800 q 114 908 114 861 q 144 987 114 956 q 222 1018 175 1018 q 301 987 269 1018 q 332 908 332 956 q 301 831 332 861 m 494 800 q 415 831 446 800 q 385 908 385 861 q 416 987 385 956 q 494 1018 447 1018 q 572 987 540 1018 q 603 908 603 956 q 572 831 603 861 q 494 800 540 800 z "},"©":{"ha":1172,"x_min":83,"x_max":1089,"o":"m 944 128 q 872 56 944 128 q 586 -17 800 -17 q 228 128 372 -17 q 83 486 83 272 q 228 844 83 700 q 586 989 372 989 q 944 844 800 989 q 1089 486 1089 700 q 944 128 1089 272 m 317 213 q 370 158 317 213 q 586 103 424 103 q 855 213 749 103 q 961 486 961 322 q 855 760 961 650 q 586 869 749 869 q 317 760 424 869 q 211 486 211 650 q 317 213 211 322 m 590 183 q 472 209 522 183 q 393 280 421 235 q 352 376 365 325 q 339 486 339 428 q 401 697 339 606 q 590 789 464 789 q 800 660 739 789 l 674 600 q 590 653 642 653 q 510 602 536 653 q 485 486 485 551 q 513 370 485 421 q 590 319 540 319 q 674 372 644 319 l 801 328 q 590 183 736 183 z "},"ª":{"ha":615,"x_min":49,"x_max":539,"o":"m 381 393 l 381 435 q 244 379 342 379 q 106 430 163 379 q 49 571 49 481 q 111 715 49 665 q 261 765 174 765 q 381 738 333 765 l 381 769 q 358 829 381 808 q 294 850 335 850 q 128 788 204 850 l 76 917 q 313 989 178 989 q 539 764 539 989 l 539 393 l 381 393 m 283 521 q 381 565 346 521 l 381 611 q 294 626 343 626 q 204 571 204 626 q 283 521 204 521 z "},"«":{"ha":811,"x_min":42,"x_max":790,"o":"m 253 0 l 42 356 l 253 710 l 468 710 l 257 356 l 468 0 l 253 0 m 574 0 l 363 356 l 574 710 l 790 710 l 579 356 l 790 0 l 574 0 z "},"¬":{"ha":875,"x_min":111,"x_max":764,"o":"m 564 218 l 564 478 l 111 478 l 111 672 l 764 672 l 764 218 l 564 218 z "},"­":{"ha":586,"x_min":104,"x_max":482,"o":"m 104 314 l 104 506 l 482 506 l 482 314 l 104 314 z "},"®":{"ha":1172,"x_min":83,"x_max":1089,"o":"m 944 128 q 872 56 944 128 q 586 -17 800 -17 q 228 128 372 -17 q 83 486 83 272 q 228 844 83 700 q 586 989 372 989 q 944 844 800 989 q 1089 486 1089 700 q 944 128 1089 272 m 317 213 q 370 158 317 213 q 586 103 424 103 q 855 213 749 103 q 961 486 961 322 q 855 760 961 650 q 586 869 749 869 q 317 760 424 869 q 211 486 211 650 q 317 213 211 322 m 376 193 l 376 779 l 625 779 q 774 727 729 779 q 818 596 818 675 q 788 495 818 540 q 697 429 758 450 l 832 193 l 682 193 l 561 413 l 518 413 l 518 193 l 376 193 m 518 542 l 617 542 q 660 558 646 542 q 674 596 674 574 q 660 633 674 617 q 617 650 647 650 l 518 650 l 518 542 z "},"¯":{"ha":718,"x_min":129,"x_max":588,"o":"m 129 808 l 129 971 l 588 971 l 588 808 l 129 808 z "},"°":{"ha":582,"x_min":36,"x_max":547,"o":"m 473 691 q 436 654 473 691 q 292 617 399 617 q 110 690 185 617 q 36 871 36 764 q 110 1050 36 978 q 292 1122 183 1122 q 473 1050 399 1122 q 547 871 547 978 q 473 691 547 765 m 237 810 q 248 797 237 810 q 292 785 258 785 q 347 810 325 785 q 368 871 368 835 q 347 928 368 906 q 292 951 325 951 q 237 928 258 951 q 215 871 215 906 q 237 810 215 835 z "},"±":{"ha":875,"x_min":111,"x_max":764,"o":"m 539 456 l 539 263 l 338 263 l 338 456 l 111 456 l 111 651 l 338 651 l 338 844 l 539 844 l 539 651 l 764 651 l 764 456 l 539 456 m 111 0 l 111 196 l 764 196 l 764 0 l 111 0 z "},"²":{"ha":525,"x_min":32,"x_max":472,"o":"m 32 617 q 236 968 32 864 q 290 1010 283 994 q 293 1021 293 1015 q 254 1057 293 1057 q 188 1001 206 1057 l 36 1038 q 121 1166 63 1119 q 265 1213 179 1213 q 415 1163 357 1213 q 472 1031 472 1113 q 455 951 472 985 q 418 901 438 917 q 357 857 399 885 q 310 828 339 844 q 263 800 281 811 q 239 778 246 789 l 471 778 l 471 617 l 32 617 z "},"³":{"ha":500,"x_min":17,"x_max":454,"o":"m 240 608 q 17 779 75 608 l 172 818 q 240 760 189 760 q 275 773 263 760 q 288 804 288 786 q 219 858 288 858 l 172 858 l 172 979 l 218 979 q 268 1025 268 979 q 229 1061 268 1061 q 172 1021 190 1061 l 35 1072 q 118 1176 61 1140 q 247 1213 175 1213 q 383 1165 332 1213 q 435 1049 435 1117 q 358 919 435 958 q 454 788 454 892 q 399 658 454 707 q 240 608 344 608 z "},"´":{"ha":718,"x_min":163,"x_max":600,"o":"m 163 800 l 360 1017 l 600 1017 l 353 800 l 163 800 z "},"µ":{"ha":851,"x_min":108,"x_max":747,"o":"m 547 0 l 547 64 q 499 6 535 29 q 410 -17 463 -17 q 311 6 364 -17 l 311 -183 l 108 -278 l 108 710 l 308 710 l 308 340 q 335 219 308 260 q 424 178 363 178 q 517 217 488 178 q 547 338 547 256 l 547 710 l 747 710 l 747 0 l 547 0 z "},"¶":{"ha":914,"x_min":28,"x_max":803,"o":"m 310 -278 l 310 379 q 100 475 172 388 q 28 672 28 563 q 107 885 28 797 q 354 972 186 972 l 803 972 l 803 -50 l 601 -142 l 601 779 l 511 779 l 511 -186 l 310 -278 z "},"·":{"ha":350,"x_min":50,"x_max":300,"o":"m 263 399 q 245 382 263 399 q 174 364 226 364 q 85 399 121 364 q 50 485 50 435 q 85 571 50 535 q 174 607 121 607 q 263 571 226 607 q 300 485 300 535 q 263 399 300 435 z "},"¸":{"ha":718,"x_min":174,"x_max":531,"o":"m 335 -343 q 174 -271 222 -343 l 256 -208 q 314 -237 275 -237 q 379 -187 379 -237 q 315 -136 379 -136 q 253 -160 286 -136 l 210 -107 l 311 14 l 419 14 l 371 -61 q 490 -96 450 -61 q 531 -189 531 -131 q 479 -301 531 -258 q 335 -343 428 -343 z "},"¹":{"ha":331,"x_min":14,"x_max":257,"o":"m 82 617 l 82 1029 l 14 1029 l 14 1161 q 119 1203 97 1161 l 257 1203 l 257 617 l 82 617 z "},"º":{"ha":647,"x_min":56,"x_max":592,"o":"m 520 460 q 484 420 520 460 q 326 379 449 379 q 130 461 204 379 q 56 683 56 543 q 130 906 56 824 q 326 989 204 989 q 520 907 449 989 q 592 683 592 825 q 520 460 592 542 m 326 538 q 404 576 375 538 q 433 683 433 615 q 404 792 433 751 q 326 833 375 833 q 246 793 274 833 q 218 683 218 753 q 326 538 218 538 z "},"»":{"ha":811,"x_min":21,"x_max":769,"o":"m 21 0 l 232 356 l 21 710 l 236 710 l 447 356 l 236 0 l 21 0 m 342 0 l 553 356 l 342 710 l 558 710 l 769 356 l 558 0 l 342 0 z "},"¼":{"ha":1025,"x_min":10,"x_max":993,"o":"m 22 -17 l 686 989 l 885 989 l 221 -17 l 22 -17 m 78 393 l 78 806 l 10 806 l 10 938 q 115 979 92 938 l 253 979 l 253 393 l 78 393 m 754 0 l 754 107 l 475 107 l 475 222 l 757 585 l 913 585 l 913 246 l 993 246 l 993 107 l 913 107 l 913 0 l 754 0 m 754 246 l 754 386 l 649 246 l 754 246 z "},"½":{"ha":1078,"x_min":10,"x_max":1025,"o":"m 22 -17 l 686 989 l 885 989 l 221 -17 l 22 -17 m 78 393 l 78 806 l 10 806 l 10 938 q 115 979 92 938 l 253 979 l 253 393 l 78 393 m 585 0 q 789 351 585 247 q 817 367 808 363 q 836 383 826 372 q 846 404 846 394 q 807 440 846 440 q 740 385 760 440 l 589 421 q 674 550 615 504 q 818 596 732 596 q 967 545 908 596 q 1025 414 1025 494 q 988 299 1025 338 q 875 221 951 260 q 850 206 867 215 q 824 191 833 196 q 806 178 815 186 q 792 161 797 169 l 1024 161 l 1024 0 l 585 0 z "},"¾":{"ha":1185,"x_min":17,"x_max":1153,"o":"m 240 385 q 17 556 75 385 l 172 594 q 240 536 188 536 q 275 549 263 536 q 288 581 288 563 q 219 625 288 625 l 161 625 l 161 764 l 218 764 q 268 801 268 764 q 229 838 268 838 q 172 797 190 838 l 35 849 q 118 953 61 917 q 247 989 175 989 q 383 940 332 989 q 435 825 435 892 q 413 745 435 779 q 358 696 390 711 q 454 564 454 668 q 399 434 454 483 q 240 385 344 385 m 183 -17 l 847 989 l 1043 989 l 379 -17 l 183 -17 m 915 0 l 915 107 l 636 107 l 636 222 l 917 585 l 1074 585 l 1074 246 l 1153 246 l 1153 107 l 1074 107 l 1074 0 l 915 0 m 915 246 l 915 386 l 808 246 l 915 246 z "},"¿":{"ha":704,"x_min":49,"x_max":676,"o":"m 360 483 q 272 520 308 483 q 235 607 235 557 q 271 692 235 657 q 360 726 307 726 q 449 692 415 726 q 483 607 483 658 q 449 519 483 556 q 360 483 414 483 m 353 -278 q 129 -198 210 -278 q 49 8 49 -118 q 71 119 49 72 q 124 195 93 167 q 187 249 156 224 q 240 310 218 275 q 263 389 263 344 l 263 450 l 464 450 l 464 388 q 442 264 464 317 q 388 181 419 211 q 326 125 357 150 q 272 72 294 100 q 250 8 250 43 q 277 -58 250 -32 q 353 -83 304 -83 q 476 67 476 -83 l 676 67 q 588 -188 676 -99 q 353 -278 500 -278 z "},"À":{"ha":1024,"x_min":26,"x_max":997,"o":"m 518 1063 l 271 1279 l 511 1279 l 708 1063 l 518 1063 m 767 0 l 694 189 l 329 189 l 257 0 l 26 0 l 410 972 l 613 972 l 997 0 l 767 0 m 624 383 l 540 593 q 511 675 521 640 q 482 593 506 651 l 399 383 l 624 383 z "},"Á":{"ha":1024,"x_min":26,"x_max":997,"o":"m 317 1063 l 514 1279 l 754 1279 l 507 1063 l 317 1063 m 767 0 l 694 189 l 329 189 l 257 0 l 26 0 l 410 972 l 613 972 l 997 0 l 767 0 m 624 383 l 540 593 q 511 675 521 640 q 482 593 506 651 l 399 383 l 624 383 z "},"Â":{"ha":1024,"x_min":26,"x_max":997,"o":"m 621 1063 l 513 1151 l 403 1063 l 221 1063 l 418 1279 l 607 1279 l 803 1063 l 621 1063 m 767 0 l 694 189 l 329 189 l 257 0 l 26 0 l 410 972 l 613 972 l 997 0 l 767 0 m 624 383 l 540 593 q 511 675 521 640 q 482 593 506 651 l 399 383 l 624 383 z "},"Ã":{"ha":1024,"x_min":26,"x_max":997,"o":"m 622 1069 q 497 1101 569 1069 q 393 1132 424 1132 q 328 1075 328 1132 l 235 1075 q 403 1272 235 1272 q 528 1242 457 1272 q 632 1211 600 1211 q 697 1267 697 1211 l 789 1267 q 622 1069 789 1069 m 767 0 l 694 189 l 329 189 l 257 0 l 26 0 l 410 972 l 613 972 l 997 0 l 767 0 m 624 383 l 540 593 q 511 675 521 640 q 482 593 506 651 l 399 383 l 624 383 z "},"Ä":{"ha":1024,"x_min":26,"x_max":997,"o":"m 376 1063 q 298 1092 328 1063 q 268 1171 268 1122 q 299 1249 268 1218 q 376 1281 329 1281 q 455 1249 424 1281 q 486 1171 486 1218 q 455 1093 486 1124 q 376 1063 424 1063 m 649 1063 q 569 1093 600 1063 q 539 1171 539 1124 q 570 1249 539 1218 q 649 1281 601 1281 q 726 1249 694 1281 q 757 1171 757 1218 q 726 1093 757 1124 q 649 1063 694 1063 m 767 0 l 694 189 l 329 189 l 257 0 l 26 0 l 410 972 l 613 972 l 997 0 l 767 0 m 624 383 l 540 593 q 511 675 521 640 q 482 593 506 651 l 399 383 l 624 383 z "},"Å":{"ha":1024,"x_min":26,"x_max":997,"o":"m 26 0 l 386 907 q 326 1040 326 960 q 381 1170 326 1117 q 513 1224 435 1224 q 642 1169 588 1224 q 697 1040 697 1115 q 639 906 697 957 l 997 0 l 767 0 l 694 189 l 329 189 l 257 0 l 26 0 m 513 990 q 547 1005 532 990 q 561 1040 561 1019 q 547 1076 561 1061 q 513 1090 532 1090 q 476 1076 489 1090 q 463 1040 463 1063 q 476 1004 463 1018 q 513 990 489 990 m 399 383 l 624 383 l 540 593 q 511 675 521 640 q 482 593 506 651 l 399 383 z "},"Æ":{"ha":1256,"x_min":-46,"x_max":1190,"o":"m -46 0 l 519 972 l 1163 972 l 1163 772 l 725 772 l 725 601 l 947 601 l 947 401 l 725 401 l 725 201 l 1190 201 l 1190 0 l 514 0 l 514 189 l 289 189 l 182 0 l -46 0 m 404 383 l 514 383 l 514 590 q 493 542 508 569 l 404 383 z "},"Ç":{"ha":882,"x_min":69,"x_max":838,"o":"m 469 -343 q 310 -271 358 -343 l 392 -208 q 450 -237 411 -237 q 515 -187 515 -237 q 450 -136 515 -136 q 389 -160 422 -136 l 346 -107 l 425 -11 q 260 47 331 0 q 149 165 189 94 q 89 317 108 236 q 69 486 69 397 q 92 658 69 574 q 160 817 114 742 q 288 940 206 893 q 479 986 371 986 q 704 918 611 986 q 836 753 797 850 l 647 668 q 570 756 607 728 q 479 783 533 783 q 389 756 428 783 q 329 684 350 729 q 299 590 308 639 q 289 486 289 540 q 308 347 289 413 q 372 235 326 282 q 479 189 417 189 q 644 314 569 189 l 838 242 q 539 -11 743 18 l 508 -61 q 627 -96 588 -61 q 667 -189 667 -131 q 615 -301 667 -258 q 469 -343 564 -343 z "},"È":{"ha":885,"x_min":104,"x_max":831,"o":"m 449 1063 l 201 1279 l 442 1279 l 639 1063 l 449 1063 m 104 0 l 104 972 l 803 972 l 803 772 l 315 772 l 315 601 l 588 601 l 588 401 l 315 401 l 315 201 l 831 201 l 831 0 l 104 0 z "},"É":{"ha":885,"x_min":104,"x_max":831,"o":"m 297 1063 l 494 1279 l 735 1279 l 488 1063 l 297 1063 m 104 0 l 104 972 l 803 972 l 803 772 l 315 772 l 315 601 l 588 601 l 588 401 l 315 401 l 315 201 l 831 201 l 831 0 l 104 0 z "},"Ê":{"ha":885,"x_min":104,"x_max":831,"o":"m 571 1063 l 463 1151 l 353 1063 l 171 1063 l 368 1279 l 557 1279 l 753 1063 l 571 1063 m 104 0 l 104 972 l 803 972 l 803 772 l 315 772 l 315 601 l 588 601 l 588 401 l 315 401 l 315 201 l 831 201 l 831 0 l 104 0 z "},"Ë":{"ha":885,"x_min":104,"x_max":831,"o":"m 326 1063 q 248 1092 278 1063 q 218 1171 218 1122 q 249 1249 218 1218 q 326 1281 279 1281 q 405 1249 374 1281 q 436 1171 436 1218 q 405 1093 436 1124 q 326 1063 374 1063 m 599 1063 q 519 1093 550 1063 q 489 1171 489 1124 q 520 1249 489 1218 q 599 1281 551 1281 q 676 1249 644 1281 q 707 1171 707 1218 q 676 1093 707 1124 q 599 1063 644 1063 m 104 0 l 104 972 l 803 972 l 803 772 l 315 772 l 315 601 l 588 601 l 588 401 l 315 401 l 315 201 l 831 201 l 831 0 l 104 0 z "},"Ì":{"ha":432,"x_min":-24,"x_max":414,"o":"m 224 1063 l -24 1279 l 217 1279 l 414 1063 l 224 1063 m 111 0 l 111 972 l 322 972 l 322 0 l 111 0 z "},"Í":{"ha":432,"x_min":36,"x_max":474,"o":"m 36 1063 l 233 1279 l 474 1279 l 226 1063 l 36 1063 m 111 0 l 111 972 l 322 972 l 322 0 l 111 0 z "},"Î":{"ha":432,"x_min":-74,"x_max":508,"o":"m 326 1063 l 218 1151 l 108 1063 l -74 1063 l 124 1279 l 313 1279 l 508 1063 l 326 1063 m 111 0 l 111 972 l 322 972 l 322 0 l 111 0 z "},"Ï":{"ha":432,"x_min":-26,"x_max":463,"o":"m 82 1063 q 3 1092 33 1063 q -26 1171 -26 1122 q 4 1249 -26 1218 q 82 1281 35 1281 q 160 1249 129 1281 q 192 1171 192 1218 q 160 1093 192 1124 q 82 1063 129 1063 m 354 1063 q 275 1093 306 1063 q 244 1171 244 1124 q 276 1249 244 1218 q 354 1281 307 1281 q 431 1249 400 1281 q 463 1171 463 1218 q 431 1093 463 1124 q 354 1063 400 1063 m 111 0 l 111 972 l 322 972 l 322 0 l 111 0 z "},"Ð":{"ha":1006,"x_min":19,"x_max":938,"o":"m 104 388 l 19 388 l 19 585 l 104 585 l 104 972 l 463 972 q 679 931 585 972 q 828 820 774 890 q 910 665 883 750 q 938 486 938 581 q 922 351 938 417 q 871 220 907 285 q 781 108 835 156 q 643 30 726 60 q 457 0 560 0 l 104 0 l 104 388 m 479 201 q 658 287 599 201 q 718 486 718 372 q 660 686 718 600 q 494 772 603 772 l 315 772 l 315 585 l 508 585 l 508 388 l 315 388 l 315 201 l 479 201 z "},"Ñ":{"ha":1004,"x_min":104,"x_max":901,"o":"m 625 1069 q 499 1101 572 1069 q 396 1132 426 1132 q 331 1075 331 1132 l 238 1075 q 406 1272 238 1272 q 531 1242 460 1272 q 635 1211 603 1211 q 700 1267 700 1211 l 792 1267 q 625 1069 792 1069 m 901 0 l 717 0 l 350 515 q 308 589 336 533 q 313 515 313 565 l 313 0 l 104 0 l 104 972 l 297 972 l 654 463 q 694 390 681 425 q 690 464 690 419 l 690 972 l 901 972 l 901 0 z "},"Ò":{"ha":1000,"x_min":69,"x_max":932,"o":"m 475 1064 l 228 1281 l 468 1281 l 665 1064 l 475 1064 m 501 -17 q 335 13 410 -17 q 213 91 261 42 q 131 206 164 140 q 84 341 99 271 q 69 486 69 411 q 84 631 69 561 q 131 767 99 701 q 213 881 164 832 q 335 960 261 931 q 501 989 410 989 q 700 945 614 989 q 835 827 786 901 q 908 667 883 753 q 932 486 932 581 q 908 306 932 392 q 835 145 883 219 q 700 27 786 71 q 501 -17 614 -17 m 501 188 q 624 237 574 188 q 693 351 674 286 q 713 486 713 415 q 694 626 713 561 q 626 738 676 690 q 501 786 576 786 q 376 737 426 786 q 307 623 325 688 q 289 486 289 558 q 300 382 289 432 q 335 287 311 332 q 401 215 358 242 q 501 188 444 188 z "},"Ó":{"ha":1000,"x_min":69,"x_max":932,"o":"m 306 1063 l 503 1279 l 743 1279 l 496 1063 l 306 1063 m 501 -17 q 335 13 410 -17 q 213 91 261 42 q 131 206 164 140 q 84 341 99 271 q 69 486 69 411 q 84 631 69 561 q 131 767 99 701 q 213 881 164 832 q 335 960 261 931 q 501 989 410 989 q 700 945 614 989 q 835 827 786 901 q 908 667 883 753 q 932 486 932 581 q 908 306 932 392 q 835 145 883 219 q 700 27 786 71 q 501 -17 614 -17 m 501 188 q 624 237 574 188 q 693 351 674 286 q 713 486 713 415 q 694 626 713 561 q 626 738 676 690 q 501 786 576 786 q 376 737 426 786 q 307 623 325 688 q 289 486 289 558 q 300 382 289 432 q 335 287 311 332 q 401 215 358 242 q 501 188 444 188 z "},"Ô":{"ha":1000,"x_min":69,"x_max":932,"o":"m 610 1063 l 501 1151 l 392 1063 l 210 1063 l 407 1279 l 596 1279 l 792 1063 l 610 1063 m 501 -17 q 335 13 410 -17 q 213 91 261 42 q 131 206 164 140 q 84 341 99 271 q 69 486 69 411 q 84 631 69 561 q 131 767 99 701 q 213 881 164 832 q 335 960 261 931 q 501 989 410 989 q 700 945 614 989 q 835 827 786 901 q 908 667 883 753 q 932 486 932 581 q 908 306 932 392 q 835 145 883 219 q 700 27 786 71 q 501 -17 614 -17 m 501 188 q 624 237 574 188 q 693 351 674 286 q 713 486 713 415 q 694 626 713 561 q 626 738 676 690 q 501 786 576 786 q 376 737 426 786 q 307 623 325 688 q 289 486 289 558 q 300 382 289 432 q 335 287 311 332 q 401 215 358 242 q 501 188 444 188 z "},"Õ":{"ha":1000,"x_min":69,"x_max":932,"o":"m 611 1069 q 485 1101 558 1069 q 382 1132 413 1132 q 317 1075 317 1132 l 224 1075 q 392 1272 224 1272 q 517 1242 446 1272 q 621 1211 589 1211 q 686 1267 686 1211 l 778 1267 q 611 1069 778 1069 m 501 -17 q 335 13 410 -17 q 213 91 261 42 q 131 206 164 140 q 84 341 99 271 q 69 486 69 411 q 84 631 69 561 q 131 767 99 701 q 213 881 164 832 q 335 960 261 931 q 501 989 410 989 q 700 945 614 989 q 835 827 786 901 q 908 667 883 753 q 932 486 932 581 q 908 306 932 392 q 835 145 883 219 q 700 27 786 71 q 501 -17 614 -17 m 501 188 q 624 237 574 188 q 693 351 674 286 q 713 486 713 415 q 694 626 713 561 q 626 738 676 690 q 501 786 576 786 q 376 737 426 786 q 307 623 325 688 q 289 486 289 558 q 300 382 289 432 q 335 287 311 332 q 401 215 358 242 q 501 188 444 188 z "},"Ö":{"ha":1000,"x_min":69,"x_max":932,"o":"m 365 1063 q 287 1092 317 1063 q 257 1171 257 1122 q 288 1249 257 1218 q 365 1281 318 1281 q 444 1249 413 1281 q 475 1171 475 1218 q 444 1093 475 1124 q 365 1063 413 1063 m 638 1063 q 558 1093 589 1063 q 528 1171 528 1124 q 559 1249 528 1218 q 638 1281 590 1281 q 715 1249 683 1281 q 746 1171 746 1218 q 715 1093 746 1124 q 638 1063 683 1063 m 501 -17 q 335 13 410 -17 q 213 91 261 42 q 131 206 164 140 q 84 341 99 271 q 69 486 69 411 q 84 631 69 561 q 131 767 99 701 q 213 881 164 832 q 335 960 261 931 q 501 989 410 989 q 700 945 614 989 q 835 827 786 901 q 908 667 883 753 q 932 486 932 581 q 908 306 932 392 q 835 145 883 219 q 700 27 786 71 q 501 -17 614 -17 m 501 188 q 624 237 574 188 q 693 351 674 286 q 713 486 713 415 q 694 626 713 561 q 626 738 676 690 q 501 786 576 786 q 376 737 426 786 q 307 623 325 688 q 289 486 289 558 q 300 382 289 432 q 335 287 311 332 q 401 215 358 242 q 501 188 444 188 z "},"×":{"ha":875,"x_min":96,"x_max":779,"o":"m 439 335 l 242 135 l 96 282 l 293 478 l 97 676 l 239 817 l 436 621 l 632 818 l 779 674 l 581 475 l 778 279 l 635 136 l 439 335 z "},"Ø":{"ha":1008,"x_min":69,"x_max":939,"o":"m 69 -17 l 174 142 q 72 486 72 283 q 97 667 72 581 q 170 827 121 753 q 306 945 219 901 q 504 989 392 989 q 711 942 619 989 l 743 989 l 939 989 l 835 832 q 936 486 936 690 q 922 341 936 411 q 874 206 907 271 q 793 91 842 140 q 670 13 744 42 q 504 -17 596 -17 q 297 31 388 -17 l 265 -17 l 69 -17 m 311 346 l 592 765 q 504 786 553 786 q 379 737 429 786 q 310 623 329 688 q 292 486 292 558 q 311 346 292 413 m 504 188 q 627 237 576 188 q 697 351 678 286 q 717 486 717 415 q 697 628 717 561 l 415 208 q 504 188 457 188 z "},"Ù":{"ha":1006,"x_min":97,"x_max":908,"o":"m 508 1063 l 261 1279 l 501 1279 l 699 1063 l 508 1063 m 503 -17 q 356 3 425 -17 q 228 67 288 24 q 133 190 168 111 q 97 375 97 269 l 97 972 l 308 972 l 308 375 q 355 229 308 271 q 503 188 401 188 q 649 230 601 188 q 697 375 697 272 l 697 972 l 908 972 l 908 375 q 874 192 908 271 q 780 69 839 114 q 651 4 721 25 q 503 -17 582 -17 z "},"Ú":{"ha":1006,"x_min":97,"x_max":908,"o":"m 331 1063 l 528 1279 l 768 1279 l 521 1063 l 331 1063 m 503 -17 q 356 3 425 -17 q 228 67 288 24 q 133 190 168 111 q 97 375 97 269 l 97 972 l 308 972 l 308 375 q 355 229 308 271 q 503 188 401 188 q 649 230 601 188 q 697 375 697 272 l 697 972 l 908 972 l 908 375 q 874 192 908 271 q 780 69 839 114 q 651 4 721 25 q 503 -17 582 -17 z "},"Û":{"ha":1006,"x_min":97,"x_max":908,"o":"m 611 1063 l 503 1151 l 393 1063 l 211 1063 l 408 1279 l 597 1279 l 793 1063 l 611 1063 m 503 -17 q 356 3 425 -17 q 228 67 288 24 q 133 190 168 111 q 97 375 97 269 l 97 972 l 308 972 l 308 375 q 355 229 308 271 q 503 188 401 188 q 649 230 601 188 q 697 375 697 272 l 697 972 l 908 972 l 908 375 q 874 192 908 271 q 780 69 839 114 q 651 4 721 25 q 503 -17 582 -17 z "},"Ü":{"ha":1006,"x_min":97,"x_max":908,"o":"m 445 1093 q 430 1078 445 1093 q 367 1063 414 1063 q 289 1092 319 1063 q 258 1171 258 1122 q 289 1249 258 1218 q 367 1281 319 1281 q 445 1249 414 1281 q 476 1171 476 1218 q 445 1093 476 1124 m 639 1063 q 560 1093 590 1063 q 529 1171 529 1124 q 560 1249 529 1218 q 639 1281 592 1281 q 716 1249 685 1281 q 747 1171 747 1218 q 716 1093 747 1124 q 639 1063 685 1063 m 503 -17 q 356 3 425 -17 q 228 67 288 24 q 133 190 168 111 q 97 375 97 269 l 97 972 l 308 972 l 308 375 q 355 229 308 271 q 503 188 401 188 q 649 230 601 188 q 697 375 697 272 l 697 972 l 908 972 l 908 375 q 874 192 908 271 q 780 69 839 114 q 651 4 721 25 q 503 -17 582 -17 z "},"Ý":{"ha":982,"x_min":17,"x_max":965,"o":"m 322 1063 l 519 1279 l 760 1279 l 513 1063 l 322 1063 m 386 0 l 386 378 l 17 972 l 256 972 l 492 603 l 726 972 l 965 972 l 596 378 l 596 0 l 386 0 z "},"Þ":{"ha":907,"x_min":104,"x_max":874,"o":"m 104 0 l 104 972 l 315 972 l 315 807 l 538 807 q 792 716 710 807 q 874 494 874 625 q 854 384 874 438 q 797 284 835 331 q 691 210 758 238 q 538 182 624 182 l 315 182 l 315 0 l 104 0 m 543 382 q 626 415 599 382 q 654 494 654 449 q 628 573 654 539 q 543 607 601 607 l 315 607 l 315 382 l 543 382 z "},"ß":{"ha":813,"x_min":90,"x_max":757,"o":"m 90 -278 l 90 649 q 181 905 90 821 q 408 989 272 989 q 624 919 542 989 q 707 732 707 849 q 579 535 707 593 q 709 448 661 510 q 757 296 757 386 q 675 65 757 146 q 468 -17 593 -17 q 311 21 361 -17 l 396 160 q 450 151 418 151 q 525 192 494 151 q 556 294 556 233 q 518 399 556 353 q 413 444 481 444 l 349 444 l 349 613 l 413 613 q 478 646 450 613 q 506 721 506 679 q 479 790 506 760 q 410 821 453 821 q 320 781 349 821 q 292 650 292 742 l 292 -183 l 90 -278 z "},"à":{"ha":796,"x_min":63,"x_max":706,"o":"m 382 800 l 135 1017 l 375 1017 l 572 800 l 382 800 m 506 0 l 506 53 q 329 -17 442 -17 q 137 44 211 -17 q 63 217 63 104 q 149 385 63 326 q 350 444 235 444 q 506 419 450 444 l 506 458 q 475 533 506 507 q 390 558 444 558 q 163 483 275 558 l 100 638 q 404 726 231 726 q 706 449 706 726 l 706 0 l 506 0 m 368 153 q 506 203 443 153 l 506 267 q 385 283 450 283 q 260 215 260 283 q 368 153 260 153 z "},"á":{"ha":796,"x_min":63,"x_max":706,"o":"m 243 800 l 440 1017 l 681 1017 l 433 800 l 243 800 m 506 0 l 506 53 q 329 -17 442 -17 q 137 44 211 -17 q 63 217 63 104 q 149 385 63 326 q 350 444 235 444 q 506 419 450 444 l 506 458 q 475 533 506 507 q 390 558 444 558 q 163 483 275 558 l 100 638 q 404 726 231 726 q 706 449 706 726 l 706 0 l 506 0 m 368 153 q 506 203 443 153 l 506 267 q 385 283 450 283 q 260 215 260 283 q 368 153 260 153 z "},"â":{"ha":796,"x_min":63,"x_max":706,"o":"m 515 800 l 407 889 l 297 800 l 115 800 l 313 1017 l 501 1017 l 697 800 l 515 800 m 506 0 l 506 53 q 329 -17 442 -17 q 137 44 211 -17 q 63 217 63 104 q 149 385 63 326 q 350 444 235 444 q 506 419 450 444 l 506 458 q 475 533 506 507 q 390 558 444 558 q 163 483 275 558 l 100 638 q 404 726 231 726 q 706 449 706 726 l 706 0 l 506 0 m 368 153 q 506 203 443 153 l 506 267 q 385 283 450 283 q 260 215 260 283 q 368 153 260 153 z "},"ã":{"ha":796,"x_min":63,"x_max":706,"o":"m 517 807 q 391 838 464 807 q 288 869 318 869 q 222 813 222 869 l 129 813 q 297 1010 129 1010 q 423 979 351 1010 q 526 949 494 949 q 592 1004 592 949 l 683 1004 q 517 807 683 807 m 506 0 l 506 53 q 329 -17 442 -17 q 137 44 211 -17 q 63 217 63 104 q 149 385 63 326 q 350 444 235 444 q 506 419 450 444 l 506 458 q 475 533 506 507 q 390 558 444 558 q 163 483 275 558 l 100 638 q 404 726 231 726 q 706 449 706 726 l 706 0 l 506 0 m 368 153 q 506 203 443 153 l 506 267 q 385 283 450 283 q 260 215 260 283 q 368 153 260 153 z "},"ä":{"ha":796,"x_min":63,"x_max":706,"o":"m 271 800 q 192 831 222 800 q 163 908 163 861 q 193 987 163 956 q 271 1018 224 1018 q 349 987 318 1018 q 381 908 381 956 q 349 831 381 861 q 271 800 318 800 m 543 800 q 464 831 494 800 q 433 908 433 861 q 465 987 433 956 q 543 1018 496 1018 q 620 987 589 1018 q 651 908 651 956 q 620 831 651 861 q 543 800 589 800 m 506 0 l 506 53 q 329 -17 442 -17 q 137 44 211 -17 q 63 217 63 104 q 149 385 63 326 q 350 444 235 444 q 506 419 450 444 l 506 458 q 475 533 506 507 q 390 558 444 558 q 163 483 275 558 l 100 638 q 404 726 231 726 q 706 449 706 726 l 706 0 l 506 0 m 368 153 q 506 203 443 153 l 506 267 q 385 283 450 283 q 260 215 260 283 q 368 153 260 153 z "},"å":{"ha":796,"x_min":63,"x_max":706,"o":"m 539 826 q 512 799 539 826 q 407 772 485 772 q 275 826 329 772 q 221 957 221 881 q 275 1088 221 1035 q 407 1140 329 1140 q 539 1088 485 1140 q 593 957 593 1035 q 539 826 593 881 m 407 907 q 440 922 425 907 q 456 957 456 936 q 440 992 456 978 q 407 1007 425 1007 q 371 993 385 1007 q 357 957 357 979 q 371 921 357 935 q 407 907 385 907 m 506 0 l 506 53 q 329 -17 442 -17 q 137 44 211 -17 q 63 217 63 104 q 149 385 63 326 q 350 444 235 444 q 506 419 450 444 l 506 458 q 475 533 506 507 q 390 558 444 558 q 163 483 275 558 l 100 638 q 404 726 231 726 q 706 449 706 726 l 706 0 l 506 0 m 368 153 q 506 203 443 153 l 506 267 q 385 283 450 283 q 260 215 260 283 q 368 153 260 153 z "},"æ":{"ha":1188,"x_min":63,"x_max":1125,"o":"m 303 -17 q 131 44 199 -17 q 63 217 63 104 q 139 396 63 336 q 322 456 215 456 q 463 428 400 456 l 463 458 q 436 527 463 503 q 364 551 410 551 q 163 476 261 551 l 100 638 q 383 726 233 726 q 594 657 526 726 q 804 726 667 726 q 1035 640 946 726 q 1125 390 1125 554 q 1113 275 1125 338 l 663 275 q 708 190 669 219 q 804 160 747 160 q 960 233 901 160 l 1081 113 q 804 -17 974 -17 q 551 99 635 -17 q 303 -17 450 -17 m 665 446 l 929 446 q 804 551 901 551 q 665 446 685 551 m 349 160 q 463 207 418 160 l 463 267 q 364 283 418 283 q 260 217 260 283 q 283 175 260 190 q 349 160 306 160 z "},"ç":{"ha":783,"x_min":69,"x_max":714,"o":"m 374 -343 q 214 -271 263 -343 l 296 -208 q 353 -237 315 -237 q 419 -187 419 -237 q 354 -136 419 -136 q 292 -160 328 -136 l 250 -107 l 331 -10 q 140 106 210 10 q 69 354 69 203 q 160 626 69 525 q 401 726 251 726 q 713 504 643 726 l 521 442 q 404 533 486 533 q 310 483 347 533 q 274 354 274 433 q 310 226 274 275 q 401 176 346 176 q 521 279 489 176 l 714 224 q 440 -15 653 6 l 411 -61 q 531 -96 490 -61 q 571 -189 571 -131 q 519 -301 571 -258 q 374 -343 468 -343 z "},"è":{"ha":789,"x_min":69,"x_max":726,"o":"m 413 800 l 165 1017 l 406 1017 l 603 800 l 413 800 m 407 -17 q 160 82 250 -17 q 69 356 69 181 q 160 626 69 526 q 407 726 251 726 q 638 640 549 726 q 726 390 726 554 q 721 286 726 322 l 267 286 q 308 187 269 219 q 407 154 347 154 q 567 229 504 154 l 683 113 q 407 -17 576 -17 m 268 438 l 533 438 q 399 556 518 556 q 310 524 344 556 q 268 438 275 493 z "},"é":{"ha":789,"x_min":69,"x_max":726,"o":"m 211 800 l 408 1017 l 649 1017 l 401 800 l 211 800 m 407 -17 q 160 82 250 -17 q 69 356 69 181 q 160 626 69 526 q 407 726 251 726 q 638 640 549 726 q 726 390 726 554 q 721 286 726 322 l 267 286 q 308 187 269 219 q 407 154 347 154 q 567 229 504 154 l 683 113 q 407 -17 576 -17 m 268 438 l 533 438 q 399 556 518 556 q 310 524 344 556 q 268 438 275 493 z "},"ê":{"ha":789,"x_min":69,"x_max":726,"o":"m 515 800 l 407 889 l 297 800 l 115 800 l 313 1017 l 501 1017 l 697 800 l 515 800 m 407 -17 q 160 82 250 -17 q 69 356 69 181 q 160 626 69 526 q 407 726 251 726 q 638 640 549 726 q 726 390 726 554 q 721 286 726 322 l 267 286 q 308 187 269 219 q 407 154 347 154 q 567 229 504 154 l 683 113 q 407 -17 576 -17 m 268 438 l 533 438 q 399 556 518 556 q 310 524 344 556 q 268 438 275 493 z "},"ë":{"ha":789,"x_min":69,"x_max":726,"o":"m 271 800 q 192 831 222 800 q 163 908 163 861 q 193 987 163 956 q 271 1018 224 1018 q 349 987 318 1018 q 381 908 381 956 q 349 831 381 861 q 271 800 318 800 m 543 800 q 464 831 494 800 q 433 908 433 861 q 465 987 433 956 q 543 1018 496 1018 q 620 987 589 1018 q 651 908 651 956 q 620 831 651 861 q 543 800 589 800 m 407 -17 q 160 82 250 -17 q 69 356 69 181 q 160 626 69 526 q 407 726 251 726 q 638 640 549 726 q 726 390 726 554 q 721 286 726 322 l 267 286 q 308 187 269 219 q 407 154 347 154 q 567 229 504 154 l 683 113 q 407 -17 576 -17 m 268 438 l 533 438 q 399 556 518 556 q 310 524 344 556 q 268 438 275 493 z "},"ì":{"ha":413,"x_min":-69,"x_max":368,"o":"m 178 800 l -69 1017 l 171 1017 l 368 800 l 178 800 m 106 0 l 106 710 l 307 710 l 307 0 l 106 0 z "},"í":{"ha":413,"x_min":43,"x_max":481,"o":"m 43 800 l 240 1017 l 481 1017 l 233 800 l 43 800 m 106 0 l 106 710 l 307 710 l 307 0 l 106 0 z "},"î":{"ha":413,"x_min":-86,"x_max":496,"o":"m 314 800 l 206 889 l 96 800 l -86 800 l 111 1017 l 300 1017 l 496 800 l 314 800 m 106 0 l 106 710 l 307 710 l 307 0 l 106 0 z "},"ï":{"ha":413,"x_min":-39,"x_max":450,"o":"m 148 831 q 132 815 148 831 q 69 800 117 800 q -8 831 22 800 q -39 908 -39 861 q -8 987 -39 956 q 69 1018 22 1018 q 148 987 117 1018 q 179 908 179 956 q 148 831 179 861 m 342 800 q 263 831 293 800 q 232 908 232 861 q 263 987 232 956 q 342 1018 294 1018 q 419 987 388 1018 q 450 908 450 956 q 419 831 450 861 q 342 800 388 800 m 106 0 l 106 710 l 307 710 l 307 0 l 106 0 z "},"ð":{"ha":794,"x_min":69,"x_max":725,"o":"m 399 -17 q 162 74 254 -17 q 69 307 69 165 q 153 535 69 442 q 374 628 236 628 q 500 592 456 628 q 419 735 476 683 l 347 658 l 240 756 l 282 799 q 169 811 232 810 l 169 989 q 419 942 314 985 l 500 1025 l 604 926 l 546 867 q 725 382 725 714 q 640 93 725 203 q 399 -17 556 -17 m 308 215 q 326 196 308 215 q 399 178 344 178 q 488 214 453 178 q 524 306 524 250 q 488 403 524 367 q 397 439 453 439 q 307 403 343 439 q 271 307 271 367 q 308 215 271 251 z "},"ñ":{"ha":842,"x_min":104,"x_max":744,"o":"m 540 807 q 415 838 488 807 q 311 869 342 869 q 246 813 246 869 l 153 813 q 321 1010 153 1010 q 447 979 375 1010 q 550 949 518 949 q 615 1004 615 949 l 707 1004 q 540 807 707 807 m 543 0 l 543 369 q 517 494 543 456 q 431 532 492 532 q 335 493 365 532 q 306 372 306 454 l 306 0 l 104 0 l 104 710 l 306 710 l 306 644 q 499 726 374 726 q 671 664 597 726 q 744 461 744 601 l 744 0 l 543 0 z "},"ò":{"ha":794,"x_min":69,"x_max":725,"o":"m 396 800 l 149 1017 l 389 1017 l 586 800 l 396 800 m 399 -17 q 158 82 246 -17 q 69 354 69 181 q 158 626 69 526 q 399 726 247 726 q 637 626 549 726 q 725 354 725 526 q 638 82 725 181 q 399 -17 550 -17 m 399 178 q 491 224 458 178 q 524 354 524 271 q 491 485 524 438 q 399 532 458 532 q 306 485 340 532 q 271 354 271 438 q 306 224 271 271 q 399 178 340 178 z "},"ó":{"ha":794,"x_min":69,"x_max":725,"o":"m 201 800 l 399 1017 l 639 1017 l 392 800 l 201 800 m 399 -17 q 158 82 246 -17 q 69 354 69 181 q 158 626 69 526 q 399 726 247 726 q 637 626 549 726 q 725 354 725 526 q 638 82 725 181 q 399 -17 550 -17 m 399 178 q 491 224 458 178 q 524 354 524 271 q 491 485 524 438 q 399 532 458 532 q 306 485 340 532 q 271 354 271 438 q 306 224 271 271 q 399 178 340 178 z "},"ô":{"ha":794,"x_min":69,"x_max":725,"o":"m 506 800 l 397 889 l 288 800 l 106 800 l 303 1017 l 492 1017 l 688 800 l 506 800 m 399 -17 q 158 82 246 -17 q 69 354 69 181 q 158 626 69 526 q 399 726 247 726 q 637 626 549 726 q 725 354 725 526 q 638 82 725 181 q 399 -17 550 -17 m 399 178 q 491 224 458 178 q 524 354 524 271 q 491 485 524 438 q 399 532 458 532 q 306 485 340 532 q 271 354 271 438 q 306 224 271 271 q 399 178 340 178 z "},"õ":{"ha":794,"x_min":69,"x_max":725,"o":"m 507 807 q 381 838 454 807 q 278 869 308 869 q 213 813 213 869 l 119 813 q 288 1010 119 1010 q 413 979 342 1010 q 517 949 485 949 q 582 1004 582 949 l 674 1004 q 507 807 674 807 m 399 -17 q 158 82 246 -17 q 69 354 69 181 q 158 626 69 526 q 399 726 247 726 q 637 626 549 726 q 725 354 725 526 q 638 82 725 181 q 399 -17 550 -17 m 399 178 q 491 224 458 178 q 524 354 524 271 q 491 485 524 438 q 399 532 458 532 q 306 485 340 532 q 271 354 271 438 q 306 224 271 271 q 399 178 340 178 z "},"ö":{"ha":794,"x_min":69,"x_max":725,"o":"m 340 831 q 324 815 340 831 q 261 800 308 800 q 183 831 214 800 q 153 908 153 861 q 183 987 153 956 q 261 1018 214 1018 q 340 987 308 1018 q 371 908 371 956 q 340 831 371 861 m 533 800 q 454 831 485 800 q 424 908 424 861 q 455 987 424 956 q 533 1018 486 1018 q 610 987 579 1018 q 642 908 642 956 q 610 831 642 861 q 533 800 579 800 m 399 -17 q 158 82 246 -17 q 69 354 69 181 q 158 626 69 526 q 399 726 247 726 q 637 626 549 726 q 725 354 725 526 q 638 82 725 181 q 399 -17 550 -17 m 399 178 q 491 224 458 178 q 524 354 524 271 q 491 485 524 438 q 399 532 458 532 q 306 485 340 532 q 271 354 271 438 q 306 224 271 271 q 399 178 340 178 z "},"÷":{"ha":875,"x_min":111,"x_max":764,"o":"m 523 634 q 506 617 523 634 q 439 600 489 600 q 354 634 389 600 q 319 715 319 668 q 354 797 319 764 q 439 831 389 831 q 523 797 489 831 q 557 715 557 764 q 523 634 557 668 m 111 379 l 111 575 l 764 575 l 764 379 l 111 379 m 523 156 q 506 139 523 156 q 439 122 489 122 q 354 156 389 122 q 319 239 319 190 q 354 320 319 288 q 439 353 389 353 q 523 320 489 353 q 557 239 557 288 q 523 156 557 190 z "},"ø":{"ha":794,"x_min":69,"x_max":726,"o":"m 726 726 l 651 608 q 725 354 725 511 q 638 82 725 181 q 399 -17 550 -17 q 265 7 325 -17 l 250 -17 l 69 -17 l 144 99 q 69 354 69 194 q 158 626 69 526 q 399 726 247 726 q 532 701 472 726 l 547 726 l 726 726 m 271 354 q 275 303 271 326 l 421 531 q 399 532 414 532 q 306 485 340 532 q 271 354 271 438 m 524 354 q 519 404 524 381 l 376 179 q 399 178 383 178 q 491 224 458 178 q 524 354 524 271 z "},"ù":{"ha":842,"x_min":97,"x_max":738,"o":"m 415 800 l 168 1017 l 408 1017 l 606 800 l 415 800 m 536 0 l 536 65 q 342 -17 469 -17 q 258 -3 299 -17 q 181 39 218 10 q 120 122 143 68 q 97 249 97 176 l 97 710 l 299 710 l 299 340 q 324 217 299 256 q 413 178 349 178 q 506 217 476 178 q 536 338 536 256 l 536 710 l 738 710 l 738 0 l 536 0 z "},"ú":{"ha":842,"x_min":97,"x_max":738,"o":"m 214 800 l 411 1017 l 651 1017 l 404 800 l 214 800 m 536 0 l 536 65 q 342 -17 469 -17 q 258 -3 299 -17 q 181 39 218 10 q 120 122 143 68 q 97 249 97 176 l 97 710 l 299 710 l 299 340 q 324 217 299 256 q 413 178 349 178 q 506 217 476 178 q 536 338 536 256 l 536 710 l 738 710 l 738 0 l 536 0 z "},"û":{"ha":842,"x_min":97,"x_max":738,"o":"m 518 800 l 410 889 l 300 800 l 118 800 l 315 1017 l 504 1017 l 700 800 l 518 800 m 536 0 l 536 65 q 342 -17 469 -17 q 258 -3 299 -17 q 181 39 218 10 q 120 122 143 68 q 97 249 97 176 l 97 710 l 299 710 l 299 340 q 324 217 299 256 q 413 178 349 178 q 506 217 476 178 q 536 338 536 256 l 536 710 l 738 710 l 738 0 l 536 0 z "},"ü":{"ha":842,"x_min":97,"x_max":738,"o":"m 274 800 q 195 831 225 800 q 165 908 165 861 q 196 987 165 956 q 274 1018 226 1018 q 352 987 321 1018 q 383 908 383 956 q 352 831 383 861 q 274 800 321 800 m 546 800 q 467 831 497 800 q 436 908 436 861 q 467 987 436 956 q 546 1018 499 1018 q 623 987 592 1018 q 654 908 654 956 q 623 831 654 861 q 546 800 592 800 m 536 0 l 536 65 q 342 -17 469 -17 q 258 -3 299 -17 q 181 39 218 10 q 120 122 143 68 q 97 249 97 176 l 97 710 l 299 710 l 299 340 q 324 217 299 256 q 413 178 349 178 q 506 217 476 178 q 536 338 536 256 l 536 710 l 738 710 l 738 0 l 536 0 z "},"ý":{"ha":817,"x_min":35,"x_max":782,"o":"m 214 800 l 411 1017 l 651 1017 l 404 800 l 214 800 m 196 -269 l 303 8 l 35 710 l 243 710 l 388 331 q 410 264 403 289 q 432 331 417 289 l 575 710 l 782 710 l 404 -269 l 196 -269 z "},"þ":{"ha":800,"x_min":93,"x_max":731,"o":"m 435 -17 q 294 46 343 -17 l 294 -175 l 93 -271 l 93 893 l 294 989 l 294 661 q 438 726 342 726 q 651 630 572 726 q 731 354 731 533 q 648 83 731 183 q 435 -17 565 -17 m 404 178 q 497 224 464 178 q 529 354 529 271 q 404 532 529 532 q 294 489 335 532 l 294 224 q 333 192 303 206 q 404 178 363 178 z "},"ÿ":{"ha":817,"x_min":35,"x_max":782,"o":"m 274 800 q 195 831 225 800 q 165 908 165 861 q 196 987 165 956 q 274 1018 226 1018 q 352 987 321 1018 q 383 908 383 956 q 352 831 383 861 q 274 800 321 800 m 546 800 q 467 831 497 800 q 436 908 436 861 q 467 987 436 956 q 546 1018 499 1018 q 623 987 592 1018 q 654 908 654 956 q 623 831 654 861 q 546 800 592 800 m 196 -269 l 303 8 l 35 710 l 243 710 l 388 331 q 410 264 403 289 q 432 331 417 289 l 575 710 l 782 710 l 404 -269 l 196 -269 z "},"Ā":{"ha":1024,"x_min":26,"x_max":997,"o":"m 283 1071 l 283 1233 l 742 1233 l 742 1071 l 283 1071 m 767 0 l 694 189 l 329 189 l 257 0 l 26 0 l 410 972 l 613 972 l 997 0 l 767 0 m 624 383 l 540 593 q 511 675 521 640 q 482 593 506 651 l 399 383 l 624 383 z "},"ā":{"ha":796,"x_min":63,"x_max":706,"o":"m 178 808 l 178 971 l 636 971 l 636 808 l 178 808 m 506 0 l 506 53 q 329 -17 442 -17 q 137 44 211 -17 q 63 217 63 104 q 149 385 63 326 q 350 444 235 444 q 506 419 450 444 l 506 458 q 475 533 506 507 q 390 558 444 558 q 163 483 275 558 l 100 638 q 404 726 231 726 q 706 449 706 726 l 706 0 l 506 0 m 368 153 q 506 203 443 153 l 506 267 q 385 283 450 283 q 260 215 260 283 q 368 153 260 153 z "},"Ă":{"ha":1024,"x_min":26,"x_max":997,"o":"m 713 1122 q 679 1088 713 1122 q 513 1054 644 1054 q 313 1122 381 1054 q 244 1293 244 1190 l 393 1293 q 422 1223 393 1253 q 513 1193 451 1193 q 603 1224 574 1193 q 633 1293 633 1254 l 782 1293 q 713 1122 782 1190 m 767 0 l 694 189 l 329 189 l 257 0 l 26 0 l 410 972 l 613 972 l 997 0 l 767 0 m 624 383 l 540 593 q 511 675 521 640 q 482 593 506 651 l 399 383 l 624 383 z "},"ă":{"ha":796,"x_min":63,"x_max":706,"o":"m 608 860 q 573 826 608 860 q 407 792 539 792 q 207 860 275 792 q 139 1031 139 928 l 288 1031 q 317 960 288 990 q 407 931 346 931 q 498 961 468 931 q 528 1031 528 992 l 676 1031 q 608 860 676 928 m 506 0 l 506 53 q 329 -17 442 -17 q 137 44 211 -17 q 63 217 63 104 q 149 385 63 326 q 350 444 235 444 q 506 419 450 444 l 506 458 q 475 533 506 507 q 390 558 444 558 q 163 483 275 558 l 100 638 q 404 726 231 726 q 706 449 706 726 l 706 0 l 506 0 m 368 153 q 506 203 443 153 l 506 267 q 385 283 450 283 q 260 215 260 283 q 368 153 260 153 z "},"Ą":{"ha":1044,"x_min":38,"x_max":1008,"o":"m 808 -343 q 681 -300 729 -343 q 633 -189 633 -257 q 778 0 633 -67 l 704 189 l 340 189 l 267 0 l 38 0 l 421 972 l 624 972 l 1008 0 q 856 -54 915 0 q 796 -172 796 -108 q 808 -214 796 -200 q 839 -228 821 -228 q 892 -201 872 -228 l 983 -265 q 808 -343 917 -343 m 410 383 l 633 383 l 550 593 q 522 668 522 665 q 493 593 519 653 l 410 383 z "},"ą":{"ha":796,"x_min":63,"x_max":706,"o":"m 525 -343 q 398 -300 446 -343 q 350 -189 350 -257 q 506 3 350 -61 l 506 46 q 329 -17 440 -17 q 137 44 211 -17 q 63 217 63 104 q 148 392 63 332 q 350 451 233 451 q 506 422 435 451 l 506 458 q 474 527 506 503 q 390 551 443 551 q 163 476 275 551 l 100 638 q 404 726 231 726 q 706 449 706 726 l 706 0 q 684 -9 703 -1 q 659 -19 665 -17 q 634 -31 653 -22 q 608 -45 615 -40 q 584 -60 600 -50 q 561 -77 568 -69 q 543 -97 554 -85 q 527 -119 532 -108 q 518 -144 522 -131 q 514 -172 514 -158 q 557 -228 514 -228 q 608 -201 589 -228 l 700 -265 q 525 -343 626 -343 m 368 160 q 506 207 446 160 l 506 267 q 385 283 450 283 q 260 217 260 283 q 288 176 260 192 q 368 160 317 160 z "},"Ć":{"ha":882,"x_min":69,"x_max":838,"o":"m 314 1063 l 511 1279 l 751 1279 l 504 1063 l 314 1063 m 479 -14 q 287 30 369 -14 q 158 147 204 74 q 91 306 113 221 q 69 486 69 390 q 92 658 69 574 q 160 817 114 742 q 288 940 206 893 q 479 986 371 986 q 704 918 611 986 q 836 753 797 850 l 647 668 q 570 756 607 728 q 479 783 533 783 q 389 756 428 783 q 329 684 350 729 q 299 590 308 639 q 289 486 289 540 q 308 347 289 413 q 372 235 326 282 q 479 189 417 189 q 644 314 569 189 l 838 242 q 479 -14 719 -14 z "},"ć":{"ha":783,"x_min":69,"x_max":714,"o":"m 208 800 l 406 1017 l 646 1017 l 399 800 l 208 800 m 401 -17 q 160 82 250 -17 q 69 354 69 181 q 160 626 69 525 q 401 726 251 726 q 713 504 643 726 l 521 442 q 404 533 486 533 q 310 483 347 533 q 274 354 274 433 q 310 226 274 275 q 401 176 346 176 q 521 279 489 176 l 714 224 q 401 -17 643 -17 z "},"Ĉ":{"ha":882,"x_min":69,"x_max":838,"o":"m 590 1063 l 482 1151 l 372 1063 l 190 1063 l 388 1279 l 576 1279 l 772 1063 l 590 1063 m 479 -14 q 287 30 369 -14 q 158 147 204 74 q 91 306 113 221 q 69 486 69 390 q 92 658 69 574 q 160 817 114 742 q 288 940 206 893 q 479 986 371 986 q 704 918 611 986 q 836 753 797 850 l 647 668 q 570 756 607 728 q 479 783 533 783 q 389 756 428 783 q 329 684 350 729 q 299 590 308 639 q 289 486 289 540 q 308 347 289 413 q 372 235 326 282 q 479 189 417 189 q 644 314 569 189 l 838 242 q 479 -14 719 -14 z "},"ĉ":{"ha":783,"x_min":69,"x_max":714,"o":"m 513 800 l 404 889 l 294 800 l 113 800 l 310 1017 l 499 1017 l 694 800 l 513 800 m 401 -17 q 160 82 250 -17 q 69 354 69 181 q 160 626 69 525 q 401 726 251 726 q 713 504 643 726 l 521 442 q 404 533 486 533 q 310 483 347 533 q 274 354 274 433 q 310 226 274 275 q 401 176 346 176 q 521 279 489 176 l 714 224 q 401 -17 643 -17 z "},"Ċ":{"ha":882,"x_min":69,"x_max":838,"o":"m 482 1063 q 403 1093 433 1063 q 372 1171 372 1124 q 403 1249 372 1218 q 482 1281 435 1281 q 559 1249 528 1281 q 590 1171 590 1218 q 559 1093 590 1124 q 482 1063 528 1063 m 479 -14 q 287 30 369 -14 q 158 147 204 74 q 91 306 113 221 q 69 486 69 390 q 92 658 69 574 q 160 817 114 742 q 288 940 206 893 q 479 986 371 986 q 704 918 611 986 q 836 753 797 850 l 647 668 q 570 756 607 728 q 479 783 533 783 q 389 756 428 783 q 329 684 350 729 q 299 590 308 639 q 289 486 289 540 q 308 347 289 413 q 372 235 326 282 q 479 189 417 189 q 644 314 569 189 l 838 242 q 479 -14 719 -14 z "},"ċ":{"ha":783,"x_min":69,"x_max":714,"o":"m 404 800 q 325 831 356 800 q 294 908 294 861 q 326 987 294 956 q 404 1018 357 1018 q 481 987 450 1018 q 513 908 513 956 q 481 831 513 861 q 404 800 450 800 m 401 -17 q 160 82 250 -17 q 69 354 69 181 q 160 626 69 525 q 401 726 251 726 q 713 504 643 726 l 521 442 q 404 533 486 533 q 310 483 347 533 q 274 354 274 433 q 310 226 274 275 q 401 176 346 176 q 521 279 489 176 l 714 224 q 401 -17 643 -17 z "},"Č":{"ha":882,"x_min":69,"x_max":838,"o":"m 575 1063 l 386 1063 l 190 1279 l 372 1279 l 482 1192 l 590 1279 l 772 1279 l 575 1063 m 479 -14 q 287 30 369 -14 q 158 147 204 74 q 91 306 113 221 q 69 486 69 390 q 92 658 69 574 q 160 817 114 742 q 288 940 206 893 q 479 986 371 986 q 704 918 611 986 q 836 753 797 850 l 647 668 q 570 756 607 728 q 479 783 533 783 q 389 756 428 783 q 329 684 350 729 q 299 590 308 639 q 289 486 289 540 q 308 347 289 413 q 372 235 326 282 q 479 189 417 189 q 644 314 569 189 l 838 242 q 479 -14 719 -14 z "},"č":{"ha":783,"x_min":69,"x_max":714,"o":"m 497 800 l 308 800 l 113 1017 l 294 1017 l 404 929 l 513 1017 l 694 1017 l 497 800 m 401 -17 q 160 82 250 -17 q 69 354 69 181 q 160 626 69 525 q 401 726 251 726 q 713 504 643 726 l 521 442 q 404 533 486 533 q 310 483 347 533 q 274 354 274 433 q 310 226 274 275 q 401 176 346 176 q 521 279 489 176 l 714 224 q 401 -17 643 -17 z "},"Ď":{"ha":1006,"x_min":104,"x_max":938,"o":"m 549 1063 l 360 1063 l 164 1279 l 346 1279 l 456 1192 l 564 1279 l 746 1279 l 549 1063 m 104 972 l 463 972 q 679 931 585 972 q 828 820 774 890 q 910 665 883 750 q 938 486 938 581 q 922 351 938 417 q 871 220 907 285 q 781 108 835 156 q 643 30 726 60 q 457 0 560 0 l 104 0 l 104 972 m 479 201 q 658 287 599 201 q 718 486 718 372 q 660 686 718 600 q 494 772 603 772 l 315 772 l 315 201 l 479 201 z "},"ď":{"ha":1069,"x_min":69,"x_max":1035,"o":"m 361 -17 q 148 79 226 -17 q 69 356 69 175 q 153 625 69 524 q 364 726 236 726 q 506 656 456 726 l 506 913 l 707 1003 l 707 0 l 506 0 l 506 58 q 361 -17 467 -17 m 1035 989 l 1035 978 q 872 619 1035 769 l 807 669 q 839 797 826 707 q 851 989 851 886 l 1035 989 m 396 178 q 506 222 474 178 l 506 485 q 396 532 468 532 q 303 486 336 532 q 271 356 271 440 q 396 178 271 178 z "},"Đ":{"ha":1006,"x_min":19,"x_max":938,"o":"m 104 388 l 19 388 l 19 585 l 104 585 l 104 972 l 463 972 q 679 931 585 972 q 828 820 774 890 q 910 665 883 750 q 938 486 938 581 q 922 351 938 417 q 871 220 907 285 q 781 108 835 156 q 643 30 726 60 q 457 0 560 0 l 104 0 l 104 388 m 479 201 q 658 287 599 201 q 718 486 718 372 q 660 686 718 600 q 494 772 603 772 l 315 772 l 315 585 l 508 585 l 508 388 l 315 388 l 315 201 l 479 201 z "},"đ":{"ha":811,"x_min":69,"x_max":801,"o":"m 707 742 l 707 0 l 506 0 l 506 53 q 361 -17 468 -17 q 148 75 226 -17 q 69 332 69 167 q 153 585 69 488 q 364 682 238 682 q 506 613 458 682 l 506 742 l 353 742 l 353 890 l 506 890 l 506 913 l 707 1003 l 707 890 l 801 890 l 801 742 l 707 742 m 396 178 q 506 222 474 178 l 506 440 q 396 488 476 488 q 305 444 339 488 q 271 332 271 401 q 302 219 271 261 q 396 178 333 178 z "},"Ē":{"ha":885,"x_min":104,"x_max":831,"o":"m 233 1071 l 233 1233 l 692 1233 l 692 1071 l 233 1071 m 104 0 l 104 972 l 803 972 l 803 772 l 315 772 l 315 601 l 588 601 l 588 401 l 315 401 l 315 201 l 831 201 l 831 0 l 104 0 z "},"ē":{"ha":789,"x_min":69,"x_max":726,"o":"m 178 808 l 178 971 l 636 971 l 636 808 l 178 808 m 407 -17 q 160 82 250 -17 q 69 356 69 181 q 160 626 69 526 q 407 726 251 726 q 638 640 549 726 q 726 390 726 554 q 721 286 726 322 l 267 286 q 308 187 269 219 q 407 154 347 154 q 567 229 504 154 l 683 113 q 407 -17 576 -17 m 268 438 l 533 438 q 399 556 518 556 q 310 524 344 556 q 268 438 275 493 z "},"Ĕ":{"ha":885,"x_min":104,"x_max":831,"o":"m 663 1122 q 629 1088 663 1122 q 463 1054 594 1054 q 263 1122 331 1054 q 194 1293 194 1190 l 343 1293 q 372 1223 343 1253 q 463 1193 401 1193 q 553 1224 524 1193 q 583 1293 583 1254 l 732 1293 q 663 1122 732 1190 m 104 0 l 104 972 l 803 972 l 803 772 l 315 772 l 315 601 l 588 601 l 588 401 l 315 401 l 315 201 l 831 201 l 831 0 l 104 0 z "},"ĕ":{"ha":789,"x_min":69,"x_max":726,"o":"m 608 860 q 573 826 608 860 q 407 792 539 792 q 207 860 275 792 q 139 1031 139 928 l 288 1031 q 317 960 288 990 q 407 931 346 931 q 498 961 468 931 q 528 1031 528 992 l 676 1031 q 608 860 676 928 m 407 -17 q 160 82 250 -17 q 69 356 69 181 q 160 626 69 526 q 407 726 251 726 q 638 640 549 726 q 726 390 726 554 q 721 286 726 322 l 267 286 q 308 187 269 219 q 407 154 347 154 q 567 229 504 154 l 683 113 q 407 -17 576 -17 m 268 438 l 533 438 q 399 556 518 556 q 310 524 344 556 q 268 438 275 493 z "},"Ė":{"ha":885,"x_min":104,"x_max":831,"o":"m 463 1063 q 383 1093 414 1063 q 353 1171 353 1124 q 384 1249 353 1218 q 463 1281 415 1281 q 540 1249 508 1281 q 571 1171 571 1218 q 540 1093 571 1124 q 463 1063 508 1063 m 104 0 l 104 972 l 803 972 l 803 772 l 315 772 l 315 601 l 588 601 l 588 401 l 315 401 l 315 201 l 831 201 l 831 0 l 104 0 z "},"ė":{"ha":789,"x_min":69,"x_max":726,"o":"m 407 800 q 328 831 358 800 q 297 908 297 861 q 328 987 297 956 q 407 1018 360 1018 q 484 987 453 1018 q 515 908 515 956 q 484 831 515 861 q 407 800 453 800 m 407 -17 q 160 82 250 -17 q 69 356 69 181 q 160 626 69 526 q 407 726 251 726 q 638 640 549 726 q 726 390 726 554 q 721 286 726 322 l 267 286 q 308 187 269 219 q 407 154 347 154 q 567 229 504 154 l 683 113 q 407 -17 576 -17 m 268 438 l 533 438 q 399 556 518 556 q 310 524 344 556 q 268 438 275 493 z "},"Ę":{"ha":885,"x_min":104,"x_max":831,"o":"m 618 -343 q 491 -301 538 -343 q 444 -189 444 -258 q 597 0 444 -67 l 104 0 l 104 972 l 803 972 l 803 772 l 315 772 l 315 601 l 588 601 l 588 401 l 315 401 l 315 201 l 831 201 l 831 0 l 801 0 q 664 -55 721 0 q 607 -172 607 -110 q 650 -228 607 -228 q 703 -201 683 -228 l 793 -265 q 618 -343 724 -343 z "},"ę":{"ha":789,"x_min":69,"x_max":726,"o":"m 410 -343 q 282 -300 329 -343 q 235 -189 235 -257 q 365 -14 235 -83 q 148 98 226 -1 q 69 356 69 197 q 160 626 69 526 q 407 726 251 726 q 638 640 549 726 q 726 390 726 554 q 721 275 726 322 l 267 275 q 312 190 272 219 q 407 160 351 160 q 563 233 504 160 l 683 113 q 535 -3 647 68 q 463 -49 485 -33 q 419 -99 442 -65 q 397 -172 397 -132 q 442 -228 397 -228 q 494 -201 475 -228 l 585 -265 q 410 -343 511 -343 m 407 551 q 268 449 290 551 l 532 449 q 407 551 501 551 z "},"Ě":{"ha":885,"x_min":104,"x_max":831,"o":"m 556 1063 l 367 1063 l 171 1279 l 353 1279 l 463 1192 l 571 1279 l 753 1279 l 556 1063 m 104 0 l 104 972 l 803 972 l 803 772 l 315 772 l 315 601 l 588 601 l 588 401 l 315 401 l 315 201 l 831 201 l 831 0 l 104 0 z "},"ě":{"ha":789,"x_min":69,"x_max":726,"o":"m 500 800 l 311 800 l 115 1017 l 297 1017 l 407 929 l 515 1017 l 697 1017 l 500 800 m 407 -17 q 160 82 250 -17 q 69 356 69 181 q 160 626 69 526 q 407 726 251 726 q 638 640 549 726 q 726 390 726 554 q 721 286 726 322 l 267 286 q 308 187 269 219 q 407 154 347 154 q 567 229 504 154 l 683 113 q 407 -17 576 -17 m 268 438 l 533 438 q 399 556 518 556 q 310 524 344 556 q 268 438 275 493 z "},"Ĝ":{"ha":921,"x_min":69,"x_max":864,"o":"m 607 1063 l 499 1151 l 389 1063 l 207 1063 l 404 1279 l 593 1279 l 789 1063 l 607 1063 m 499 -17 q 306 26 390 -17 q 171 140 221 68 q 95 300 121 213 q 69 486 69 388 q 96 665 69 578 q 173 825 122 751 q 308 944 224 899 q 499 989 393 989 q 710 929 628 989 q 857 767 793 869 l 672 663 q 499 786 594 786 q 374 737 424 786 q 306 624 324 688 q 289 486 289 560 q 341 273 289 360 q 499 186 393 186 q 603 225 558 186 q 647 315 647 264 l 647 322 l 489 322 l 489 524 l 864 524 l 864 371 q 762 86 864 189 q 499 -17 660 -17 z "},"ĝ":{"ha":811,"x_min":69,"x_max":710,"o":"m 419 889 l 310 800 l 128 800 l 325 1017 l 514 1017 l 710 800 l 528 800 l 419 889 m 506 679 l 506 710 l 707 710 l 707 124 q 701 -15 707 40 q 674 -120 694 -69 q 617 -201 654 -171 q 520 -251 581 -231 q 372 -278 460 -271 l 257 -106 q 455 -71 406 -93 q 506 28 504 -49 q 364 -17 458 -17 q 149 79 229 -17 q 69 356 69 175 q 151 626 69 525 q 364 726 232 726 q 506 679 456 726 m 506 221 l 506 486 q 495 497 504 488 q 480 510 486 506 q 461 520 474 514 q 432 529 449 526 q 394 532 415 532 q 303 486 336 532 q 271 356 271 440 q 394 178 271 178 q 506 221 468 178 z "},"Ğ":{"ha":921,"x_min":69,"x_max":864,"o":"m 699 1122 q 665 1088 699 1122 q 499 1054 631 1054 q 299 1122 367 1054 q 231 1293 231 1190 l 379 1293 q 408 1223 379 1253 q 499 1193 438 1193 q 590 1224 560 1193 q 619 1293 619 1254 l 768 1293 q 699 1122 768 1190 m 499 -17 q 306 26 390 -17 q 171 140 221 68 q 95 300 121 213 q 69 486 69 388 q 96 665 69 578 q 173 825 122 751 q 308 944 224 899 q 499 989 393 989 q 710 929 628 989 q 857 767 793 869 l 672 663 q 499 786 594 786 q 374 737 424 786 q 306 624 324 688 q 289 486 289 560 q 341 273 289 360 q 499 186 393 186 q 603 225 558 186 q 647 315 647 264 l 647 322 l 489 322 l 489 524 l 864 524 l 864 371 q 762 86 864 189 q 499 -17 660 -17 z "},"ğ":{"ha":811,"x_min":69,"x_max":707,"o":"m 620 860 q 586 826 620 860 q 419 792 551 792 q 219 860 288 792 q 151 1031 151 928 l 300 1031 q 329 960 300 990 q 419 931 358 931 q 510 961 481 931 q 540 1031 540 992 l 689 1031 q 620 860 689 928 m 506 710 l 707 710 l 707 124 q 701 -15 707 40 q 674 -120 694 -69 q 617 -201 654 -171 q 520 -251 581 -231 q 372 -278 460 -271 l 257 -106 q 455 -71 406 -93 q 506 28 504 -49 q 364 -17 458 -17 q 149 79 229 -17 q 69 356 69 175 q 151 626 69 525 q 364 726 232 726 q 506 679 456 726 l 506 710 m 506 221 l 506 486 q 495 497 504 488 q 480 510 486 506 q 461 520 474 514 q 432 529 449 526 q 394 532 415 532 q 303 486 336 532 q 271 356 271 440 q 394 178 271 178 q 506 221 468 178 z "},"Ġ":{"ha":921,"x_min":69,"x_max":864,"o":"m 504 1063 q 425 1093 456 1063 q 394 1171 394 1124 q 426 1249 394 1218 q 504 1281 457 1281 q 581 1249 550 1281 q 613 1171 613 1218 q 581 1093 613 1124 q 504 1063 550 1063 m 499 -17 q 306 26 390 -17 q 171 140 221 68 q 95 300 121 213 q 69 486 69 388 q 96 665 69 578 q 173 825 122 751 q 308 944 224 899 q 499 989 393 989 q 710 929 628 989 q 857 767 793 869 l 672 663 q 499 786 594 786 q 374 737 424 786 q 306 624 324 688 q 289 486 289 560 q 341 273 289 360 q 499 186 393 186 q 603 225 558 186 q 647 315 647 264 l 647 322 l 489 322 l 489 524 l 864 524 l 864 371 q 762 86 864 189 q 499 -17 660 -17 z "},"ġ":{"ha":811,"x_min":69,"x_max":707,"o":"m 419 800 q 340 831 371 800 q 310 908 310 861 q 341 987 310 956 q 419 1018 372 1018 q 497 987 465 1018 q 528 908 528 956 q 497 831 528 861 q 419 800 465 800 m 506 710 l 707 710 l 707 124 q 701 -15 707 40 q 674 -120 694 -69 q 617 -201 654 -171 q 520 -251 581 -231 q 372 -278 460 -271 l 257 -106 q 455 -71 406 -93 q 506 28 504 -49 q 364 -17 458 -17 q 149 79 229 -17 q 69 356 69 175 q 151 626 69 525 q 364 726 232 726 q 506 679 456 726 l 506 710 m 506 221 l 506 486 q 495 497 504 488 q 480 510 486 506 q 461 520 474 514 q 432 529 449 526 q 394 532 415 532 q 303 486 336 532 q 271 356 271 440 q 394 178 271 178 q 506 221 468 178 z "},"Ģ":{"ha":921,"x_min":69,"x_max":864,"o":"m 499 -17 q 306 26 390 -17 q 171 140 221 68 q 95 300 121 213 q 69 486 69 388 q 96 665 69 578 q 173 825 122 751 q 308 944 224 899 q 499 989 393 989 q 710 929 628 989 q 857 767 793 869 l 672 663 q 499 786 594 786 q 374 737 424 786 q 306 624 324 688 q 289 486 289 560 q 341 273 289 360 q 499 186 393 186 q 603 225 558 186 q 647 315 647 264 l 647 322 l 489 322 l 489 524 l 864 524 l 864 371 q 762 86 864 189 q 499 -17 660 -17 m 411 -358 q 481 -253 467 -300 q 417 -223 444 -250 q 390 -151 390 -196 q 422 -73 390 -104 q 504 -42 454 -42 q 585 -73 554 -42 q 615 -162 615 -104 q 482 -404 615 -293 l 411 -358 z "},"ģ":{"ha":811,"x_min":69,"x_max":707,"o":"m 499 831 q 483 816 499 831 q 417 800 467 800 q 336 831 367 800 q 306 921 306 863 q 439 1163 306 1049 l 510 1117 q 440 1011 456 1058 q 504 981 478 1008 q 531 910 531 954 q 499 831 531 863 m 506 710 l 707 710 l 707 124 q 701 -15 707 40 q 674 -120 694 -69 q 617 -201 654 -171 q 520 -251 581 -231 q 372 -278 460 -271 l 257 -106 q 455 -71 406 -93 q 506 28 504 -49 q 364 -17 458 -17 q 149 79 229 -17 q 69 356 69 175 q 151 626 69 525 q 364 726 232 726 q 506 679 456 726 l 506 710 m 506 221 l 506 486 q 495 497 504 488 q 480 510 486 506 q 461 520 474 514 q 432 529 449 526 q 394 532 415 532 q 303 486 336 532 q 271 356 271 440 q 394 178 271 178 q 506 221 468 178 z "},"Ĥ":{"ha":1017,"x_min":104,"x_max":914,"o":"m 618 1063 l 510 1151 l 400 1063 l 218 1063 l 415 1279 l 604 1279 l 800 1063 l 618 1063 m 701 0 l 701 399 l 315 399 l 315 0 l 104 0 l 104 972 l 315 972 l 315 600 l 701 600 l 701 972 l 914 972 l 914 0 l 701 0 z "},"ĥ":{"ha":842,"x_min":104,"x_max":744,"o":"m 539 1063 l 431 1151 l 321 1063 l 139 1063 l 336 1279 l 525 1279 l 721 1063 l 539 1063 m 104 0 l 104 910 l 306 1003 l 306 644 q 499 726 374 726 q 671 664 597 726 q 744 461 744 601 l 744 0 l 543 0 l 543 381 q 517 496 543 460 q 431 532 492 532 q 306 383 306 532 l 306 0 l 104 0 z "},"Ħ":{"ha":1017,"x_min":0,"x_max":1017,"o":"m 701 0 l 701 399 l 315 399 l 315 0 l 104 0 l 104 676 l 0 676 l 0 879 l 104 879 l 104 972 l 315 972 l 315 879 l 701 879 l 701 972 l 914 972 l 914 879 l 1017 879 l 1017 676 l 914 676 l 914 0 l 701 0 m 701 600 l 701 676 l 315 676 l 315 600 l 701 600 z "},"ħ":{"ha":842,"x_min":28,"x_max":744,"o":"m 104 0 l 104 742 l 28 742 l 28 890 l 104 890 l 104 910 l 306 1003 l 306 890 l 481 890 l 481 742 l 306 742 l 306 603 q 499 685 374 685 q 670 622 596 685 q 744 419 744 558 l 744 0 l 543 0 l 543 371 q 512 460 543 431 q 431 490 481 490 q 341 461 376 490 q 306 374 306 432 l 306 0 l 104 0 z "},"Ĩ":{"ha":432,"x_min":-60,"x_max":494,"o":"m 328 1069 q 202 1101 275 1069 q 99 1132 129 1132 q 33 1075 33 1132 l -60 1075 q 108 1272 -60 1272 q 234 1242 163 1272 q 338 1211 306 1211 q 403 1267 403 1211 l 494 1267 q 328 1069 494 1069 m 111 0 l 111 972 l 322 972 l 322 0 l 111 0 z "},"ĩ":{"ha":413,"x_min":-71,"x_max":483,"o":"m 317 807 q 191 838 264 807 q 88 869 118 869 q 22 813 22 869 l -71 813 q 97 1010 -71 1010 q 223 979 151 1010 q 326 949 294 949 q 392 1004 392 949 l 483 1004 q 317 807 483 807 m 106 0 l 106 710 l 307 710 l 307 0 l 106 0 z "},"Ī":{"ha":432,"x_min":-11,"x_max":447,"o":"m -11 1071 l -11 1233 l 447 1233 l 447 1071 l -11 1071 m 111 0 l 111 972 l 322 972 l 322 0 l 111 0 z "},"ī":{"ha":413,"x_min":-22,"x_max":436,"o":"m -22 808 l -22 971 l 436 971 l 436 808 l -22 808 m 106 0 l 106 710 l 307 710 l 307 0 l 106 0 z "},"Ĭ":{"ha":432,"x_min":-50,"x_max":488,"o":"m 419 1122 q 384 1088 419 1122 q 218 1054 350 1054 q 18 1122 86 1054 q -50 1293 -50 1190 l 99 1293 q 128 1223 99 1253 q 218 1193 157 1193 q 309 1224 279 1193 q 339 1293 339 1254 l 488 1293 q 419 1122 488 1190 m 111 0 l 111 972 l 322 972 l 322 0 l 111 0 z "},"ĭ":{"ha":413,"x_min":-61,"x_max":476,"o":"m 408 860 q 373 826 408 860 q 207 792 339 792 q 7 860 75 792 q -61 1031 -61 928 l 88 1031 q 117 960 88 990 q 207 931 146 931 q 298 961 268 931 q 328 1031 328 992 l 476 1031 q 408 860 476 928 m 106 0 l 106 710 l 307 710 l 307 0 l 106 0 z "},"Į":{"ha":432,"x_min":-40,"x_max":322,"o":"m 135 -343 q 7 -300 54 -343 q -40 -189 -40 -257 q 111 0 -40 -65 l 111 972 l 322 972 l 322 0 q 184 -55 244 -8 q 124 -172 124 -101 q 167 -228 124 -228 q 218 -201 199 -228 l 310 -265 q 135 -343 236 -343 z "},"į":{"ha":399,"x_min":-56,"x_max":315,"o":"m 200 778 q 119 812 153 778 q 85 893 85 846 q 119 974 85 940 q 200 1007 153 1007 q 283 974 250 1007 q 315 893 315 942 q 282 812 315 846 q 200 778 249 778 m 119 -343 q -8 -300 39 -343 q -56 -189 -56 -257 q 100 0 -56 -62 l 100 710 l 300 710 l 300 0 q 154 -72 200 -22 q 108 -172 108 -121 q 151 -228 108 -228 q 204 -201 185 -228 l 294 -265 q 119 -343 225 -343 z "},"İ":{"ha":432,"x_min":108,"x_max":326,"o":"m 218 1063 q 139 1093 169 1063 q 108 1171 108 1124 q 140 1249 108 1218 q 218 1281 171 1281 q 295 1249 264 1281 q 326 1171 326 1218 q 295 1093 326 1124 q 218 1063 264 1063 m 111 0 l 111 972 l 322 972 l 322 0 l 111 0 z "},"ı":{"ha":413,"x_min":106,"x_max":307,"o":"m 106 0 l 106 710 l 307 710 l 307 0 l 106 0 z "},"Ĳ":{"ha":1260,"x_min":111,"x_max":1164,"o":"m 111 0 l 111 972 l 322 972 l 322 0 l 111 0 m 825 -17 q 628 45 719 -17 q 489 215 538 107 l 675 300 q 825 188 736 188 q 951 360 951 188 l 951 972 l 1164 972 l 1164 344 q 1143 199 1164 263 q 1089 95 1122 135 q 1010 30 1056 56 q 919 -6 964 4 q 825 -17 874 -17 z "},"ĳ":{"ha":825,"x_min":90,"x_max":735,"o":"m 207 778 q 125 812 160 778 q 90 893 90 846 q 124 974 90 940 q 207 1007 158 1007 q 289 974 256 1007 q 322 893 322 942 q 289 812 322 846 q 207 778 256 778 m 619 778 q 538 812 572 778 q 503 893 503 846 q 537 974 503 940 q 619 1007 571 1007 q 701 974 668 1007 q 735 893 735 942 q 701 812 735 846 q 619 778 668 778 m 106 0 l 106 710 l 307 710 l 307 0 l 106 0 m 421 -297 l 317 -135 q 474 -80 431 -108 q 518 0 518 -51 l 518 710 l 719 710 l 719 42 q 649 -183 719 -110 q 421 -297 575 -261 z "},"Ĵ":{"ha":785,"x_min":14,"x_max":874,"o":"m 692 1063 l 583 1151 l 474 1063 l 292 1063 l 489 1279 l 678 1279 l 874 1063 l 692 1063 m 350 -17 q 153 45 244 -17 q 14 215 63 107 l 200 300 q 350 188 261 188 q 476 360 476 188 l 476 972 l 689 972 l 689 344 q 668 199 689 263 q 614 95 647 135 q 535 30 581 56 q 444 -6 489 4 q 350 -17 399 -17 z "},"ĵ":{"ha":413,"x_min":-96,"x_max":497,"o":"m 315 800 l 207 889 l 97 800 l -85 800 l 113 1017 l 301 1017 l 497 800 l 315 800 m 8 -297 l -96 -135 q 62 -80 18 -108 q 106 0 106 -51 l 106 710 l 307 710 l 307 42 q 236 -183 307 -110 q 8 -297 163 -261 z "},"Ķ":{"ha":1018,"x_min":104,"x_max":985,"o":"m 738 0 l 500 442 l 315 211 l 315 0 l 104 0 l 104 972 l 315 972 l 315 513 l 679 972 l 933 972 l 643 619 l 985 0 l 738 0 m 417 -358 q 486 -253 472 -300 q 423 -223 450 -250 q 396 -151 396 -196 q 428 -73 396 -104 q 510 -42 460 -42 q 590 -73 560 -42 q 621 -162 621 -104 q 488 -404 621 -293 l 417 -358 z "},"ķ":{"ha":799,"x_min":104,"x_max":765,"o":"m 765 0 l 546 0 l 358 357 l 306 308 l 306 0 l 104 0 l 104 908 l 306 1003 l 306 532 l 485 710 l 724 710 l 507 500 l 765 0 m 306 -358 q 375 -253 361 -300 q 312 -223 339 -250 q 285 -151 285 -196 q 317 -73 285 -104 q 399 -42 349 -42 q 479 -73 449 -42 q 510 -162 510 -104 q 376 -404 510 -293 l 306 -358 z "},"ĸ":{"ha":764,"x_min":104,"x_max":731,"o":"m 510 0 l 357 283 l 306 222 l 306 0 l 104 0 l 104 710 l 306 710 l 306 482 l 488 710 l 704 710 l 489 444 l 731 0 l 510 0 z "},"Ĺ":{"ha":792,"x_min":64,"x_max":782,"o":"m 64 1063 l 261 1279 l 501 1279 l 254 1063 l 64 1063 m 104 0 l 104 972 l 315 972 l 315 204 l 782 204 l 782 0 l 104 0 z "},"ĺ":{"ha":424,"x_min":17,"x_max":454,"o":"m 17 1050 l 214 1267 l 454 1267 l 207 1050 l 17 1050 m 111 0 l 111 908 l 313 1003 l 313 0 l 111 0 z "},"Ļ":{"ha":792,"x_min":104,"x_max":782,"o":"m 104 0 l 104 972 l 315 972 l 315 204 l 782 204 l 782 0 l 104 0 m 343 -358 q 413 -253 399 -300 q 349 -223 376 -250 q 322 -151 322 -196 q 354 -73 322 -104 q 436 -42 386 -42 q 517 -73 486 -42 q 547 -162 547 -104 q 414 -404 547 -293 l 343 -358 z "},"ļ":{"ha":424,"x_min":97,"x_max":322,"o":"m 111 0 l 111 908 l 313 1003 l 313 0 l 111 0 m 118 -358 q 188 -253 174 -300 q 124 -223 151 -250 q 97 -151 97 -196 q 129 -73 97 -104 q 211 -42 161 -42 q 292 -73 261 -42 q 322 -162 322 -104 q 189 -404 322 -293 l 118 -358 z "},"Ľ":{"ha":792,"x_min":-85,"x_max":782,"o":"m 300 1063 l 111 1063 l -85 1279 l 97 1279 l 207 1192 l 315 1279 l 497 1279 l 300 1063 m 104 0 l 104 972 l 315 972 l 315 204 l 782 204 l 782 0 l 104 0 z "},"ľ":{"ha":640,"x_min":111,"x_max":606,"o":"m 111 0 l 111 908 l 313 1003 l 313 0 l 111 0 m 606 989 l 606 978 q 443 619 606 769 l 378 669 q 410 797 397 707 q 422 989 422 886 l 606 989 z "},"Ŀ":{"ha":792,"x_min":104,"x_max":782,"o":"m 104 0 l 104 972 l 315 972 l 315 204 l 782 204 l 782 0 l 104 0 m 687 399 q 668 382 687 399 q 597 364 650 364 q 509 399 544 364 q 474 485 474 435 q 509 571 474 535 q 597 607 544 607 q 687 571 650 607 q 724 485 724 535 q 687 399 724 435 z "},"ŀ":{"ha":607,"x_min":111,"x_max":644,"o":"m 111 0 l 111 908 l 313 1003 l 313 0 l 111 0 m 608 353 q 589 336 608 353 q 518 318 571 318 q 430 353 465 318 q 394 439 394 389 q 430 525 394 489 q 518 561 465 561 q 608 525 571 561 q 644 439 644 489 q 608 353 644 389 z "},"Ł":{"ha":792,"x_min":15,"x_max":782,"o":"m 104 0 l 104 268 l 15 199 l 15 431 l 104 497 l 104 972 l 315 972 l 315 654 l 528 815 l 528 586 l 315 426 l 315 204 l 782 204 l 782 0 l 104 0 z "},"ł":{"ha":424,"x_min":36,"x_max":388,"o":"m 108 0 l 108 268 l 36 213 l 36 417 l 108 472 l 108 908 l 310 1003 l 310 625 l 388 682 l 388 478 l 310 421 l 310 0 l 108 0 z "},"Ń":{"ha":1004,"x_min":104,"x_max":901,"o":"m 382 1064 l 579 1281 l 819 1281 l 572 1064 l 382 1064 m 901 0 l 717 0 l 350 515 q 308 589 336 533 q 313 515 313 565 l 313 0 l 104 0 l 104 972 l 297 972 l 654 463 q 694 390 681 425 q 690 464 690 419 l 690 972 l 901 972 l 901 0 z "},"ń":{"ha":842,"x_min":104,"x_max":744,"o":"m 235 800 l 432 1017 l 672 1017 l 425 800 l 235 800 m 543 0 l 543 369 q 517 494 543 456 q 431 532 492 532 q 335 493 365 532 q 306 372 306 454 l 306 0 l 104 0 l 104 710 l 306 710 l 306 644 q 499 726 374 726 q 671 664 597 726 q 744 461 744 601 l 744 0 l 543 0 z "},"Ņ":{"ha":1004,"x_min":104,"x_max":901,"o":"m 901 0 l 717 0 l 350 515 q 308 589 336 533 q 313 515 313 565 l 313 0 l 104 0 l 104 972 l 297 972 l 654 463 q 694 390 681 425 q 690 464 690 419 l 690 972 l 901 972 l 901 0 m 407 -358 q 476 -253 463 -300 q 413 -223 440 -250 q 386 -151 386 -196 q 418 -73 386 -104 q 500 -42 450 -42 q 581 -73 550 -42 q 611 -162 611 -104 q 478 -404 611 -293 l 407 -358 z "},"ņ":{"ha":842,"x_min":104,"x_max":744,"o":"m 543 0 l 543 369 q 517 494 543 456 q 431 532 492 532 q 335 493 365 532 q 306 372 306 454 l 306 0 l 104 0 l 104 710 l 306 710 l 306 644 q 499 726 374 726 q 671 664 597 726 q 744 461 744 601 l 744 0 l 543 0 m 328 -358 q 397 -253 383 -300 q 334 -223 361 -250 q 307 -151 307 -196 q 339 -73 307 -104 q 421 -42 371 -42 q 501 -73 471 -42 q 532 -162 532 -104 q 399 -404 532 -293 l 328 -358 z "},"Ň":{"ha":1004,"x_min":104,"x_max":901,"o":"m 608 1063 l 419 1063 l 224 1279 l 406 1279 l 515 1192 l 624 1279 l 806 1279 l 608 1063 m 901 0 l 717 0 l 350 515 q 308 589 336 533 q 313 515 313 565 l 313 0 l 104 0 l 104 972 l 297 972 l 654 463 q 694 390 681 425 q 690 464 690 419 l 690 972 l 901 972 l 901 0 z "},"ň":{"ha":842,"x_min":104,"x_max":744,"o":"m 524 800 l 335 800 l 139 1017 l 321 1017 l 431 929 l 539 1017 l 721 1017 l 524 800 m 543 0 l 543 369 q 517 494 543 456 q 431 532 492 532 q 335 493 365 532 q 306 372 306 454 l 306 0 l 104 0 l 104 710 l 306 710 l 306 644 q 499 726 374 726 q 671 664 597 726 q 744 461 744 601 l 744 0 l 543 0 z "},"ŉ":{"ha":1131,"x_min":44,"x_max":1033,"o":"m 44 636 q 94 690 64 653 q 138 754 124 728 q 67 868 67 789 q 103 955 67 921 q 192 989 140 989 q 279 952 244 989 q 314 851 314 915 q 260 693 314 775 q 133 567 206 611 l 44 636 m 833 0 l 833 369 q 808 494 833 456 q 719 532 782 532 q 624 493 654 532 q 594 372 594 454 l 594 0 l 394 0 l 394 710 l 594 710 l 594 644 q 789 726 665 726 q 960 664 886 726 q 1033 461 1033 601 l 1033 0 l 833 0 z "},"Ŋ":{"ha":1004,"x_min":104,"x_max":901,"o":"m 592 -339 l 486 -171 q 651 -115 606 -146 q 696 -29 696 -85 l 696 32 l 351 513 q 327 555 344 524 q 308 589 310 586 q 313 515 313 574 l 313 0 l 104 0 l 104 972 l 297 972 l 654 463 q 694 390 681 425 q 692 426 694 396 q 690 464 690 456 l 690 972 l 901 972 l 901 10 q 831 -222 901 -144 q 592 -339 754 -304 z "},"ŋ":{"ha":842,"x_min":104,"x_max":744,"o":"m 446 -339 l 342 -176 q 499 -122 456 -150 q 543 -42 543 -93 l 543 369 q 517 494 543 456 q 431 532 492 532 q 335 493 365 532 q 306 372 306 454 l 306 0 l 104 0 l 104 710 l 306 710 l 306 644 q 499 726 374 726 q 671 664 597 726 q 744 461 744 601 l 744 0 q 674 -225 744 -151 q 446 -339 600 -303 z "},"Ō":{"ha":1000,"x_min":69,"x_max":932,"o":"m 272 1071 l 272 1233 l 731 1233 l 731 1071 l 272 1071 m 501 -17 q 335 13 410 -17 q 213 91 261 42 q 131 206 164 140 q 84 341 99 271 q 69 486 69 411 q 84 631 69 561 q 131 767 99 701 q 213 881 164 832 q 335 960 261 931 q 501 989 410 989 q 700 945 614 989 q 835 827 786 901 q 908 667 883 753 q 932 486 932 581 q 908 306 932 392 q 835 145 883 219 q 700 27 786 71 q 501 -17 614 -17 m 501 188 q 624 237 574 188 q 693 351 674 286 q 713 486 713 415 q 694 626 713 561 q 626 738 676 690 q 501 786 576 786 q 376 737 426 786 q 307 623 325 688 q 289 486 289 558 q 300 382 289 432 q 335 287 311 332 q 401 215 358 242 q 501 188 444 188 z "},"ō":{"ha":794,"x_min":69,"x_max":725,"o":"m 168 808 l 168 971 l 626 971 l 626 808 l 168 808 m 399 -17 q 158 82 246 -17 q 69 354 69 181 q 158 626 69 526 q 399 726 247 726 q 637 626 549 726 q 725 354 725 526 q 638 82 725 181 q 399 -17 550 -17 m 399 178 q 491 224 458 178 q 524 354 524 271 q 491 485 524 438 q 399 532 458 532 q 306 485 340 532 q 271 354 271 438 q 306 224 271 271 q 399 178 340 178 z "},"Ŏ":{"ha":1000,"x_min":69,"x_max":932,"o":"m 702 1122 q 668 1088 702 1122 q 501 1054 633 1054 q 301 1122 369 1054 q 233 1293 233 1190 l 382 1293 q 411 1223 382 1253 q 501 1193 440 1193 q 592 1224 563 1193 q 622 1293 622 1254 l 771 1293 q 702 1122 771 1190 m 501 -17 q 335 13 410 -17 q 213 91 261 42 q 131 206 164 140 q 84 341 99 271 q 69 486 69 411 q 84 631 69 561 q 131 767 99 701 q 213 881 164 832 q 335 960 261 931 q 501 989 410 989 q 700 945 614 989 q 835 827 786 901 q 908 667 883 753 q 932 486 932 581 q 908 306 932 392 q 835 145 883 219 q 700 27 786 71 q 501 -17 614 -17 m 501 188 q 624 237 574 188 q 693 351 674 286 q 713 486 713 415 q 694 626 713 561 q 626 738 676 690 q 501 786 576 786 q 376 737 426 786 q 307 623 325 688 q 289 486 289 558 q 300 382 289 432 q 335 287 311 332 q 401 215 358 242 q 501 188 444 188 z "},"ŏ":{"ha":794,"x_min":69,"x_max":725,"o":"m 598 860 q 564 826 598 860 q 397 792 529 792 q 197 860 265 792 q 129 1031 129 928 l 278 1031 q 307 960 278 990 q 397 931 336 931 q 488 961 458 931 q 518 1031 518 992 l 667 1031 q 598 860 667 928 m 399 -17 q 158 82 246 -17 q 69 354 69 181 q 158 626 69 526 q 399 726 247 726 q 637 626 549 726 q 725 354 725 526 q 638 82 725 181 q 399 -17 550 -17 m 399 178 q 491 224 458 178 q 524 354 524 271 q 491 485 524 438 q 399 532 458 532 q 306 485 340 532 q 271 354 271 438 q 306 224 271 271 q 399 178 340 178 z "},"Ő":{"ha":1000,"x_min":69,"x_max":1067,"o":"m 506 1063 l 315 1063 l 513 1279 l 753 1279 l 506 1063 m 819 1063 l 628 1063 l 825 1279 l 1067 1279 l 819 1063 m 501 -17 q 335 13 410 -17 q 213 91 261 42 q 131 206 164 140 q 84 341 99 271 q 69 486 69 411 q 84 631 69 561 q 131 767 99 701 q 213 881 164 832 q 335 960 261 931 q 501 989 410 989 q 700 945 614 989 q 835 827 786 901 q 908 667 883 753 q 932 486 932 581 q 908 306 932 392 q 835 145 883 219 q 700 27 786 71 q 501 -17 614 -17 m 501 188 q 624 237 574 188 q 693 351 674 286 q 713 486 713 415 q 694 626 713 561 q 626 738 676 690 q 501 786 576 786 q 376 737 426 786 q 307 623 325 688 q 289 486 289 558 q 300 382 289 432 q 335 287 311 332 q 401 215 358 242 q 501 188 444 188 z "},"ő":{"ha":794,"x_min":69,"x_max":965,"o":"m 404 800 l 214 800 l 411 1017 l 651 1017 l 404 800 m 718 800 l 526 800 l 724 1017 l 965 1017 l 718 800 m 399 -17 q 158 82 246 -17 q 69 354 69 181 q 158 626 69 526 q 399 726 247 726 q 637 626 549 726 q 725 354 725 526 q 638 82 725 181 q 399 -17 550 -17 m 399 178 q 491 224 458 178 q 524 354 524 271 q 491 485 524 438 q 399 532 458 532 q 306 485 340 532 q 271 354 271 438 q 306 224 271 271 q 399 178 340 178 z "},"Œ":{"ha":1422,"x_min":69,"x_max":1335,"o":"m 649 0 l 649 7 q 501 -17 576 -17 q 335 13 410 -17 q 213 91 261 42 q 131 206 164 140 q 84 341 99 271 q 69 486 69 411 q 94 671 69 583 q 169 831 119 758 q 304 946 218 903 q 501 989 390 989 q 649 965 581 989 l 649 972 l 1306 972 l 1306 772 l 861 772 l 861 601 l 1092 601 l 1092 401 l 861 401 l 861 201 l 1335 201 l 1335 0 l 649 0 m 501 188 q 649 257 593 188 l 649 719 q 501 786 589 786 q 376 737 426 786 q 307 624 325 688 q 289 486 289 560 q 300 381 289 431 q 335 286 311 331 q 401 215 358 242 q 501 188 444 188 z "},"œ":{"ha":1249,"x_min":69,"x_max":1186,"o":"m 399 -17 q 159 82 249 -17 q 69 354 69 181 q 159 626 69 525 q 399 726 249 726 q 621 640 539 726 q 729 703 661 681 q 865 726 797 726 q 1097 640 1007 726 q 1186 390 1186 554 q 1174 275 1186 347 l 724 275 q 769 190 731 219 q 865 160 808 160 q 1021 233 963 160 l 1142 113 q 865 -17 1035 -17 q 727 6 794 -17 q 621 69 660 28 q 399 -17 535 -17 m 726 449 l 990 449 q 865 551 960 551 q 726 449 749 551 m 399 178 q 491 224 458 178 q 524 354 524 271 q 491 485 524 438 q 399 532 458 532 q 306 485 340 532 q 271 354 271 438 q 306 224 271 271 q 399 178 340 178 z "},"Ŕ":{"ha":976,"x_min":104,"x_max":915,"o":"m 283 1063 l 481 1279 l 721 1279 l 474 1063 l 283 1063 m 104 0 l 104 972 l 578 972 q 831 885 753 972 q 910 658 910 797 q 863 490 910 572 q 733 375 815 408 l 915 0 l 679 0 l 503 343 l 315 343 l 315 0 l 104 0 m 315 543 l 581 543 q 690 658 690 543 q 665 740 690 707 q 581 772 639 772 l 315 772 l 315 543 z "},"ŕ":{"ha":599,"x_min":104,"x_max":604,"o":"m 167 800 l 364 1017 l 604 1017 l 357 800 l 167 800 m 104 0 l 104 710 l 306 710 l 306 646 q 356 700 319 674 q 440 726 392 726 q 581 667 524 726 l 554 483 q 428 532 496 532 q 306 385 306 532 l 306 0 l 104 0 z "},"Ŗ":{"ha":976,"x_min":104,"x_max":915,"o":"m 104 0 l 104 972 l 578 972 q 831 885 753 972 q 910 658 910 797 q 863 490 910 572 q 733 375 815 408 l 915 0 l 679 0 l 503 343 l 315 343 l 315 0 l 104 0 m 315 543 l 581 543 q 690 658 690 543 q 665 740 690 707 q 581 772 639 772 l 315 772 l 315 543 m 394 -358 q 464 -253 450 -300 q 401 -223 428 -250 q 374 -151 374 -196 q 406 -73 374 -104 q 488 -42 438 -42 q 568 -73 538 -42 q 599 -162 599 -104 q 465 -404 599 -293 l 394 -358 z "},"ŗ":{"ha":599,"x_min":89,"x_max":581,"o":"m 104 0 l 104 710 l 306 710 l 306 646 q 356 700 319 674 q 440 726 392 726 q 581 667 524 726 l 554 483 q 428 532 496 532 q 306 385 306 532 l 306 0 l 104 0 m 110 -365 q 179 -260 165 -307 q 116 -230 143 -257 q 89 -158 89 -203 q 121 -80 89 -111 q 203 -49 153 -49 q 283 -80 253 -49 q 314 -169 314 -111 q 181 -411 314 -300 l 110 -365 z "},"Ř":{"ha":976,"x_min":104,"x_max":915,"o":"m 572 1063 l 383 1063 l 188 1279 l 369 1279 l 479 1192 l 588 1279 l 769 1279 l 572 1063 m 104 0 l 104 972 l 578 972 q 831 885 753 972 q 910 658 910 797 q 863 490 910 572 q 733 375 815 408 l 915 0 l 679 0 l 503 343 l 315 343 l 315 0 l 104 0 m 315 543 l 581 543 q 690 658 690 543 q 665 740 690 707 q 581 772 639 772 l 315 772 l 315 543 z "},"ř":{"ha":599,"x_min":71,"x_max":653,"o":"m 456 800 l 267 800 l 71 1017 l 253 1017 l 363 929 l 471 1017 l 653 1017 l 456 800 m 104 0 l 104 710 l 306 710 l 306 646 q 356 700 319 674 q 440 726 392 726 q 581 667 524 726 l 554 483 q 428 532 496 532 q 306 385 306 532 l 306 0 l 104 0 z "},"Ś":{"ha":863,"x_min":49,"x_max":801,"o":"m 281 1063 l 478 1279 l 718 1279 l 471 1063 l 281 1063 m 439 -17 q 195 59 297 -17 q 49 268 93 135 l 238 339 q 325 226 271 268 q 444 183 379 183 q 551 209 513 183 q 590 283 590 235 q 562 340 590 315 q 502 377 533 365 q 406 410 471 389 q 341 431 363 424 q 279 456 319 439 q 218 486 239 472 q 168 524 197 500 q 124 573 139 547 q 99 635 110 599 q 88 714 88 672 q 179 910 88 831 q 428 989 271 989 q 647 921 558 989 q 765 746 736 853 l 576 685 q 417 789 531 789 q 299 710 299 789 q 310 678 299 692 q 350 650 321 664 q 398 629 379 636 q 464 606 417 622 q 541 579 514 589 q 615 549 568 569 q 690 506 663 529 q 746 451 717 483 q 788 376 775 419 q 801 282 801 333 q 699 64 801 144 q 439 -17 596 -17 z "},"ś":{"ha":701,"x_min":56,"x_max":632,"o":"m 164 800 l 361 1017 l 601 1017 l 354 800 l 164 800 m 347 -17 q 179 20 260 -17 q 56 118 99 57 l 185 228 q 260 174 214 199 q 353 149 306 149 q 451 204 451 149 q 426 245 451 229 q 331 288 400 261 q 139 383 199 332 q 79 525 79 433 q 155 672 79 618 q 343 726 231 726 q 610 608 504 726 l 479 501 q 343 561 414 561 q 260 515 260 561 q 399 438 260 472 q 481 406 449 421 q 553 365 514 392 q 612 297 592 338 q 632 204 632 257 q 555 42 632 100 q 347 -17 478 -17 z "},"Ŝ":{"ha":863,"x_min":49,"x_max":801,"o":"m 538 1063 l 429 1151 l 319 1063 l 138 1063 l 335 1279 l 524 1279 l 719 1063 l 538 1063 m 439 -17 q 195 59 297 -17 q 49 268 93 135 l 238 339 q 325 226 271 268 q 444 183 379 183 q 551 209 513 183 q 590 283 590 235 q 562 340 590 315 q 502 377 533 365 q 406 410 471 389 q 341 431 363 424 q 279 456 319 439 q 218 486 239 472 q 168 524 197 500 q 124 573 139 547 q 99 635 110 599 q 88 714 88 672 q 179 910 88 831 q 428 989 271 989 q 647 921 558 989 q 765 746 736 853 l 576 685 q 417 789 531 789 q 299 710 299 789 q 310 678 299 692 q 350 650 321 664 q 398 629 379 636 q 464 606 417 622 q 541 579 514 589 q 615 549 568 569 q 690 506 663 529 q 746 451 717 483 q 788 376 775 419 q 801 282 801 333 q 699 64 801 144 q 439 -17 596 -17 z "},"ŝ":{"ha":701,"x_min":54,"x_max":636,"o":"m 454 800 l 346 889 l 236 800 l 54 800 l 251 1017 l 440 1017 l 636 800 l 454 800 m 347 -17 q 179 20 260 -17 q 56 118 99 57 l 185 228 q 260 174 214 199 q 353 149 306 149 q 451 204 451 149 q 426 245 451 229 q 331 288 400 261 q 139 383 199 332 q 79 525 79 433 q 155 672 79 618 q 343 726 231 726 q 610 608 504 726 l 479 501 q 343 561 414 561 q 260 515 260 561 q 399 438 260 472 q 481 406 449 421 q 553 365 514 392 q 612 297 592 338 q 632 204 632 257 q 555 42 632 100 q 347 -17 478 -17 z "},"Ş":{"ha":863,"x_min":49,"x_max":801,"o":"m 432 -343 q 272 -271 321 -343 l 354 -208 q 411 -237 374 -237 q 478 -187 478 -237 q 413 -136 478 -136 q 350 -160 386 -136 l 308 -107 l 385 -12 q 176 74 265 0 q 49 268 86 149 l 238 339 q 325 226 271 268 q 444 183 379 183 q 551 209 513 183 q 590 283 590 235 q 562 340 590 315 q 502 377 533 365 q 406 410 471 389 q 341 431 363 424 q 279 456 319 439 q 218 486 239 472 q 168 524 197 500 q 124 573 139 547 q 99 635 110 599 q 88 714 88 672 q 179 910 88 831 q 428 989 271 989 q 647 921 558 989 q 765 746 736 853 l 576 685 q 417 789 531 789 q 299 710 299 789 q 310 678 299 692 q 350 650 321 664 q 398 629 379 636 q 464 606 417 622 q 541 579 514 589 q 615 549 568 569 q 690 506 663 529 q 746 451 717 483 q 788 376 775 419 q 801 282 801 333 q 718 81 801 157 q 499 -11 635 4 l 469 -61 q 589 -96 549 -61 q 629 -189 629 -131 q 578 -301 629 -258 q 432 -343 526 -343 z "},"ş":{"ha":701,"x_min":56,"x_max":632,"o":"m 333 -343 q 172 -271 221 -343 l 254 -208 q 313 -237 274 -237 q 378 -187 378 -237 q 314 -136 378 -136 q 251 -160 285 -136 l 208 -107 l 288 -11 q 151 35 214 3 q 56 118 89 68 l 185 228 q 260 174 214 199 q 353 149 306 149 q 451 204 451 149 q 433 242 451 226 q 360 276 414 257 q 144 379 208 324 q 79 525 79 435 q 155 672 79 618 q 343 726 231 726 q 610 608 504 726 l 479 501 q 343 561 414 561 q 260 515 260 561 q 294 476 260 496 q 378 446 328 457 q 565 355 499 408 q 632 204 632 301 q 571 56 632 110 q 400 -12 510 1 l 369 -61 q 489 -96 449 -61 q 529 -189 529 -131 q 478 -301 529 -258 q 333 -343 426 -343 z "},"Š":{"ha":863,"x_min":49,"x_max":801,"o":"m 522 1063 l 333 1063 l 138 1279 l 319 1279 l 429 1192 l 538 1279 l 719 1279 l 522 1063 m 439 -17 q 195 59 297 -17 q 49 268 93 135 l 238 339 q 325 226 271 268 q 444 183 379 183 q 551 209 513 183 q 590 283 590 235 q 562 340 590 315 q 502 377 533 365 q 406 410 471 389 q 341 431 363 424 q 279 456 319 439 q 218 486 239 472 q 168 524 197 500 q 124 573 139 547 q 99 635 110 599 q 88 714 88 672 q 179 910 88 831 q 428 989 271 989 q 647 921 558 989 q 765 746 736 853 l 576 685 q 417 789 531 789 q 299 710 299 789 q 310 678 299 692 q 350 650 321 664 q 398 629 379 636 q 464 606 417 622 q 541 579 514 589 q 615 549 568 569 q 690 506 663 529 q 746 451 717 483 q 788 376 775 419 q 801 282 801 333 q 699 64 801 144 q 439 -17 596 -17 z "},"š":{"ha":701,"x_min":54,"x_max":636,"o":"m 439 800 l 250 800 l 54 1017 l 236 1017 l 346 929 l 454 1017 l 636 1017 l 439 800 m 347 -17 q 179 20 260 -17 q 56 118 99 57 l 185 228 q 260 174 214 199 q 353 149 306 149 q 451 204 451 149 q 426 245 451 229 q 331 288 400 261 q 139 383 199 332 q 79 525 79 433 q 155 672 79 618 q 343 726 231 726 q 610 608 504 726 l 479 501 q 343 561 414 561 q 260 515 260 561 q 399 438 260 472 q 481 406 449 421 q 553 365 514 392 q 612 297 592 338 q 632 204 632 257 q 555 42 632 100 q 347 -17 478 -17 z "},"Ţ":{"ha":851,"x_min":42,"x_max":811,"o":"m 410 -343 q 250 -271 299 -343 l 332 -208 q 390 -237 351 -237 q 456 -187 456 -237 q 390 -136 456 -136 q 329 -160 363 -136 l 286 -107 l 375 0 l 321 0 l 321 769 l 42 769 l 42 972 l 811 972 l 811 769 l 532 769 l 532 0 l 483 0 l 449 -61 q 567 -96 528 -61 q 607 -189 607 -131 q 556 -301 607 -258 q 410 -343 504 -343 z "},"ţ":{"ha":557,"x_min":42,"x_max":504,"o":"m 308 -343 q 147 -271 196 -343 l 229 -208 q 288 -237 249 -237 q 353 -187 353 -237 q 289 -136 353 -136 q 226 -160 260 -136 l 183 -107 l 263 -12 q 139 178 139 13 l 139 533 l 42 533 l 42 710 l 139 710 l 139 907 l 339 1003 l 339 710 l 493 710 l 493 533 l 339 533 l 339 197 q 351 167 339 178 q 379 157 363 157 q 501 185 440 157 l 479 15 q 400 -11 442 -3 q 375 -14 389 -14 l 346 -61 q 465 -96 425 -61 q 504 -189 504 -131 q 453 -301 504 -258 q 308 -343 401 -343 z "},"Ť":{"ha":851,"x_min":42,"x_max":811,"o":"m 521 1063 l 332 1063 l 136 1279 l 318 1279 l 428 1192 l 536 1279 l 718 1279 l 521 1063 m 532 769 l 532 0 l 321 0 l 321 769 l 42 769 l 42 972 l 811 972 l 811 769 l 532 769 z "},"ť":{"ha":686,"x_min":42,"x_max":651,"o":"m 651 1167 l 651 1156 q 489 797 651 947 l 424 847 q 456 974 443 885 q 468 1167 468 1064 l 651 1167 m 318 -17 q 139 178 139 -17 l 139 533 l 42 533 l 42 710 l 139 710 l 139 907 l 339 1003 l 339 710 l 493 710 l 493 533 l 339 533 l 339 197 q 351 167 339 178 q 379 157 363 157 q 501 185 440 157 l 479 15 q 318 -17 414 -17 z "},"Ŧ":{"ha":860,"x_min":42,"x_max":819,"o":"m 819 769 l 536 769 l 536 542 l 690 542 l 690 347 l 536 347 l 536 0 l 325 0 l 325 347 l 171 347 l 171 542 l 325 542 l 325 769 l 42 769 l 42 972 l 819 972 l 819 769 z "},"ŧ":{"ha":571,"x_min":49,"x_max":508,"o":"m 325 -17 q 146 178 146 -17 l 146 256 l 49 256 l 49 432 l 146 432 l 146 533 l 49 533 l 49 710 l 146 710 l 146 907 l 346 1003 l 346 710 l 500 710 l 500 533 l 346 533 l 346 432 l 500 432 l 500 256 l 346 256 l 346 197 q 358 167 346 178 q 386 157 369 157 q 508 185 440 157 l 486 15 q 325 -17 421 -17 z "},"Ũ":{"ha":1006,"x_min":97,"x_max":908,"o":"m 613 1069 q 487 1101 560 1069 q 383 1132 414 1132 q 318 1075 318 1132 l 225 1075 q 393 1272 225 1272 q 519 1242 447 1272 q 622 1211 590 1211 q 688 1267 688 1211 l 779 1267 q 613 1069 779 1069 m 503 -17 q 356 3 425 -17 q 228 67 288 24 q 133 190 168 111 q 97 375 97 269 l 97 972 l 308 972 l 308 375 q 355 229 308 271 q 503 188 401 188 q 649 230 601 188 q 697 375 697 272 l 697 972 l 908 972 l 908 375 q 874 192 908 271 q 780 69 839 114 q 651 4 721 25 q 503 -17 582 -17 z "},"ũ":{"ha":842,"x_min":97,"x_max":738,"o":"m 519 807 q 394 838 467 807 q 290 869 321 869 q 225 813 225 869 l 132 813 q 300 1010 132 1010 q 426 979 354 1010 q 529 949 497 949 q 594 1004 594 949 l 686 1004 q 519 807 686 807 m 536 0 l 536 65 q 342 -17 469 -17 q 258 -3 299 -17 q 181 39 218 10 q 120 122 143 68 q 97 249 97 176 l 97 710 l 299 710 l 299 340 q 324 217 299 256 q 413 178 349 178 q 506 217 476 178 q 536 338 536 256 l 536 710 l 738 710 l 738 0 l 536 0 z "},"Ū":{"ha":1006,"x_min":97,"x_max":908,"o":"m 274 1071 l 274 1233 l 732 1233 l 732 1071 l 274 1071 m 503 -17 q 356 3 425 -17 q 228 67 288 24 q 133 190 168 111 q 97 375 97 269 l 97 972 l 308 972 l 308 375 q 355 229 308 271 q 503 188 401 188 q 649 230 601 188 q 697 375 697 272 l 697 972 l 908 972 l 908 375 q 874 192 908 271 q 780 69 839 114 q 651 4 721 25 q 503 -17 582 -17 z "},"ū":{"ha":842,"x_min":97,"x_max":738,"o":"m 181 808 l 181 971 l 639 971 l 639 808 l 181 808 m 536 0 l 536 65 q 342 -17 469 -17 q 258 -3 299 -17 q 181 39 218 10 q 120 122 143 68 q 97 249 97 176 l 97 710 l 299 710 l 299 340 q 324 217 299 256 q 413 178 349 178 q 506 217 476 178 q 536 338 536 256 l 536 710 l 738 710 l 738 0 l 536 0 z "},"Ŭ":{"ha":1006,"x_min":97,"x_max":908,"o":"m 703 1122 q 669 1088 703 1122 q 503 1054 635 1054 q 303 1122 371 1054 q 235 1293 235 1190 l 383 1293 q 413 1223 383 1253 q 503 1193 442 1193 q 594 1224 564 1193 q 624 1293 624 1254 l 772 1293 q 703 1122 772 1190 m 503 -17 q 356 3 425 -17 q 228 67 288 24 q 133 190 168 111 q 97 375 97 269 l 97 972 l 308 972 l 308 375 q 355 229 308 271 q 503 188 401 188 q 649 230 601 188 q 697 375 697 272 l 697 972 l 908 972 l 908 375 q 874 192 908 271 q 780 69 839 114 q 651 4 721 25 q 503 -17 582 -17 z "},"ŭ":{"ha":842,"x_min":97,"x_max":738,"o":"m 610 860 q 576 826 610 860 q 410 792 542 792 q 210 860 278 792 q 142 1031 142 928 l 290 1031 q 319 960 290 990 q 410 931 349 931 q 501 961 471 931 q 531 1031 531 992 l 679 1031 q 610 860 679 928 m 536 0 l 536 65 q 342 -17 469 -17 q 258 -3 299 -17 q 181 39 218 10 q 120 122 143 68 q 97 249 97 176 l 97 710 l 299 710 l 299 340 q 324 217 299 256 q 413 178 349 178 q 506 217 476 178 q 536 338 536 256 l 536 710 l 738 710 l 738 0 l 536 0 z "},"Ů":{"ha":1006,"x_min":97,"x_max":908,"o":"m 635 1040 q 608 1013 635 1040 q 503 986 581 986 q 371 1040 425 986 q 317 1171 317 1094 q 371 1301 317 1249 q 503 1354 425 1354 q 635 1301 581 1354 q 689 1171 689 1249 q 635 1040 689 1094 m 503 1121 q 536 1135 521 1121 q 551 1171 551 1150 q 536 1206 551 1192 q 503 1221 521 1221 q 467 1207 481 1221 q 453 1171 453 1193 q 467 1135 453 1149 q 503 1121 481 1121 m 503 -17 q 356 3 425 -17 q 228 67 288 24 q 133 190 168 111 q 97 375 97 269 l 97 972 l 308 972 l 308 375 q 355 229 308 271 q 503 188 401 188 q 649 230 601 188 q 697 375 697 272 l 697 972 l 908 972 l 908 375 q 874 192 908 271 q 780 69 839 114 q 651 4 721 25 q 503 -17 582 -17 z "},"ů":{"ha":842,"x_min":97,"x_max":738,"o":"m 543 778 q 516 751 543 778 q 411 724 489 724 q 279 778 333 724 q 225 908 225 832 q 279 1039 225 986 q 411 1092 333 1092 q 543 1039 489 1092 q 597 908 597 986 q 543 778 597 832 m 411 858 q 444 873 429 858 q 460 908 460 888 q 444 944 460 929 q 411 958 429 958 q 375 944 389 958 q 361 908 361 931 q 375 872 361 886 q 411 858 389 858 m 536 0 l 536 65 q 342 -17 469 -17 q 258 -3 299 -17 q 181 39 218 10 q 120 122 143 68 q 97 249 97 176 l 97 710 l 299 710 l 299 340 q 324 217 299 256 q 413 178 349 178 q 506 217 476 178 q 536 338 536 256 l 536 710 l 738 710 l 738 0 l 536 0 z "},"Ű":{"ha":1006,"x_min":97,"x_max":953,"o":"m 392 1063 l 201 1063 l 399 1279 l 639 1279 l 392 1063 m 706 1063 l 514 1063 l 711 1279 l 953 1279 l 706 1063 m 503 -17 q 356 3 425 -17 q 228 67 288 24 q 133 190 168 111 q 97 375 97 269 l 97 972 l 308 972 l 308 375 q 355 229 308 271 q 503 188 401 188 q 649 230 601 188 q 697 375 697 272 l 697 972 l 908 972 l 908 375 q 874 192 908 271 q 780 69 839 114 q 651 4 721 25 q 503 -17 582 -17 z "},"ű":{"ha":842,"x_min":97,"x_max":860,"o":"m 299 800 l 108 800 l 306 1017 l 546 1017 l 299 800 m 613 800 l 421 800 l 618 1017 l 860 1017 l 613 800 m 536 0 l 536 65 q 342 -17 469 -17 q 258 -3 299 -17 q 181 39 218 10 q 120 122 143 68 q 97 249 97 176 l 97 710 l 299 710 l 299 340 q 324 217 299 256 q 413 178 349 178 q 506 217 476 178 q 536 338 536 256 l 536 710 l 738 710 l 738 0 l 536 0 z "},"Ų":{"ha":1006,"x_min":97,"x_max":908,"o":"m 526 -343 q 398 -300 446 -343 q 350 -189 350 -257 q 469 -17 350 -89 l 463 -17 q 202 89 307 -7 q 97 375 97 185 l 97 972 l 308 972 l 308 375 q 355 229 308 271 q 503 188 401 188 q 649 230 601 188 q 697 375 697 272 l 697 972 l 908 972 l 908 375 q 657 1 908 94 q 549 -76 585 -24 q 514 -172 514 -128 q 557 -228 514 -228 q 610 -201 590 -228 l 700 -265 q 526 -343 633 -343 z "},"ų":{"ha":842,"x_min":97,"x_max":739,"o":"m 564 -343 q 436 -300 483 -343 q 389 -189 389 -257 q 536 0 389 -71 l 536 65 q 342 -17 469 -17 q 258 -3 299 -17 q 181 39 218 10 q 120 122 143 68 q 97 249 97 176 l 97 710 l 299 710 l 299 340 q 324 217 299 256 q 413 178 349 178 q 506 217 476 178 q 536 338 536 256 l 536 710 l 738 710 l 738 0 q 598 -76 644 -26 q 551 -172 551 -125 q 594 -228 551 -228 q 647 -201 628 -228 l 739 -265 q 564 -343 665 -343 z "},"Ŵ":{"ha":1185,"x_min":42,"x_max":1143,"o":"m 700 1063 l 592 1151 l 482 1063 l 300 1063 l 497 1279 l 686 1279 l 882 1063 l 700 1063 m 250 0 l 42 972 l 260 972 l 361 454 q 365 428 364 444 q 368 406 367 411 q 371 429 369 413 q 375 457 372 446 l 499 972 l 683 972 l 808 456 q 814 425 811 443 q 817 403 817 407 q 819 418 818 408 q 822 436 821 428 q 825 453 824 444 l 925 972 l 1143 972 l 933 0 l 733 0 l 597 540 q 589 594 594 553 q 581 542 583 547 l 450 0 l 250 0 z "},"ŵ":{"ha":1063,"x_min":49,"x_max":1014,"o":"m 642 800 l 533 889 l 424 800 l 242 800 l 439 1017 l 628 1017 l 824 800 l 642 800 m 253 0 l 49 710 l 247 710 l 321 418 q 331 368 324 407 q 342 314 338 329 q 353 364 344 324 q 365 418 361 404 l 440 710 l 621 710 l 694 418 q 706 368 697 407 q 718 314 714 329 q 727 366 721 326 q 738 418 733 406 l 815 710 l 1014 710 l 808 0 l 631 0 l 556 322 q 545 371 556 326 q 532 438 535 415 q 524 397 529 421 q 513 350 518 372 q 506 322 507 328 l 431 0 l 253 0 z "},"Ŷ":{"ha":982,"x_min":17,"x_max":965,"o":"m 600 1063 l 492 1151 l 382 1063 l 200 1063 l 397 1279 l 586 1279 l 782 1063 l 600 1063 m 386 0 l 386 378 l 17 972 l 256 972 l 492 603 l 726 972 l 965 972 l 596 378 l 596 0 l 386 0 z "},"ŷ":{"ha":817,"x_min":35,"x_max":782,"o":"m 518 800 l 410 889 l 300 800 l 118 800 l 315 1017 l 504 1017 l 700 800 l 518 800 m 196 -269 l 303 8 l 35 710 l 243 710 l 388 331 q 410 264 403 289 q 432 331 417 289 l 575 710 l 782 710 l 404 -269 l 196 -269 z "},"Ÿ":{"ha":982,"x_min":17,"x_max":965,"o":"m 434 1093 q 418 1078 434 1093 q 356 1063 403 1063 q 278 1092 308 1063 q 247 1171 247 1122 q 278 1249 247 1218 q 356 1281 308 1281 q 434 1249 403 1281 q 465 1171 465 1218 q 434 1093 465 1124 m 628 1063 q 549 1093 579 1063 q 518 1171 518 1124 q 549 1249 518 1218 q 628 1281 581 1281 q 705 1249 674 1281 q 736 1171 736 1218 q 705 1093 736 1124 q 628 1063 674 1063 m 386 0 l 386 378 l 17 972 l 256 972 l 492 603 l 726 972 l 965 972 l 596 378 l 596 0 l 386 0 z "},"Ź":{"ha":882,"x_min":56,"x_max":814,"o":"m 271 1063 l 468 1279 l 708 1279 l 461 1063 l 271 1063 m 56 0 l 56 158 l 533 772 l 85 772 l 85 972 l 814 972 l 814 815 l 331 200 l 814 200 l 814 0 l 56 0 z "},"ź":{"ha":782,"x_min":76,"x_max":699,"o":"m 213 800 l 410 1017 l 650 1017 l 403 800 l 213 800 m 76 0 l 76 156 l 438 531 l 101 531 l 101 710 l 699 710 l 699 558 l 339 181 l 697 181 l 697 0 l 76 0 z "},"Ż":{"ha":882,"x_min":56,"x_max":814,"o":"m 443 1063 q 364 1093 394 1063 q 333 1171 333 1124 q 365 1249 333 1218 q 443 1281 396 1281 q 520 1249 489 1281 q 551 1171 551 1218 q 520 1093 551 1124 q 443 1063 489 1063 m 56 0 l 56 158 l 533 772 l 85 772 l 85 972 l 814 972 l 814 815 l 331 200 l 814 200 l 814 0 l 56 0 z "},"ż":{"ha":782,"x_min":76,"x_max":699,"o":"m 408 800 q 329 831 360 800 q 299 908 299 861 q 330 987 299 956 q 408 1018 361 1018 q 485 987 454 1018 q 517 908 517 956 q 485 831 517 861 q 408 800 454 800 m 76 0 l 76 156 l 438 531 l 101 531 l 101 710 l 699 710 l 699 558 l 339 181 l 697 181 l 697 0 l 76 0 z "},"Ž":{"ha":882,"x_min":56,"x_max":814,"o":"m 560 1063 l 371 1063 l 175 1279 l 357 1279 l 467 1192 l 575 1279 l 757 1279 l 560 1063 m 56 0 l 56 158 l 533 772 l 85 772 l 85 972 l 814 972 l 814 815 l 331 200 l 814 200 l 814 0 l 56 0 z "},"ž":{"ha":782,"x_min":76,"x_max":699,"o":"m 501 800 l 313 800 l 117 1017 l 299 1017 l 408 929 l 517 1017 l 699 1017 l 501 800 m 76 0 l 76 156 l 438 531 l 101 531 l 101 710 l 699 710 l 699 558 l 339 181 l 697 181 l 697 0 l 76 0 z "},"ſ":{"ha":468,"x_min":111,"x_max":461,"o":"m 111 0 l 111 815 q 293 989 111 989 q 461 953 394 989 l 461 790 q 360 814 401 814 q 313 774 313 814 l 313 0 l 111 0 z "},"ƒ":{"ha":553,"x_min":-24,"x_max":525,"o":"m 78 -339 l -24 -181 q 133 -128 92 -153 q 175 -54 175 -104 l 175 529 l 81 529 l 81 710 l 175 710 l 175 815 q 357 989 175 989 q 525 953 458 989 l 525 789 q 424 814 467 814 q 376 774 376 814 l 376 710 l 525 710 l 525 529 l 376 529 l 376 -7 q 303 -228 376 -151 q 78 -339 229 -304 z "},"Ǎ":{"ha":1024,"x_min":26,"x_max":997,"o":"m 606 1063 l 417 1063 l 221 1279 l 403 1279 l 513 1192 l 621 1279 l 803 1279 l 606 1063 m 767 0 l 694 189 l 329 189 l 257 0 l 26 0 l 410 972 l 613 972 l 997 0 l 767 0 m 624 383 l 540 593 q 511 675 521 640 q 482 593 506 651 l 399 383 l 624 383 z "},"ǎ":{"ha":796,"x_min":63,"x_max":706,"o":"m 500 800 l 311 800 l 115 1017 l 297 1017 l 407 929 l 515 1017 l 697 1017 l 500 800 m 506 0 l 506 53 q 329 -17 442 -17 q 137 44 211 -17 q 63 217 63 104 q 149 385 63 326 q 350 444 235 444 q 506 419 450 444 l 506 458 q 475 533 506 507 q 390 558 444 558 q 163 483 275 558 l 100 638 q 404 726 231 726 q 706 449 706 726 l 706 0 l 506 0 m 368 153 q 506 203 443 153 l 506 267 q 385 283 450 283 q 260 215 260 283 q 368 153 260 153 z "},"Ǐ":{"ha":432,"x_min":-74,"x_max":508,"o":"m 311 1063 l 122 1063 l -74 1279 l 108 1279 l 218 1192 l 326 1279 l 508 1279 l 311 1063 m 111 0 l 111 972 l 322 972 l 322 0 l 111 0 z "},"ǐ":{"ha":413,"x_min":-85,"x_max":497,"o":"m 300 800 l 111 800 l -85 1017 l 97 1017 l 207 929 l 315 1017 l 497 1017 l 300 800 m 106 0 l 106 710 l 307 710 l 307 0 l 106 0 z "},"Ǒ":{"ha":1000,"x_min":69,"x_max":932,"o":"m 594 1063 l 406 1063 l 210 1279 l 392 1279 l 501 1192 l 610 1279 l 792 1279 l 594 1063 m 501 -17 q 335 13 410 -17 q 213 91 261 42 q 131 206 164 140 q 84 341 99 271 q 69 486 69 411 q 84 631 69 561 q 131 767 99 701 q 213 881 164 832 q 335 960 261 931 q 501 989 410 989 q 700 945 614 989 q 835 827 786 901 q 908 667 883 753 q 932 486 932 581 q 908 306 932 392 q 835 145 883 219 q 700 27 786 71 q 501 -17 614 -17 m 501 188 q 624 237 574 188 q 693 351 674 286 q 713 486 713 415 q 694 626 713 561 q 626 738 676 690 q 501 786 576 786 q 376 737 426 786 q 307 623 325 688 q 289 486 289 558 q 300 382 289 432 q 335 287 311 332 q 401 215 358 242 q 501 188 444 188 z "},"ǒ":{"ha":794,"x_min":69,"x_max":725,"o":"m 490 800 l 301 800 l 106 1017 l 288 1017 l 397 929 l 506 1017 l 688 1017 l 490 800 m 399 -17 q 158 82 246 -17 q 69 354 69 181 q 158 626 69 526 q 399 726 247 726 q 637 626 549 726 q 725 354 725 526 q 638 82 725 181 q 399 -17 550 -17 m 399 178 q 491 224 458 178 q 524 354 524 271 q 491 485 524 438 q 399 532 458 532 q 306 485 340 532 q 271 354 271 438 q 306 224 271 271 q 399 178 340 178 z "},"Ǔ":{"ha":1006,"x_min":97,"x_max":908,"o":"m 596 1063 l 407 1063 l 211 1279 l 393 1279 l 503 1192 l 611 1279 l 793 1279 l 596 1063 m 503 -17 q 356 3 425 -17 q 228 67 288 24 q 133 190 168 111 q 97 375 97 269 l 97 972 l 308 972 l 308 375 q 355 229 308 271 q 503 188 401 188 q 649 230 601 188 q 697 375 697 272 l 697 972 l 908 972 l 908 375 q 874 192 908 271 q 780 69 839 114 q 651 4 721 25 q 503 -17 582 -17 z "},"ǔ":{"ha":842,"x_min":97,"x_max":738,"o":"m 503 800 l 314 800 l 118 1017 l 300 1017 l 410 929 l 518 1017 l 700 1017 l 503 800 m 536 0 l 536 65 q 342 -17 469 -17 q 258 -3 299 -17 q 181 39 218 10 q 120 122 143 68 q 97 249 97 176 l 97 710 l 299 710 l 299 340 q 324 217 299 256 q 413 178 349 178 q 506 217 476 178 q 536 338 536 256 l 536 710 l 738 710 l 738 0 l 536 0 z "},"Ǽ":{"ha":1256,"x_min":-46,"x_max":1190,"o":"m 513 1063 l 710 1279 l 950 1279 l 703 1063 l 513 1063 m -46 0 l 519 972 l 1163 972 l 1163 772 l 725 772 l 725 601 l 947 601 l 947 401 l 725 401 l 725 201 l 1190 201 l 1190 0 l 514 0 l 514 189 l 289 189 l 182 0 l -46 0 m 404 383 l 514 383 l 514 590 q 493 542 508 569 l 404 383 z "},"ǽ":{"ha":1188,"x_min":63,"x_max":1125,"o":"m 436 800 l 633 1017 l 874 1017 l 626 800 l 436 800 m 303 -17 q 131 44 199 -17 q 63 217 63 104 q 139 396 63 336 q 322 456 215 456 q 463 428 400 456 l 463 458 q 436 527 463 503 q 364 551 410 551 q 163 476 261 551 l 100 638 q 383 726 233 726 q 594 657 526 726 q 804 726 667 726 q 1035 640 946 726 q 1125 390 1125 554 q 1113 275 1125 338 l 663 275 q 708 190 669 219 q 804 160 747 160 q 960 233 901 160 l 1081 113 q 804 -17 974 -17 q 551 99 635 -17 q 303 -17 450 -17 m 665 446 l 929 446 q 804 551 901 551 q 665 446 685 551 m 349 160 q 463 207 418 160 l 463 267 q 364 283 418 283 q 260 217 260 283 q 283 175 260 190 q 349 160 306 160 z "},"Ǿ":{"ha":1008,"x_min":69,"x_max":939,"o":"m 310 1063 l 507 1279 l 747 1279 l 500 1063 l 310 1063 m 69 -17 l 174 142 q 72 486 72 283 q 97 667 72 581 q 170 827 121 753 q 306 945 219 901 q 504 989 392 989 q 711 942 619 989 l 743 989 l 939 989 l 835 832 q 936 486 936 690 q 922 341 936 411 q 874 206 907 271 q 793 91 842 140 q 670 13 744 42 q 504 -17 596 -17 q 297 31 388 -17 l 265 -17 l 69 -17 m 311 346 l 592 765 q 504 786 553 786 q 379 737 429 786 q 310 623 329 688 q 292 486 292 558 q 311 346 292 413 m 504 188 q 627 237 576 188 q 697 351 678 286 q 717 486 717 415 q 697 628 717 561 l 415 208 q 504 188 457 188 z "},"ǿ":{"ha":794,"x_min":69,"x_max":726,"o":"m 640 1017 l 393 800 l 203 800 l 400 1017 l 640 1017 m 726 726 l 651 608 q 725 354 725 511 q 638 82 725 181 q 399 -17 550 -17 q 265 7 325 -17 l 250 -17 l 69 -17 l 144 99 q 69 354 69 194 q 158 626 69 526 q 399 726 247 726 q 532 701 472 726 l 547 726 l 726 726 m 271 354 q 275 303 271 326 l 421 531 q 399 532 414 532 q 306 485 340 532 q 271 354 271 438 m 524 354 q 519 404 524 381 l 376 179 q 399 178 383 178 q 491 224 458 178 q 524 354 524 271 z "},"Ș":{"ha":863,"x_min":49,"x_max":801,"o":"m 439 -17 q 195 59 297 -17 q 49 268 93 135 l 238 339 q 325 226 271 268 q 444 183 379 183 q 551 209 513 183 q 590 283 590 235 q 562 340 590 315 q 502 377 533 365 q 406 410 471 389 q 341 431 363 424 q 279 456 319 439 q 218 486 239 472 q 168 524 197 500 q 124 573 139 547 q 99 635 110 599 q 88 714 88 672 q 179 910 88 831 q 428 989 271 989 q 647 921 558 989 q 765 746 736 853 l 576 685 q 417 789 531 789 q 299 710 299 789 q 310 678 299 692 q 350 650 321 664 q 398 629 379 636 q 464 606 417 622 q 541 579 514 589 q 615 549 568 569 q 690 506 663 529 q 746 451 717 483 q 788 376 775 419 q 801 282 801 333 q 699 64 801 144 q 439 -17 596 -17 m 339 -358 q 408 -253 394 -300 q 345 -223 372 -250 q 318 -151 318 -196 q 350 -73 318 -104 q 432 -42 382 -42 q 513 -73 482 -42 q 543 -162 543 -104 q 410 -404 543 -293 l 339 -358 z "},"ș":{"ha":701,"x_min":56,"x_max":632,"o":"m 347 -17 q 179 20 260 -17 q 56 118 99 57 l 185 228 q 260 174 214 199 q 353 149 306 149 q 451 204 451 149 q 426 245 451 229 q 331 288 400 261 q 139 383 199 332 q 79 525 79 433 q 155 672 79 618 q 343 726 231 726 q 610 608 504 726 l 479 501 q 343 561 414 561 q 260 515 260 561 q 399 438 260 472 q 481 406 449 421 q 553 365 514 392 q 612 297 592 338 q 632 204 632 257 q 555 42 632 100 q 347 -17 478 -17 m 253 -358 q 322 -253 308 -300 q 259 -223 286 -250 q 232 -151 232 -196 q 264 -73 232 -104 q 346 -42 296 -42 q 426 -73 396 -42 q 457 -162 457 -104 q 324 -404 457 -293 l 253 -358 z "},"Ț":{"ha":851,"x_min":42,"x_max":811,"o":"m 532 769 l 532 0 l 321 0 l 321 769 l 42 769 l 42 972 l 811 972 l 811 769 l 532 769 m 333 -358 q 403 -253 389 -300 q 340 -223 367 -250 q 313 -151 313 -196 q 344 -73 313 -104 q 426 -42 376 -42 q 507 -73 476 -42 q 538 -162 538 -104 q 404 -404 538 -293 l 333 -358 z "},"ț":{"ha":557,"x_min":42,"x_max":501,"o":"m 318 -17 q 139 178 139 -17 l 139 533 l 42 533 l 42 710 l 139 710 l 139 907 l 339 1003 l 339 710 l 493 710 l 493 533 l 339 533 l 339 197 q 351 167 339 178 q 379 157 363 157 q 501 185 440 157 l 479 15 q 318 -17 414 -17 m 215 -358 q 285 -253 271 -300 q 222 -223 249 -250 q 194 -151 194 -196 q 226 -73 194 -104 q 308 -42 258 -42 q 389 -73 358 -42 q 419 -162 419 -104 q 286 -404 419 -293 l 215 -358 z "},"ȷ":{"ha":413,"x_min":-96,"x_max":307,"o":"m 8 -297 l -96 -135 q 62 -80 18 -108 q 106 0 106 -51 l 106 710 l 307 710 l 307 42 q 236 -183 307 -110 q 8 -297 163 -261 z "},"ˆ":{"ha":718,"x_min":67,"x_max":649,"o":"m 467 800 l 358 889 l 249 800 l 67 800 l 264 1017 l 453 1017 l 649 800 l 467 800 z "},"ˇ":{"ha":718,"x_min":67,"x_max":649,"o":"m 451 800 l 263 800 l 67 1017 l 249 1017 l 358 929 l 467 1017 l 649 1017 l 451 800 z "},"ˉ":{"ha":718,"x_min":129,"x_max":588,"o":"m 129 808 l 129 971 l 588 971 l 588 808 l 129 808 z "},"˘":{"ha":718,"x_min":90,"x_max":628,"o":"m 559 860 q 525 826 559 860 q 358 792 490 792 q 158 860 226 792 q 90 1031 90 928 l 239 1031 q 268 960 239 990 q 358 931 297 931 q 449 961 419 931 q 479 1031 479 992 l 628 1031 q 559 860 628 928 z "},"˙":{"ha":718,"x_min":249,"x_max":467,"o":"m 358 800 q 279 831 310 800 q 249 908 249 861 q 280 987 249 956 q 358 1018 311 1018 q 435 987 404 1018 q 467 908 467 956 q 435 831 467 861 q 358 800 404 800 z "},"˚":{"ha":718,"x_min":172,"x_max":544,"o":"m 490 778 q 463 751 490 778 q 358 724 436 724 q 226 778 281 724 q 172 908 172 832 q 226 1039 172 986 q 358 1092 281 1092 q 490 1039 436 1092 q 544 908 544 986 q 490 778 544 832 m 358 858 q 392 873 376 858 q 407 908 407 888 q 392 944 407 929 q 358 958 376 958 q 322 944 336 958 q 308 908 308 931 q 322 872 308 886 q 358 858 336 858 z "},"˛":{"ha":718,"x_min":185,"x_max":535,"o":"m 360 -343 q 233 -300 281 -343 q 185 -189 185 -257 q 375 14 185 -49 l 513 14 q 387 -72 425 -21 q 349 -172 349 -124 q 392 -228 349 -228 q 443 -201 424 -228 l 535 -265 q 360 -343 468 -343 z "},"˜":{"ha":718,"x_min":81,"x_max":635,"o":"m 468 807 q 342 838 415 807 q 239 869 269 869 q 174 813 174 869 l 81 813 q 249 1010 81 1010 q 374 979 303 1010 q 478 949 446 949 q 543 1004 543 949 l 635 1004 q 468 807 635 807 z "},"˝":{"ha":718,"x_min":57,"x_max":808,"o":"m 247 800 l 57 800 l 254 1017 l 494 1017 l 247 800 m 561 800 l 369 800 l 567 1017 l 808 1017 l 561 800 z "},"̒":{"ha":0,"x_min":-475,"x_max":-250,"o":"m -282 831 q -298 816 -282 831 q -364 800 -314 800 q -444 831 -414 800 q -475 921 -475 863 q -342 1163 -475 1049 l -271 1117 q -340 1011 -325 1058 q -276 981 -303 1008 q -250 910 -250 954 q -282 831 -250 863 z "},"̦":{"ha":0,"x_min":-472,"x_max":-247,"o":"m -451 -358 q -382 -253 -396 -300 q -445 -223 -418 -250 q -472 -151 -472 -196 q -440 -73 -472 -104 q -358 -42 -408 -42 q -278 -73 -308 -42 q -247 -162 -247 -104 q -381 -404 -247 -293 l -451 -358 z "},"Ω":{"ha":1038,"x_min":90,"x_max":949,"o":"m 561 0 l 561 161 q 688 342 649 254 q 728 540 728 429 q 678 715 728 643 q 518 786 629 786 q 359 715 408 786 q 310 539 310 644 q 350 341 310 429 q 478 161 390 253 l 478 0 l 90 0 l 90 204 l 224 204 q 90 542 90 357 q 103 668 90 607 q 149 789 117 729 q 229 892 182 849 q 351 962 276 935 q 518 989 425 989 q 685 963 611 989 q 808 892 760 936 q 888 789 856 849 q 933 668 919 729 q 947 542 947 607 q 813 204 947 365 l 949 204 l 949 0 l 561 0 z "},"μ":{"ha":851,"x_min":108,"x_max":747,"o":"m 547 0 l 547 64 q 499 6 535 29 q 410 -17 463 -17 q 311 6 364 -17 l 311 -183 l 108 -278 l 108 710 l 308 710 l 308 340 q 335 219 308 260 q 424 178 363 178 q 517 217 488 178 q 547 338 547 256 l 547 710 l 747 710 l 747 0 l 547 0 z "},"π":{"ha":931,"x_min":21,"x_max":904,"o":"m 721 -17 q 542 178 542 -17 l 542 501 l 397 501 l 397 492 q 356 160 397 288 q 190 -36 315 33 l 21 100 q 156 223 108 150 q 204 440 204 296 l 204 501 l 88 501 l 88 710 l 889 710 l 889 501 l 742 501 l 742 200 q 753 168 742 179 q 781 157 765 157 q 904 188 835 157 l 883 15 q 721 -17 824 -17 z "},"Ẁ":{"ha":1185,"x_min":42,"x_max":1143,"o":"m 597 1063 l 350 1279 l 590 1279 l 788 1063 l 597 1063 m 250 0 l 42 972 l 260 972 l 361 454 q 365 428 364 444 q 368 406 367 411 q 371 429 369 413 q 375 457 372 446 l 499 972 l 683 972 l 808 456 q 814 425 811 443 q 817 403 817 407 q 819 418 818 408 q 822 436 821 428 q 825 453 824 444 l 925 972 l 1143 972 l 933 0 l 733 0 l 597 540 q 589 594 594 553 q 581 542 583 547 l 450 0 l 250 0 z "},"ẁ":{"ha":1063,"x_min":49,"x_max":1014,"o":"m 539 800 l 292 1017 l 532 1017 l 729 800 l 539 800 m 253 0 l 49 710 l 247 710 l 321 418 q 331 368 324 407 q 342 314 338 329 q 353 364 344 324 q 365 418 361 404 l 440 710 l 621 710 l 694 418 q 706 368 697 407 q 718 314 714 329 q 727 366 721 326 q 738 418 733 406 l 815 710 l 1014 710 l 808 0 l 631 0 l 556 322 q 545 371 556 326 q 532 438 535 415 q 524 397 529 421 q 513 350 518 372 q 506 322 507 328 l 431 0 l 253 0 z "},"Ẃ":{"ha":1185,"x_min":42,"x_max":1143,"o":"m 396 1063 l 593 1279 l 833 1279 l 586 1063 l 396 1063 m 250 0 l 42 972 l 260 972 l 361 454 q 365 428 364 444 q 368 406 367 411 q 371 429 369 413 q 375 457 372 446 l 499 972 l 683 972 l 808 456 q 814 425 811 443 q 817 403 817 407 q 819 418 818 408 q 822 436 821 428 q 825 453 824 444 l 925 972 l 1143 972 l 933 0 l 733 0 l 597 540 q 589 594 594 553 q 581 542 583 547 l 450 0 l 250 0 z "},"ẃ":{"ha":1063,"x_min":49,"x_max":1014,"o":"m 338 800 l 535 1017 l 775 1017 l 528 800 l 338 800 m 253 0 l 49 710 l 247 710 l 321 418 q 331 368 324 407 q 342 314 338 329 q 353 364 344 324 q 365 418 361 404 l 440 710 l 621 710 l 694 418 q 706 368 697 407 q 718 314 714 329 q 727 366 721 326 q 738 418 733 406 l 815 710 l 1014 710 l 808 0 l 631 0 l 556 322 q 545 371 556 326 q 532 438 535 415 q 524 397 529 421 q 513 350 518 372 q 506 322 507 328 l 431 0 l 253 0 z "},"Ẅ":{"ha":1185,"x_min":42,"x_max":1143,"o":"m 534 1093 q 518 1078 534 1093 q 456 1063 503 1063 q 378 1092 408 1063 q 347 1171 347 1122 q 378 1249 347 1218 q 456 1281 408 1281 q 534 1249 503 1281 q 565 1171 565 1218 q 534 1093 565 1124 m 728 1063 q 649 1093 679 1063 q 618 1171 618 1124 q 649 1249 618 1218 q 728 1281 681 1281 q 805 1249 774 1281 q 836 1171 836 1218 q 805 1093 836 1124 q 728 1063 774 1063 m 250 0 l 42 972 l 260 972 l 361 454 q 365 428 364 444 q 368 406 367 411 q 371 429 369 413 q 375 457 372 446 l 499 972 l 683 972 l 808 456 q 814 425 811 443 q 817 403 817 407 q 819 418 818 408 q 822 436 821 428 q 825 453 824 444 l 925 972 l 1143 972 l 933 0 l 733 0 l 597 540 q 589 594 594 553 q 581 542 583 547 l 450 0 l 250 0 z "},"ẅ":{"ha":1063,"x_min":49,"x_max":1014,"o":"m 476 831 q 460 815 476 831 q 397 800 444 800 q 319 831 350 800 q 289 908 289 861 q 319 987 289 956 q 397 1018 350 1018 q 476 987 444 1018 q 507 908 507 956 q 476 831 507 861 m 669 800 q 590 831 621 800 q 560 908 560 861 q 591 987 560 956 q 669 1018 622 1018 q 747 987 715 1018 q 778 908 778 956 q 747 831 778 861 q 669 800 715 800 m 253 0 l 49 710 l 247 710 l 321 418 q 331 368 324 407 q 342 314 338 329 q 353 364 344 324 q 365 418 361 404 l 440 710 l 621 710 l 694 418 q 706 368 697 407 q 718 314 714 329 q 727 366 721 326 q 738 418 733 406 l 815 710 l 1014 710 l 808 0 l 631 0 l 556 322 q 545 371 556 326 q 532 438 535 415 q 524 397 529 421 q 513 350 518 372 q 506 322 507 328 l 431 0 l 253 0 z "},"Ỳ":{"ha":982,"x_min":17,"x_max":965,"o":"m 482 1063 l 235 1279 l 475 1279 l 672 1063 l 482 1063 m 386 0 l 386 378 l 17 972 l 256 972 l 492 603 l 726 972 l 965 972 l 596 378 l 596 0 l 386 0 z "},"ỳ":{"ha":817,"x_min":35,"x_max":782,"o":"m 415 800 l 168 1017 l 408 1017 l 606 800 l 415 800 m 196 -269 l 303 8 l 35 710 l 243 710 l 388 331 q 410 264 403 289 q 432 331 417 289 l 575 710 l 782 710 l 404 -269 l 196 -269 z "},"–":{"ha":688,"x_min":69,"x_max":618,"o":"m 69 310 l 69 488 l 618 488 l 618 310 l 69 310 z "},"—":{"ha":799,"x_min":-7,"x_max":806,"o":"m -7 310 l -7 488 l 806 488 l 806 310 l -7 310 z "},"―":{"ha":799,"x_min":-7,"x_max":806,"o":"m -7 310 l -7 488 l 806 488 l 806 310 l -7 310 z "},"‘":{"ha":363,"x_min":49,"x_max":318,"o":"m 172 567 q 85 605 121 567 q 49 704 49 643 q 101 860 49 783 q 229 989 153 938 l 318 919 q 269 865 300 904 q 225 801 238 825 q 296 686 296 764 q 259 600 296 633 q 172 567 222 567 z "},"’":{"ha":363,"x_min":44,"x_max":314,"o":"m 44 636 q 94 690 64 653 q 138 754 124 728 q 67 868 67 789 q 103 955 67 921 q 192 989 140 989 q 279 952 244 989 q 314 851 314 915 q 260 693 314 775 q 133 567 206 611 l 44 636 z "},"‚":{"ha":363,"x_min":44,"x_max":314,"o":"m 44 -126 q 94 -72 64 -110 q 138 -8 124 -35 q 67 107 67 29 q 104 194 67 160 q 192 228 142 228 q 279 190 244 228 q 314 90 314 153 q 260 -69 314 13 q 133 -196 206 -151 l 44 -126 z "},"‛":{"ha":363,"x_min":49,"x_max":318,"o":"m 229 567 q 101 694 154 614 q 49 851 49 774 q 84 952 49 915 q 172 989 119 989 q 259 955 222 989 q 296 868 296 921 q 225 754 296 789 q 269 691 238 731 q 318 636 300 651 l 229 567 z "},"“":{"ha":707,"x_min":49,"x_max":663,"o":"m 172 567 q 85 605 121 567 q 49 704 49 643 q 101 860 49 783 q 229 989 153 938 l 318 919 q 269 865 300 904 q 225 801 238 825 q 296 686 296 764 q 259 600 296 633 q 172 567 222 567 m 517 567 q 428 604 464 567 q 393 704 393 642 q 446 860 393 782 q 574 989 499 939 l 663 919 q 569 801 604 867 q 640 686 640 764 q 603 600 640 633 q 517 567 567 567 z "},"”":{"ha":707,"x_min":44,"x_max":658,"o":"m 44 636 q 94 690 64 653 q 138 754 124 728 q 67 868 67 789 q 103 955 67 921 q 192 989 140 989 q 279 952 244 989 q 314 851 314 915 q 260 693 314 775 q 133 567 206 611 l 44 636 m 389 636 q 438 690 408 653 q 482 754 468 728 q 411 868 411 789 q 448 955 411 921 q 536 989 485 989 q 624 952 590 989 q 658 851 658 915 q 605 691 658 774 q 478 567 551 608 l 389 636 z "},"„":{"ha":707,"x_min":44,"x_max":658,"o":"m 44 -126 q 94 -72 64 -110 q 138 -8 124 -35 q 67 107 67 29 q 104 194 67 160 q 192 228 142 228 q 279 190 244 228 q 314 90 314 153 q 260 -69 314 13 q 133 -196 206 -151 l 44 -126 m 389 -126 q 438 -72 408 -110 q 482 -8 468 -35 q 411 107 411 29 q 449 194 411 160 q 536 228 486 228 q 624 191 590 228 q 658 90 658 154 q 605 -71 658 11 q 478 -196 551 -153 l 389 -126 z "},"†":{"ha":831,"x_min":90,"x_max":740,"o":"m 506 578 l 515 463 l 472 -196 l 357 -196 l 314 463 l 325 578 l 199 561 l 90 561 l 90 756 l 199 756 l 325 738 l 314 815 l 314 989 l 515 989 l 515 815 l 506 738 l 631 756 l 740 756 l 740 561 l 631 561 l 506 578 z "},"‡":{"ha":831,"x_min":90,"x_max":740,"o":"m 740 39 l 631 39 l 506 56 l 515 -22 l 515 -196 l 314 -196 l 314 -22 l 325 56 l 199 39 l 90 39 l 90 232 l 199 232 l 325 215 l 314 332 l 314 463 l 325 578 l 199 561 l 90 561 l 90 756 l 199 756 l 325 738 l 314 815 l 314 989 l 515 989 l 515 815 l 506 738 l 631 756 l 740 756 l 740 561 l 631 561 l 506 578 l 515 463 l 515 332 l 506 215 l 631 232 l 740 232 l 740 39 z "},"•":{"ha":596,"x_min":83,"x_max":513,"o":"m 449 340 q 417 309 449 340 q 296 279 385 279 q 145 340 207 279 q 83 486 83 400 q 145 633 83 572 q 296 694 207 694 q 449 633 385 694 q 513 486 513 572 q 449 340 513 400 z "},"…":{"ha":1544,"x_min":125,"x_max":1419,"o":"m 352 20 q 333 2 352 20 q 257 -17 314 -17 q 163 20 200 -17 q 125 113 125 57 q 163 205 125 167 q 257 243 201 243 q 351 205 313 243 q 390 113 390 167 q 352 20 390 57 m 866 20 q 847 2 866 20 q 771 -17 828 -17 q 677 20 714 -17 q 640 113 640 57 q 678 205 640 167 q 771 243 715 243 q 865 205 826 243 q 904 113 904 167 q 866 20 904 57 m 1381 20 q 1361 2 1381 20 q 1285 -17 1342 -17 q 1191 20 1228 -17 q 1154 113 1154 57 q 1192 205 1154 167 q 1285 243 1229 243 q 1381 205 1342 243 q 1419 113 1419 167 q 1381 20 1419 57 z "},"‰":{"ha":1721,"x_min":63,"x_max":1658,"o":"m 304 474 q 123 551 183 474 q 63 731 63 629 q 85 847 63 792 q 164 946 107 903 q 304 989 221 989 q 485 911 425 989 q 544 731 544 833 q 531 643 544 686 q 492 561 518 600 q 417 498 465 522 q 304 474 368 474 m 356 -17 l 150 -17 l 811 989 l 1018 989 l 356 -17 m 304 646 q 351 670 335 646 q 367 731 367 694 q 304 817 367 817 q 256 792 272 817 q 240 731 240 768 q 304 646 240 646 m 1045 62 q 1016 23 1045 62 q 864 -17 986 -17 q 683 60 742 -17 q 624 242 624 138 q 683 420 624 340 q 864 500 743 500 q 1044 423 985 500 q 1104 242 1104 346 q 1045 62 1104 140 m 1418 -17 q 1237 60 1296 -17 q 1178 242 1178 138 q 1191 329 1178 286 q 1231 412 1204 372 q 1307 476 1258 451 q 1418 500 1356 500 q 1599 423 1540 500 q 1658 242 1658 346 q 1646 152 1658 196 q 1607 69 1633 108 q 1531 7 1581 31 q 1418 -17 1482 -17 m 864 156 q 911 181 894 156 q 928 242 928 206 q 911 304 928 281 q 864 328 894 328 q 817 303 833 328 q 800 242 800 278 q 864 156 800 156 m 1418 156 q 1466 181 1450 156 q 1482 242 1482 206 q 1418 328 1482 328 q 1371 303 1388 328 q 1354 242 1354 278 q 1418 156 1354 156 z "},"′":{"ha":367,"x_min":49,"x_max":318,"o":"m 49 542 l 76 1014 l 318 1014 l 228 542 l 49 542 z "},"″":{"ha":660,"x_min":49,"x_max":611,"o":"m 49 542 l 76 1014 l 318 1014 l 228 542 l 49 542 m 342 542 l 369 1014 l 611 1014 l 521 542 l 342 542 z "},"‹":{"ha":489,"x_min":42,"x_max":468,"o":"m 253 0 l 42 356 l 253 710 l 468 710 l 257 356 l 468 0 l 253 0 z "},"›":{"ha":489,"x_min":21,"x_max":447,"o":"m 21 0 l 232 356 l 21 710 l 236 710 l 447 356 l 236 0 l 21 0 z "},"⁄":{"ha":528,"x_min":-167,"x_max":694,"o":"m -167 -17 l 497 989 l 694 989 l 31 -17 l -167 -17 z "},"ⁿ":{"ha":688,"x_min":83,"x_max":611,"o":"m 450 393 l 450 738 q 423 809 450 785 q 351 833 396 833 q 243 738 243 833 l 243 393 l 83 393 l 83 975 l 243 975 l 243 925 q 399 989 297 989 q 547 937 483 989 q 611 771 611 885 l 611 393 l 450 393 z "},"₤":{"ha":868,"x_min":104,"x_max":826,"o":"m 125 0 l 125 178 q 206 263 186 204 l 104 263 l 104 411 l 224 411 q 196 503 222 451 l 104 503 l 104 651 l 151 651 q 143 724 143 682 q 232 913 143 836 q 486 989 321 989 q 814 883 667 989 l 736 692 q 672 738 697 721 q 596 773 647 754 q 492 792 544 792 q 385 765 419 792 q 350 697 350 738 q 358 651 350 682 l 632 651 l 632 503 l 415 503 q 435 411 433 454 l 632 411 l 632 263 l 421 263 q 385 197 413 231 l 826 197 l 826 0 l 125 0 z "},"€":{"ha":894,"x_min":53,"x_max":839,"o":"m 682 275 l 839 178 q 705 35 785 88 q 529 -17 625 -17 q 188 301 242 -17 l 54 301 l 117 442 l 167 442 q 165 478 165 458 q 167 513 165 490 l 53 513 l 115 654 l 188 654 q 305 897 217 806 q 543 989 393 989 q 815 890 681 989 l 743 713 q 543 796 646 796 q 399 657 439 796 l 722 657 l 664 513 l 375 513 l 374 486 q 375 442 374 453 l 638 442 l 579 297 l 401 297 q 449 208 414 239 q 529 176 483 176 q 682 275 614 176 z "},"℅":{"ha":1518,"x_min":69,"x_max":1449,"o":"m 342 378 q 144 459 218 378 q 69 683 69 540 q 144 907 69 825 q 343 989 218 989 q 596 808 536 989 l 443 757 q 339 833 413 833 q 262 792 292 833 q 232 683 232 750 q 261 573 232 614 q 339 532 290 532 q 404 555 375 532 q 443 619 433 578 l 599 572 q 342 378 544 378 m 333 -17 l 997 989 l 1174 989 l 510 -17 l 333 -17 m 1181 -17 q 984 65 1057 -17 q 911 288 911 147 q 984 510 911 428 q 1181 593 1057 593 q 1377 511 1306 593 q 1449 288 1449 429 q 1377 65 1449 146 q 1181 -17 1306 -17 m 1181 139 q 1258 178 1229 139 q 1288 288 1288 218 q 1258 397 1288 356 q 1181 438 1229 438 q 1101 398 1128 438 q 1074 288 1074 358 q 1181 139 1074 139 z "},"ℓ":{"ha":718,"x_min":76,"x_max":656,"o":"m 375 -17 q 233 27 285 -17 q 181 163 181 71 l 181 261 q 140 244 168 253 l 76 406 q 118 424 97 414 q 156 444 139 435 q 181 456 174 453 l 181 699 q 240 922 181 856 q 418 989 300 989 q 590 933 525 989 q 656 775 656 876 q 382 375 656 539 l 382 207 q 413 157 382 157 q 533 228 463 157 l 597 81 q 375 -17 504 -17 m 417 839 q 397 830 404 839 q 386 791 390 821 q 382 707 382 761 l 382 581 q 432 652 410 603 q 454 758 454 701 q 446 820 454 801 q 417 839 438 839 z "},"№":{"ha":1633,"x_min":104,"x_max":1529,"o":"m 1458 460 q 1422 420 1458 460 q 1264 379 1386 379 q 1068 461 1142 379 q 994 683 994 543 q 1068 906 994 824 q 1264 989 1142 989 q 1458 907 1386 989 q 1529 683 1529 825 q 1458 460 1529 542 m 901 0 l 717 0 l 350 515 q 308 589 336 533 q 313 515 313 565 l 313 0 l 104 0 l 104 972 l 297 972 l 654 463 q 694 390 681 425 q 690 464 690 419 l 690 972 l 901 972 l 901 0 m 1264 538 q 1342 576 1313 538 q 1371 683 1371 615 q 1342 792 1371 751 q 1264 833 1313 833 q 1183 793 1211 833 q 1156 683 1156 753 q 1264 538 1156 538 m 994 135 l 994 303 l 1529 303 l 1529 135 l 994 135 z "},"™":{"ha":1208,"x_min":22,"x_max":1117,"o":"m 165 386 l 165 835 l 22 835 l 22 972 l 458 972 l 458 835 l 317 835 l 317 386 l 165 386 m 1117 386 l 965 386 l 965 676 l 953 650 l 807 383 l 660 650 l 646 676 l 646 386 l 494 386 l 494 972 l 643 972 l 790 688 l 807 651 l 822 688 l 969 972 l 1117 972 l 1117 386 z "},"Ω":{"ha":1038,"x_min":90,"x_max":949,"o":"m 561 0 l 561 161 q 688 342 649 254 q 728 540 728 429 q 678 715 728 643 q 518 786 629 786 q 359 715 408 786 q 310 539 310 644 q 350 341 310 429 q 478 161 390 253 l 478 0 l 90 0 l 90 204 l 224 204 q 90 542 90 357 q 103 668 90 607 q 149 789 117 729 q 229 892 182 849 q 351 962 276 935 q 518 989 425 989 q 685 963 611 989 q 808 892 760 936 q 888 789 856 849 q 933 668 919 729 q 947 542 947 607 q 813 204 947 365 l 949 204 l 949 0 l 561 0 z "},"℮":{"ha":1125,"x_min":90,"x_max":1036,"o":"m 569 -17 q 229 122 368 -17 q 90 486 90 261 q 131 708 90 610 q 239 868 171 807 q 393 961 307 929 q 574 993 479 993 q 897 856 764 993 q 1036 467 1029 719 l 338 467 l 338 207 q 435 131 372 161 q 578 101 499 101 q 886 279 771 101 l 979 221 q 806 42 903 101 q 569 -17 708 -17 m 338 585 l 794 586 l 794 785 q 699 850 758 825 q 571 875 639 875 q 338 794 431 875 l 338 585 z "},"⅓":{"ha":1071,"x_min":10,"x_max":1025,"o":"m 22 -17 l 686 989 l 885 989 l 221 -17 l 22 -17 m 78 393 l 78 806 l 10 806 l 10 938 q 115 979 92 938 l 253 979 l 253 393 l 78 393 m 811 -8 q 672 36 729 -8 q 588 163 614 81 l 743 201 q 811 143 760 143 q 845 156 833 143 q 857 188 857 169 q 790 232 857 232 l 732 232 l 732 371 l 789 371 q 839 408 839 371 q 800 444 839 444 q 743 404 760 444 l 606 456 q 688 560 632 524 q 818 596 744 596 q 954 548 903 596 q 1006 432 1006 500 q 929 303 1006 342 q 1025 171 1025 275 q 970 41 1025 90 q 811 -8 915 -8 z "},"⅔":{"ha":1296,"x_min":32,"x_max":1250,"o":"m 32 393 q 236 744 32 640 q 293 797 293 776 q 254 833 293 833 q 188 778 207 833 l 36 814 q 121 943 63 897 q 265 989 179 989 q 415 939 357 989 q 472 807 472 889 q 462 737 472 767 q 426 683 451 707 q 381 647 401 660 q 322 614 361 635 q 297 599 314 608 q 272 584 281 589 q 253 571 263 579 q 239 554 244 563 l 471 554 l 471 393 l 32 393 m 250 -17 l 914 989 l 1110 989 l 446 -17 l 250 -17 m 1038 -8 q 898 36 956 -8 q 814 163 840 81 l 969 201 q 1038 143 986 143 q 1072 156 1060 143 q 1083 188 1083 169 q 1068 222 1083 211 q 1017 232 1053 232 l 958 232 l 958 371 l 1015 371 q 1065 408 1065 371 q 1026 444 1065 444 q 971 404 988 444 l 833 456 q 915 559 858 522 q 1044 596 972 596 q 1181 548 1129 596 q 1232 432 1232 500 q 1156 303 1232 342 q 1250 171 1250 276 q 1196 41 1250 90 q 1038 -8 1142 -8 z "},"⅛":{"ha":1083,"x_min":10,"x_max":1038,"o":"m 22 -17 l 686 989 l 885 989 l 221 -17 l 22 -17 m 78 393 l 78 806 l 10 806 l 10 938 q 115 979 92 938 l 253 979 l 253 393 l 78 393 m 813 -11 q 652 40 715 -11 q 589 174 589 92 q 619 263 589 222 q 692 318 650 304 q 635 365 658 332 q 613 440 613 399 q 666 552 613 508 q 813 596 719 596 q 960 552 907 596 q 1014 440 1014 508 q 991 366 1014 400 q 933 318 968 332 q 1006 264 975 304 q 1038 174 1038 224 q 975 40 1038 92 q 813 -11 913 -11 m 813 376 q 865 426 865 376 q 851 463 865 449 q 813 478 838 478 q 776 463 790 478 q 761 426 761 449 q 776 390 761 404 q 813 376 790 376 m 813 107 q 873 127 850 107 q 896 179 896 147 q 873 237 896 215 q 813 258 850 258 q 753 236 776 258 q 731 179 731 214 q 753 127 731 147 q 813 107 776 107 z "},"⅜":{"ha":1243,"x_min":17,"x_max":1197,"o":"m 240 385 q 17 556 75 385 l 172 594 q 240 536 188 536 q 275 549 263 536 q 288 581 288 563 q 219 625 288 625 l 161 625 l 161 764 l 218 764 q 268 801 268 764 q 229 838 268 838 q 172 797 190 838 l 35 849 q 118 953 61 917 q 247 989 175 989 q 383 940 332 989 q 435 825 435 892 q 413 745 435 779 q 358 696 390 711 q 454 564 454 668 q 399 434 454 483 q 240 385 344 385 m 183 -17 l 847 989 l 1043 989 l 379 -17 l 183 -17 m 974 -11 q 813 40 875 -11 q 750 174 750 92 q 781 263 750 222 q 851 318 811 304 q 795 365 818 332 q 772 440 772 399 q 826 552 772 508 q 974 596 879 596 q 1120 552 1067 596 q 1174 440 1174 508 q 1151 366 1174 400 q 1094 318 1128 332 q 1167 264 1136 304 q 1197 174 1197 224 q 1135 40 1197 92 q 974 -11 1074 -11 m 974 376 q 1025 426 1025 376 q 1011 463 1025 449 q 974 478 997 478 q 937 463 951 478 q 922 426 922 449 q 937 390 922 404 q 974 376 951 376 m 974 107 q 1033 127 1010 107 q 1056 179 1056 147 q 1033 236 1056 214 q 974 258 1010 258 q 914 237 936 258 q 892 179 892 215 q 914 127 892 147 q 974 107 936 107 z "},"⅝":{"ha":1238,"x_min":29,"x_max":1192,"o":"m 239 383 q 29 450 119 383 l 114 569 q 226 532 169 532 q 281 546 260 532 q 301 586 301 560 q 250 643 301 643 q 182 596 207 643 l 42 671 l 58 994 l 438 994 l 438 847 l 200 847 l 194 774 q 278 790 231 790 q 419 733 368 790 q 469 592 469 675 q 405 438 469 493 q 239 383 340 383 m 176 -17 l 840 989 l 1038 989 l 374 -17 l 176 -17 m 967 -11 q 806 40 869 -11 q 743 174 743 92 q 774 263 743 222 q 846 318 804 304 q 790 365 813 332 q 767 440 767 399 q 820 552 767 508 q 967 596 874 596 q 1115 552 1061 596 q 1168 440 1168 508 q 1145 366 1168 400 q 1088 318 1122 332 q 1160 264 1129 304 q 1192 174 1192 224 q 1129 40 1192 92 q 967 -11 1067 -11 m 967 376 q 1019 426 1019 376 q 1006 463 1019 449 q 967 478 992 478 q 930 463 944 478 q 915 426 915 449 q 930 390 915 404 q 967 376 944 376 m 967 107 q 1027 127 1004 107 q 1050 179 1050 147 q 1027 237 1050 215 q 967 258 1004 258 q 908 236 931 258 q 885 179 885 214 q 908 127 885 147 q 967 107 931 107 z "},"⅞":{"ha":1114,"x_min":7,"x_max":1068,"o":"m 117 393 q 247 833 115 639 l 7 833 l 7 994 l 438 994 l 438 867 q 328 649 361 782 q 290 393 294 515 l 117 393 m 53 -17 l 717 989 l 915 989 l 251 -17 l 53 -17 m 844 -11 q 683 40 746 -11 q 621 174 621 92 q 651 263 621 222 q 724 318 682 304 q 666 365 689 332 q 643 440 643 399 q 697 552 643 508 q 844 596 750 596 q 991 552 938 596 q 1044 440 1044 508 q 1022 366 1044 400 q 965 318 999 332 q 1038 264 1007 304 q 1068 174 1068 224 q 1006 40 1068 92 q 844 -11 944 -11 m 844 376 q 896 426 896 376 q 844 478 896 478 q 808 463 822 478 q 793 426 793 449 q 808 390 793 404 q 844 376 822 376 m 844 107 q 904 127 881 107 q 928 179 928 147 q 904 236 928 214 q 844 258 881 258 q 785 237 807 258 q 763 179 763 215 q 785 127 763 147 q 844 107 807 107 z "},"←":{"ha":1040,"x_min":28,"x_max":1000,"o":"m 507 167 q 483 178 501 167 l 43 476 q 28 500 28 486 q 43 524 28 517 l 483 825 q 507 836 501 836 q 524 821 524 836 q 515 792 524 814 l 446 594 l 1000 608 l 1000 390 l 446 406 l 515 211 q 524 182 524 189 q 507 167 524 167 z "},"↑":{"ha":726,"x_min":28,"x_max":700,"o":"m 254 0 l 269 554 l 72 485 q 43 476 50 476 q 28 493 28 476 q 39 517 28 499 l 339 957 q 363 972 349 972 q 386 957 376 972 l 689 517 q 700 493 700 499 q 685 476 700 476 q 656 485 678 476 l 458 554 l 472 0 l 254 0 z "},"→":{"ha":1040,"x_min":42,"x_max":1014,"o":"m 535 167 q 518 182 518 167 q 526 211 518 189 l 594 406 l 42 390 l 42 608 l 594 594 l 526 792 q 518 821 518 814 q 535 836 518 836 q 558 825 540 836 l 999 524 q 1014 500 1014 517 q 999 476 1014 486 l 558 178 q 535 167 540 167 z "},"↓":{"ha":704,"x_min":22,"x_max":683,"o":"m 668 486 q 683 469 683 486 q 672 446 683 464 l 376 15 q 353 0 367 0 q 329 15 339 0 l 33 446 q 25 465 29 453 q 22 469 22 469 q 38 486 22 486 q 67 478 44 486 l 258 411 l 244 972 l 461 972 l 447 411 l 639 478 q 668 486 661 486 z "},"↔":{"ha":1486,"x_min":28,"x_max":1460,"o":"m 981 167 q 964 182 964 167 q 972 211 964 189 l 1040 403 l 447 403 l 515 211 q 524 182 524 189 q 507 167 524 167 q 483 178 501 167 l 43 476 q 28 500 28 486 q 43 524 28 517 l 483 825 q 507 836 501 836 q 524 821 524 836 q 515 792 524 814 l 447 596 l 1040 596 l 972 792 q 964 821 964 814 q 981 836 964 836 q 1004 825 986 836 l 1444 524 q 1460 500 1460 517 q 1444 476 1460 486 l 1004 178 q 981 167 986 167 z "},"↕":{"ha":704,"x_min":17,"x_max":689,"o":"m 375 -221 q 351 -236 365 -236 q 328 -221 338 -236 l 28 219 q 17 243 17 238 q 32 260 17 260 q 61 251 39 260 l 254 183 l 254 644 l 61 576 q 32 568 39 568 q 17 585 17 568 q 28 608 17 590 l 328 1049 q 351 1064 338 1064 q 375 1049 365 1064 l 678 608 q 689 585 689 590 q 674 568 689 568 q 644 576 667 568 l 447 644 l 447 183 l 644 251 q 674 260 667 260 q 689 243 689 260 q 678 219 689 238 l 375 -221 z "},"↖":{"ha":843,"x_min":49,"x_max":819,"o":"m 667 64 l 285 468 l 193 278 q 190 270 192 275 q 186 263 188 265 q 183 258 185 261 q 179 253 181 254 q 175 251 178 253 q 169 250 172 250 q 150 275 154 250 l 54 779 q 49 814 49 810 q 69 836 49 836 q 99 832 82 836 l 607 738 q 638 715 638 731 q 610 692 638 703 l 418 601 l 819 218 l 667 64 z "},"↗":{"ha":843,"x_min":24,"x_max":796,"o":"m 178 64 l 24 218 l 425 601 l 233 692 q 207 715 207 703 q 238 738 207 731 l 746 832 q 774 836 763 836 q 796 814 796 836 q 790 779 796 810 l 693 275 q 674 250 690 250 q 668 251 671 250 q 664 253 665 253 q 660 258 663 254 q 657 263 658 261 q 653 270 656 265 q 650 278 651 275 l 558 468 l 178 64 z "},"↘":{"ha":843,"x_min":24,"x_max":796,"o":"m 774 64 q 746 68 771 64 l 238 164 q 207 185 207 171 q 233 210 207 197 l 425 300 l 24 682 l 178 836 l 558 433 l 650 622 q 653 630 651 625 q 657 638 656 635 q 660 643 658 640 q 664 647 663 646 q 668 650 665 649 q 674 651 671 651 q 693 626 690 651 l 790 121 q 796 86 796 90 q 774 64 796 64 z "},"↙":{"ha":843,"x_min":49,"x_max":819,"o":"m 69 64 q 49 86 49 64 q 54 121 49 90 l 150 626 q 169 651 154 651 q 190 628 181 651 q 192 625 192 626 q 193 622 193 624 l 285 433 l 667 836 l 819 682 l 418 300 l 610 210 q 638 185 638 196 q 635 177 638 181 q 629 171 633 174 q 623 167 625 168 q 614 165 621 167 l 607 164 l 99 68 q 69 64 74 64 z "},"↳":{"ha":1160,"x_min":106,"x_max":1111,"o":"m 1096 321 q 1111 297 1111 314 q 1096 274 1111 283 l 656 -26 q 632 -37 638 -37 q 615 -22 615 -37 q 624 7 615 -15 l 692 200 l 106 200 l 106 972 l 310 972 l 310 393 l 692 393 l 624 589 q 615 618 615 611 q 632 633 615 633 q 656 622 638 633 l 1096 321 z "},"↴":{"ha":1160,"x_min":106,"x_max":1111,"o":"m 1096 447 q 1111 431 1111 447 q 1100 407 1111 425 l 800 -33 q 776 -49 790 -49 q 753 -33 763 -49 l 451 407 q 440 431 440 425 q 456 447 440 447 q 485 439 463 447 l 678 372 l 678 776 l 106 776 l 106 972 l 876 972 l 876 372 l 1067 439 q 1096 447 1089 447 z "},"↵":{"ha":1160,"x_min":49,"x_max":1054,"o":"m 851 972 l 1054 972 l 1054 200 l 468 200 l 536 7 q 544 -22 544 -15 q 528 -37 544 -37 q 504 -26 522 -37 l 64 274 q 49 297 49 283 q 64 321 49 314 l 504 622 q 528 633 522 633 q 544 618 544 633 q 536 589 544 611 l 468 393 l 851 393 l 851 972 z "},"↶":{"ha":1190,"x_min":49,"x_max":1094,"o":"m 690 989 q 882 948 793 989 q 1033 812 971 907 q 1094 582 1094 717 l 1094 0 l 897 0 l 897 582 q 838 742 897 686 q 690 797 778 797 q 542 742 600 797 q 483 582 483 688 l 483 553 l 675 619 q 704 628 697 628 q 719 611 719 628 q 708 588 719 606 l 408 147 q 385 132 399 132 q 361 147 371 132 l 60 588 q 49 611 49 606 q 64 628 49 628 q 93 619 71 628 l 286 553 l 286 582 q 323 767 286 686 q 419 894 360 847 q 549 965 479 942 q 690 989 618 989 z "},"↷":{"ha":1190,"x_min":97,"x_max":1142,"o":"m 1126 628 q 1142 611 1142 628 q 1131 588 1142 606 l 831 147 q 807 132 821 132 q 783 147 793 132 l 483 588 q 472 611 472 606 q 488 628 472 628 q 517 619 494 628 l 707 553 l 707 582 q 649 742 707 688 q 501 797 590 797 q 354 742 414 797 q 294 582 294 686 l 294 0 l 97 0 l 97 582 q 219 884 97 779 q 501 989 340 989 q 643 965 574 989 q 772 894 713 942 q 869 767 832 847 q 906 582 906 686 l 906 553 l 1097 619 q 1126 628 1119 628 z "},"↸":{"ha":843,"x_min":49,"x_max":819,"o":"m 49 776 l 49 972 l 819 972 l 819 776 l 49 776 m 667 -89 l 285 315 l 193 125 q 190 117 192 122 q 186 110 188 113 q 183 105 185 108 q 179 101 181 101 q 175 99 178 100 q 169 97 172 97 q 150 122 153 97 l 54 626 q 49 661 49 657 q 69 683 49 683 q 99 679 74 683 l 607 583 q 614 582 608 583 q 623 580 619 581 q 630 577 626 579 q 635 572 633 575 q 638 563 638 568 q 610 538 638 549 l 418 447 l 819 65 l 667 -89 z "},"↹":{"ha":1524,"x_min":106,"x_max":1418,"o":"m 871 410 q 847 421 865 410 l 407 719 q 392 743 392 729 q 407 767 392 758 l 847 1068 q 871 1079 865 1079 q 888 1064 888 1079 q 879 1035 888 1057 l 810 838 l 1418 851 l 1418 633 l 810 649 l 879 454 q 888 425 888 432 q 871 410 888 410 m 106 418 l 106 1065 l 307 1065 l 307 418 l 106 418 m 653 -385 q 636 -369 636 -385 q 644 -340 636 -362 l 714 -146 l 106 -160 l 106 58 l 714 44 l 644 242 q 636 271 636 264 q 653 286 636 286 q 676 275 658 286 l 1117 -26 q 1132 -50 1132 -33 q 1117 -74 1132 -64 l 676 -374 q 653 -385 658 -385 m 1217 -371 l 1217 272 l 1418 272 l 1418 -371 l 1217 -371 z "},"↺":{"ha":1175,"x_min":139,"x_max":1149,"o":"m 1118 918 q 1149 897 1149 911 q 1119 872 1149 885 l 925 781 q 1036 486 1036 651 q 904 169 1036 300 q 588 38 772 38 q 271 169 403 38 q 139 486 139 300 q 271 803 139 674 l 399 676 q 319 486 319 600 q 399 297 319 375 q 588 218 478 218 q 778 297 699 218 q 857 486 857 375 q 797 653 857 576 l 704 460 q 701 452 703 457 q 697 444 699 447 q 694 439 696 442 q 690 435 692 436 q 686 432 689 433 q 681 431 683 431 q 660 456 667 431 l 564 961 q 558 996 558 992 q 581 1018 558 1018 q 608 1014 583 1018 l 1118 918 z "},"⇚":{"ha":1040,"x_min":28,"x_max":1000,"o":"m 1000 589 l 444 589 l 429 544 l 1000 544 l 1000 454 l 428 454 l 444 408 l 1000 408 l 1000 318 l 476 318 l 515 211 q 524 182 524 189 q 507 167 524 167 q 483 178 501 167 l 43 476 q 28 500 28 486 q 43 524 28 517 l 483 825 q 507 836 501 836 q 524 821 524 836 q 515 792 524 814 l 476 681 l 1000 681 l 1000 589 z "},"⇛":{"ha":1040,"x_min":42,"x_max":1014,"o":"m 999 524 q 1014 500 1014 517 q 999 476 1014 486 l 558 178 q 535 167 540 167 q 518 182 518 167 q 526 211 518 189 l 564 318 l 42 318 l 42 408 l 596 408 l 613 454 l 42 454 l 42 544 l 613 544 l 597 589 l 42 589 l 42 681 l 565 681 l 526 792 q 518 821 518 814 q 535 836 518 836 q 558 825 540 836 l 999 524 z "},"⇜":{"ha":1040,"x_min":28,"x_max":1000,"o":"m 911 603 l 1000 603 l 1000 401 l 885 401 l 847 518 l 793 350 l 704 350 l 650 518 l 596 350 l 507 350 l 490 401 l 403 401 l 471 211 q 479 182 479 189 q 464 167 479 167 q 440 178 453 167 l 43 479 q 28 503 28 493 q 43 524 28 513 l 440 825 q 464 836 456 836 q 479 821 479 836 q 471 792 479 814 l 403 603 l 517 603 l 551 486 l 606 656 l 694 656 l 749 486 l 803 656 l 892 656 l 911 603 z "},"⇝":{"ha":1040,"x_min":42,"x_max":1014,"o":"m 999 524 q 1014 503 1014 513 q 999 479 1014 493 l 600 178 q 576 167 588 167 q 561 182 561 167 q 569 211 561 189 l 638 401 l 550 401 l 533 350 l 444 350 l 390 518 l 336 350 l 247 350 l 193 518 l 156 401 l 42 401 l 42 603 l 131 603 l 149 656 l 238 656 l 292 486 l 346 656 l 435 656 l 489 486 l 525 603 l 638 603 l 569 792 q 561 821 561 814 q 576 836 561 836 q 600 825 585 836 l 999 524 z "},"⇞":{"ha":726,"x_min":28,"x_max":700,"o":"m 689 517 q 700 493 700 499 q 685 476 700 476 q 656 485 678 476 l 463 551 l 463 407 l 683 407 l 683 288 l 463 288 l 463 208 l 683 208 l 683 90 l 463 90 l 463 0 l 265 0 l 265 90 l 40 90 l 40 208 l 265 208 l 265 288 l 40 288 l 40 407 l 265 407 l 265 551 l 72 485 q 43 476 50 476 q 28 493 28 476 q 39 517 28 499 l 339 957 q 363 972 349 972 q 386 957 376 972 l 689 517 z "},"⇟":{"ha":726,"x_min":28,"x_max":700,"o":"m 685 496 q 700 479 700 496 q 689 456 700 474 l 386 15 q 363 0 376 0 q 339 15 349 0 l 39 456 q 28 479 28 474 q 43 496 28 496 q 72 488 50 496 l 265 421 l 265 567 l 40 567 l 40 685 l 265 685 l 265 764 l 40 764 l 40 883 l 265 883 l 265 972 l 463 972 l 463 883 l 683 883 l 683 764 l 463 764 l 463 685 l 683 685 l 683 567 l 463 567 l 463 421 l 656 488 q 685 496 678 496 z "},"⇠":{"ha":1040,"x_min":28,"x_max":1000,"o":"m 515 792 l 446 596 l 546 596 l 546 403 l 447 403 l 515 208 q 524 179 524 186 q 507 164 524 164 q 483 175 501 164 l 43 476 q 28 500 28 486 q 43 524 28 517 l 483 825 q 507 836 501 836 q 524 821 524 836 q 515 792 524 814 m 644 403 l 644 596 l 772 596 l 772 403 l 644 403 m 871 596 l 1000 596 l 1000 403 l 871 403 l 871 596 z "},"⇡":{"ha":726,"x_min":28,"x_max":700,"o":"m 689 517 q 700 493 700 499 q 685 476 700 476 q 656 485 678 476 l 464 550 l 464 453 l 264 453 l 264 550 l 72 485 q 43 476 50 476 q 28 493 28 476 q 39 517 28 499 l 339 957 q 363 972 349 972 q 386 957 376 972 l 689 517 m 264 226 l 264 356 l 464 356 l 464 226 l 264 226 m 264 0 l 264 129 l 464 129 l 464 0 l 264 0 z "},"⇢":{"ha":1040,"x_min":42,"x_max":1014,"o":"m 999 524 q 1014 500 1014 517 q 999 476 1014 486 l 558 175 q 535 164 540 164 q 518 179 518 164 q 526 208 518 186 l 594 403 l 494 403 l 494 596 l 594 596 l 526 792 q 518 821 518 814 q 535 836 518 836 q 558 825 540 836 l 999 524 m 42 403 l 42 596 l 169 596 l 169 403 l 42 403 m 268 403 l 268 596 l 397 596 l 397 403 l 268 403 z "},"⇣":{"ha":726,"x_min":28,"x_max":700,"o":"m 464 972 l 464 847 l 264 847 l 264 972 l 464 972 m 464 749 l 464 625 l 264 625 l 264 749 l 464 749 m 685 496 q 700 479 700 496 q 689 456 700 474 l 386 15 q 363 0 376 0 q 339 15 349 0 l 39 456 q 28 479 28 474 q 43 496 28 496 q 72 488 50 496 l 264 422 l 264 526 l 464 526 l 464 422 l 656 488 q 685 496 678 496 z "},"⇤":{"ha":1393,"x_min":106,"x_max":1353,"o":"m 106 144 l 106 854 l 307 854 l 307 144 l 106 144 m 871 167 q 847 178 865 167 l 407 476 q 392 500 392 486 q 407 524 392 517 l 847 825 q 871 836 865 836 q 888 821 888 836 q 879 792 888 814 l 810 594 l 1353 608 l 1353 390 l 810 406 l 879 211 q 888 182 888 189 q 871 167 888 167 z "},"⇥":{"ha":1393,"x_min":42,"x_max":1288,"o":"m 1088 144 l 1088 854 l 1288 854 l 1288 144 l 1088 144 m 524 167 q 507 182 507 167 q 515 211 507 189 l 585 406 l 42 390 l 42 608 l 585 594 l 515 792 q 507 821 507 814 q 524 836 507 836 q 547 825 529 836 l 988 524 q 1003 500 1003 517 q 988 476 1003 486 l 547 178 q 524 167 529 167 z "},"∂":{"ha":839,"x_min":42,"x_max":763,"o":"m 364 -17 q 128 65 214 -17 q 42 301 42 146 q 143 529 42 439 q 385 619 244 619 q 554 576 489 619 q 544 608 551 583 q 242 794 476 782 l 290 989 q 651 833 539 964 q 763 463 763 703 q 740 283 763 365 q 673 131 718 200 q 549 23 628 63 q 364 -17 469 -17 m 283 205 q 300 191 283 205 q 382 176 318 176 q 490 217 446 176 q 533 311 533 257 q 498 396 533 365 q 406 426 463 426 q 293 384 339 426 q 247 286 247 342 q 283 205 247 233 z "},"∆":{"ha":847,"x_min":-11,"x_max":858,"o":"m -11 0 l 332 972 l 518 972 l 858 0 l -11 0 m 272 197 l 578 197 l 451 593 q 440 627 449 603 q 426 668 431 651 q 413 625 424 650 q 401 593 403 600 l 272 197 z "},"∏":{"ha":1039,"x_min":125,"x_max":914,"o":"m 714 -194 l 714 779 l 326 779 l 326 -194 l 125 -194 l 125 972 l 914 972 l 914 -194 l 714 -194 z "},"∑":{"ha":869,"x_min":63,"x_max":821,"o":"m 63 -192 l 63 -1 l 361 406 l 82 783 l 82 975 l 797 975 l 797 782 l 333 782 l 615 403 l 321 1 l 821 1 l 821 -192 l 63 -192 z "},"−":{"ha":875,"x_min":111,"x_max":764,"o":"m 111 379 l 111 575 l 764 575 l 764 379 l 111 379 z "},"∕":{"ha":528,"x_min":-167,"x_max":694,"o":"m -167 -17 l 497 989 l 694 989 l 31 -17 l -167 -17 z "},"∙":{"ha":350,"x_min":50,"x_max":300,"o":"m 263 399 q 245 382 263 399 q 174 364 226 364 q 85 399 121 364 q 50 485 50 435 q 85 571 50 535 q 174 607 121 607 q 263 571 226 607 q 300 485 300 535 q 263 399 300 435 z "},"√":{"ha":821,"x_min":63,"x_max":779,"o":"m 779 972 l 481 0 l 331 0 l 63 499 l 282 499 l 381 310 l 571 972 l 779 972 z "},"∞":{"ha":1415,"x_min":49,"x_max":1367,"o":"m 1013 147 q 840 188 918 147 q 708 290 761 228 q 401 147 589 147 q 149 235 249 147 q 49 474 49 322 q 149 711 49 624 q 401 799 249 799 q 708 656 589 799 q 1010 799 835 799 q 1266 712 1165 799 q 1367 474 1367 625 q 1266 235 1367 322 q 1013 147 1165 147 m 404 342 q 613 474 518 342 q 404 604 526 604 q 294 569 338 604 q 250 474 250 535 q 294 376 250 411 q 404 342 338 342 m 1010 342 q 1122 376 1078 342 q 1167 474 1167 411 q 1122 569 1167 535 q 1010 604 1078 604 q 803 474 889 604 q 1010 342 893 342 z "},"∫":{"ha":606,"x_min":56,"x_max":550,"o":"m 221 -194 q 56 -158 133 -194 l 56 7 q 157 -18 122 -18 q 203 24 203 -18 l 203 815 q 385 989 203 989 q 550 953 483 989 l 550 788 q 449 813 489 813 q 404 772 404 813 l 404 -21 q 221 -194 404 -194 z "},"≈":{"ha":875,"x_min":107,"x_max":767,"o":"m 563 510 q 422 546 496 510 q 325 582 349 582 q 288 565 299 582 q 272 510 276 547 l 107 510 q 158 702 107 625 q 311 779 210 779 q 447 743 376 779 q 549 707 518 707 q 587 725 576 707 q 601 779 597 743 l 767 779 q 717 585 767 661 q 563 510 668 510 m 563 175 q 422 211 496 175 q 325 247 349 247 q 288 230 299 247 q 272 175 276 213 l 107 175 q 158 367 107 290 q 311 444 210 444 q 447 408 376 444 q 549 372 518 372 q 601 444 594 372 l 767 444 q 717 251 767 326 q 563 175 668 175 z "},"≠":{"ha":875,"x_min":85,"x_max":744,"o":"m 417 215 l 379 122 l 158 122 l 197 215 l 85 215 l 85 408 l 276 408 l 335 546 l 85 546 l 85 739 l 417 739 l 465 857 l 685 857 l 638 739 l 744 739 l 744 546 l 554 546 l 499 408 l 744 408 l 744 215 l 417 215 z "},"≤":{"ha":875,"x_min":111,"x_max":767,"o":"m 767 204 l 111 444 l 111 599 l 767 836 l 767 644 l 397 521 l 767 396 l 767 204 m 111 0 l 111 196 l 764 196 l 764 0 l 111 0 z "},"≥":{"ha":875,"x_min":111,"x_max":767,"o":"m 111 204 l 111 396 l 481 521 l 111 644 l 111 836 l 767 599 l 767 444 l 111 204 m 111 0 l 111 196 l 764 196 l 764 0 l 111 0 z "},"◊":{"ha":851,"x_min":76,"x_max":775,"o":"m 358 -17 l 76 486 l 358 989 l 493 989 l 775 486 l 493 -17 l 358 -17 m 425 719 l 297 486 l 425 254 l 554 486 l 425 719 z "},"◌":{"ha":894,"x_min":76,"x_max":818,"o":"m 406 825 q 418 857 406 844 q 447 869 431 869 q 476 857 464 869 q 489 825 489 844 q 476 796 489 808 q 447 783 464 783 q 418 796 431 783 q 406 825 406 808 m 279 800 q 322 844 279 844 q 352 832 340 844 q 364 800 364 819 q 352 770 364 782 q 322 758 340 758 q 290 770 301 758 q 279 800 279 782 m 529 800 q 541 831 529 819 q 571 843 553 843 q 615 800 615 843 q 603 770 615 782 q 571 758 590 758 q 529 800 529 758 m 186 699 q 180 705 186 699 q 174 731 174 711 q 186 761 174 750 q 217 772 199 772 q 247 761 235 772 q 258 731 258 750 q 246 699 258 711 q 217 688 233 688 q 186 699 199 688 m 649 699 q 642 705 649 699 q 636 731 636 711 q 648 761 636 750 q 678 772 660 772 q 708 761 696 772 q 721 731 721 750 q 708 699 721 711 q 678 688 696 688 q 649 699 661 688 m 707 624 q 719 655 707 642 q 749 668 731 668 q 780 655 768 668 q 792 624 792 642 q 780 594 792 607 q 749 582 768 582 q 719 594 732 582 q 707 624 707 607 m 103 624 q 115 654 103 642 q 146 667 126 667 q 177 654 165 667 q 189 624 189 642 q 176 594 189 608 q 146 581 163 581 q 115 594 126 581 q 103 624 103 607 m 76 499 q 121 542 76 542 q 163 499 163 542 q 121 457 163 457 q 76 499 76 457 m 732 499 q 774 542 732 542 q 805 530 792 542 q 818 499 818 518 q 806 468 818 479 q 774 457 793 457 q 732 499 732 457 m 103 374 q 146 417 103 417 q 176 406 164 417 q 188 374 188 394 q 176 342 188 353 q 146 331 164 331 q 115 343 126 331 q 103 374 103 356 m 706 375 q 718 405 706 393 q 749 417 731 417 q 781 405 769 417 q 792 375 792 393 q 749 332 792 332 q 706 375 706 332 m 186 238 q 180 243 186 238 q 174 268 174 249 q 186 299 174 288 q 217 311 199 311 q 247 299 235 311 q 258 268 258 288 q 247 238 258 249 q 217 226 235 226 q 186 238 199 226 m 648 238 q 642 243 648 238 q 636 268 636 249 q 648 299 636 288 q 678 311 660 311 q 708 299 696 311 q 721 268 721 288 q 708 238 721 249 q 678 226 696 226 q 648 238 660 226 m 279 199 q 292 228 279 217 q 324 240 304 240 q 353 228 342 240 q 365 199 365 217 q 353 167 365 179 q 324 154 340 154 q 292 166 304 154 q 279 199 279 178 m 542 165 q 536 171 542 165 q 531 197 531 176 q 542 229 531 218 q 572 240 554 240 q 615 197 615 240 q 572 154 615 154 q 542 165 554 154 m 417 141 q 411 147 417 141 q 406 172 406 153 q 417 203 406 192 q 447 215 429 215 q 477 203 465 215 q 489 172 489 192 q 477 141 489 153 q 447 129 465 129 q 417 141 429 129 z "},"":{"ha":0,"x_min":-474,"x_max":-246,"o":"m -246 1014 l -246 1003 q -408 644 -246 794 l -474 694 q -442 822 -454 732 q -429 1014 -429 911 l -246 1014 z "},"ﬁ":{"ha":935,"x_min":17,"x_max":851,"o":"m 736 778 q 654 812 689 778 q 619 893 619 846 q 653 974 619 940 q 736 1007 688 1007 q 818 974 785 1007 q 851 893 851 942 q 818 812 851 846 q 736 778 785 778 m 313 533 l 313 0 l 111 0 l 111 533 l 17 533 l 17 710 l 111 710 l 111 815 q 293 989 111 989 q 461 953 394 989 l 461 790 q 360 814 403 814 q 313 774 313 814 l 313 710 l 461 710 l 461 533 l 313 533 m 635 0 l 635 710 l 836 710 l 836 0 l 635 0 z "},"ﬂ":{"ha":946,"x_min":17,"x_max":835,"o":"m 633 0 l 633 908 l 835 1003 l 835 0 l 633 0 m 313 533 l 313 0 l 111 0 l 111 533 l 17 533 l 17 710 l 111 710 l 111 815 q 293 989 111 989 q 461 953 394 989 l 461 790 q 360 814 403 814 q 313 774 313 814 l 313 710 l 461 710 l 461 533 l 313 533 z "}}}
